<svg width="295" height="295" viewBox="0 0 295 295" fill="none" xmlns="http://www.w3.org/2000/svg">
<path d="M170.156 231.28C170.156 231.28 216.095 233.428 245.151 181.516C274.207 129.604 240.02 81.8473 187.199 71.5246C134.377 61.202 108.069 22.4614 60.9935 52.1225C13.918 81.7835 40.078 239.736 170.156 231.28Z" fill="#C6FF00"/>
<path opacity="0.4" d="M170.156 231.28C170.156 231.28 216.095 233.428 245.151 181.516C274.207 129.604 240.02 81.8473 187.199 71.5246C134.377 61.202 108.069 22.4614 60.9935 52.1225C13.918 81.7835 40.078 239.736 170.156 231.28Z" fill="white"/>
<path d="M147.504 254.423C208.635 254.423 258.191 251.349 258.191 247.558C258.191 243.767 208.635 240.693 147.504 240.693C86.3734 240.693 36.8171 243.767 36.8171 247.558C36.8171 251.349 86.3734 254.423 147.504 254.423Z" fill="#C6FF00"/>
<path opacity="0.7" d="M147.504 254.423C208.635 254.423 258.191 251.349 258.191 247.558C258.191 243.767 208.635 240.693 147.504 240.693C86.3734 240.693 36.8171 243.767 36.8171 247.558C36.8171 251.349 86.3734 254.423 147.504 254.423Z" fill="white"/>
<path d="M171.739 66.8118L171.417 69.5128L172.885 70.0361C172.903 70.9612 173.031 71.8816 173.267 72.7767L171.995 73.7L173.065 76.2075L174.603 75.9184C175.084 76.7084 175.655 77.44 176.304 78.0979L175.658 79.5375L177.842 81.1694L179.024 80.164C179.835 80.6101 180.696 80.9588 181.589 81.2036L181.754 82.7654L184.455 83.0881L184.978 81.619C185.903 81.6007 186.823 81.4727 187.718 81.2367L188.644 82.5028L191.144 81.432L190.863 79.898C191.653 79.4177 192.384 78.8472 193.043 78.1982L194.48 78.8401L196.109 76.6624L195.102 75.4759C195.548 74.6647 195.896 73.8038 196.14 72.9112L197.703 72.7472L198.026 70.0461L196.558 69.5228C196.538 68.5977 196.41 67.6779 196.176 66.7823L197.449 65.8577L196.377 63.3502L194.843 63.6311C194.361 62.8428 193.787 62.1136 193.135 61.4581L193.775 60.0191L191.591 58.3883L190.405 59.3978C189.599 58.9524 188.743 58.6037 187.854 58.36L187.691 56.7971L184.989 56.4744L184.466 57.9423C183.54 57.9635 182.62 58.0927 181.723 58.3287L180.8 57.0585L178.293 58.1287L178.573 59.6627C177.783 60.143 177.052 60.7135 176.394 61.3625L174.957 60.7224L173.326 62.9071L174.334 64.0924C173.888 64.9043 173.539 65.7657 173.294 66.6584L171.739 66.8118ZM178.011 68.9765C178.453 65.2701 181.817 62.6239 185.524 63.067C189.23 63.5095 191.876 66.8731 191.433 70.5801C190.99 74.2865 187.627 76.9326 183.921 76.4895C180.214 76.0464 177.568 72.6828 178.011 68.9765Z" stroke="#263238" stroke-width="1.5711" stroke-miterlimit="10" stroke-linejoin="round"/>
<path d="M101.252 133.304L100.96 135.751L102.29 136.226C102.306 137.064 102.422 137.898 102.636 138.709L101.484 139.546L102.454 141.818L103.847 141.556C104.283 142.272 104.8 142.935 105.389 143.531L104.803 144.835L106.782 146.314L107.853 145.403C108.588 145.807 109.368 146.124 110.177 146.346L110.327 147.76L112.774 148.052L113.248 146.721C114.087 146.705 114.92 146.589 115.731 146.375L116.569 147.522L118.834 146.551L118.58 145.161C119.296 144.726 119.958 144.209 120.555 143.621L121.857 144.203L123.334 142.23L122.42 141.154C122.825 140.42 123.14 139.639 123.361 138.83L124.777 138.681L125.069 136.234L123.74 135.76C123.722 134.921 123.606 134.088 123.393 133.276L124.547 132.439L123.576 130.167L122.186 130.421C121.748 129.707 121.229 129.046 120.639 128.452L121.219 127.148L119.239 125.671L118.165 126.585C117.435 126.182 116.658 125.866 115.854 125.645L115.706 124.228L113.258 123.936L112.783 125.265C111.944 125.284 111.11 125.402 110.298 125.615L109.462 124.464L107.19 125.434L107.444 126.824C106.728 127.259 106.066 127.776 105.469 128.364L104.166 127.784L102.689 129.764L103.602 130.837C103.198 131.573 102.882 132.353 102.66 133.163L101.252 133.304ZM106.935 135.266C107.336 131.908 110.384 129.51 113.742 129.911C117.1 130.312 119.498 133.36 119.097 136.718C118.696 140.077 115.648 142.475 112.289 142.073C108.931 141.672 106.533 138.624 106.935 135.266Z" fill="#263238"/>
<path d="M226.019 193.374V187.822L222.917 187.117C222.657 185.246 222.174 183.412 221.48 181.655L223.834 179.476L221.058 174.653L218.01 175.612C216.845 174.127 215.511 172.783 214.035 171.606L214.997 168.531L210.174 165.752L208.022 168.076C206.27 167.369 204.44 166.87 202.572 166.59L201.86 163.464H196.308L195.603 166.569C193.732 166.83 191.899 167.312 190.142 168.007L187.959 165.664L183.151 168.44L184.092 171.482C182.607 172.647 181.263 173.979 180.086 175.454L177.018 174.502L174.242 179.309L176.572 181.471C175.864 183.222 175.366 185.051 175.088 186.92L171.96 187.632V193.184L175.061 193.889C175.325 195.759 175.808 197.592 176.499 199.35L174.142 201.533L176.921 206.356L179.962 205.415C181.132 206.896 182.47 208.235 183.95 209.406L183.001 212.477L187.824 215.253L189.982 212.92C191.724 213.628 193.544 214.128 195.405 214.407L196.113 217.535H201.668L202.373 214.434C204.245 214.167 206.079 213.682 207.838 212.987L210.017 215.338L214.84 212.562L213.899 209.521C215.384 208.356 216.728 207.023 217.905 205.548L220.973 206.498L223.749 201.675L221.419 199.517C222.127 197.764 222.625 195.934 222.906 194.064L226.019 193.374ZM216.417 190.504C216.417 200.13 208.614 207.933 198.988 207.933C189.363 207.933 181.56 200.13 181.56 190.504C181.56 180.879 189.362 173.075 198.988 173.075C208.613 173.075 216.417 180.879 216.417 190.504Z" fill="white"/>
<path d="M129.553 55.5503H115.251V58.8484H129.553V55.5503Z" fill="#C6FF00"/>
<path d="M124.65 60.3176H115.251V63.6157H124.65V60.3176Z" fill="#C6FF00"/>
<path d="M120.662 65.0847H115.251V68.3828H120.662V65.0847Z" fill="#C6FF00"/>
<path opacity="0.9" d="M129.553 55.5503H115.251V58.8484H129.553V55.5503Z" fill="white"/>
<path opacity="0.9" d="M124.65 60.3176H115.251V63.6157H124.65V60.3176Z" fill="white"/>
<path opacity="0.9" d="M120.662 65.0847H115.251V68.3828H120.662V65.0847Z" fill="white"/>
<path d="M95.268 92.0833H90.4182V102.019H95.268V92.0833Z" fill="#C6FF00"/>
<path d="M102.271 95.4993H97.4214V102.025H102.271V95.4993Z" fill="#C6FF00"/>
<path d="M109.28 98.2664H104.431V102.025H109.28V98.2664Z" fill="#C6FF00"/>
<path opacity="0.9" d="M95.268 92.0833H90.4182V102.019H95.268V92.0833Z" fill="white"/>
<path opacity="0.9" d="M102.271 95.4993H97.4214V102.025H102.271V95.4993Z" fill="white"/>
<path opacity="0.2" d="M109.28 98.2664H104.431V102.025H109.28V98.2664Z" fill="black"/>
<path d="M148.055 109.541H89.3325C85.9483 109.538 83.2059 106.795 83.2024 103.411V54.9309C83.2059 51.5466 85.9483 48.8043 89.3325 48.8008H148.055C151.439 48.8043 154.182 51.5466 154.185 54.9309V103.411C154.182 106.795 151.439 109.538 148.055 109.541ZM89.3325 49.3613C86.2462 49.3678 83.7458 51.8682 83.7393 54.9545V103.435C83.7458 106.521 86.2462 109.021 89.3325 109.028H148.055C151.141 109.021 153.642 106.521 153.648 103.435V54.9309C153.642 51.8446 151.141 49.3442 148.055 49.3377L89.3325 49.3613Z" fill="#263238"/>
<path d="M147.3 92.3545H126.361V92.8914H147.3V92.3545Z" fill="#263238"/>
<path d="M147.3 94.6025H126.361V95.1394H147.3V94.6025Z" fill="#263238"/>
<path d="M147.3 96.8445H126.361V97.3814H147.3V96.8445Z" fill="#263238"/>
<path d="M147.3 99.0864H126.361V99.6233H147.3V99.0864Z" fill="#263238"/>
<path d="M147.3 101.328H126.361V101.865H147.3V101.328Z" fill="#263238"/>
<path d="M110.714 55.7747H89.7749V56.3116H110.714V55.7747Z" fill="#263238"/>
<path d="M110.714 58.0166H89.7749V58.5535H110.714V58.0166Z" fill="#263238"/>
<path d="M110.714 60.2585H89.7749V60.7954H110.714V60.2585Z" fill="#263238"/>
<path d="M110.714 62.5005H89.7749V63.0374H110.714V62.5005Z" fill="#263238"/>
<path d="M110.714 64.7427H89.7749V65.2796H110.714V64.7427Z" fill="#263238"/>
<path d="M143.164 73.8871L146.915 75.8535L146.488 65.2725L137.536 70.9341L141.287 72.9006L138.461 78.2743C137.963 78.2725 137.479 78.4383 137.087 78.7451L132.101 76.4406V76.4128C132.164 75.1508 131.191 74.077 129.929 74.0139C128.667 73.9508 127.593 74.9237 127.53 76.1857C127.525 76.2612 127.525 76.3373 127.53 76.4128C127.531 76.7397 127.601 77.0624 127.735 77.3604L121.237 84.418C121.029 84.3519 120.812 84.3183 120.594 84.3183C120.483 84.3183 120.372 84.3295 120.262 84.3513L110.944 72.5129C111.43 71.3501 110.882 70.0131 109.719 69.527C108.587 69.0532 107.283 69.56 106.768 70.6739C106.64 70.9595 106.573 71.2692 106.573 71.5825C106.579 71.8179 106.618 72.051 106.69 72.2752L96.0149 83.1666C94.8307 82.7347 93.5203 83.3448 93.0885 84.5289C92.6566 85.713 93.2666 87.0234 94.4508 87.4553C95.6349 87.8872 96.9453 87.2771 97.3772 86.093L97.3778 86.0918C97.4704 85.8416 97.5176 85.5773 97.5164 85.3106C97.5158 85.1236 97.4893 84.9372 97.4391 84.7566L108.208 73.7714C108.42 73.8369 108.64 73.8723 108.862 73.8764C109.002 73.8753 109.141 73.8605 109.277 73.8322L118.573 85.6098C117.965 86.7314 118.381 88.1332 119.503 88.7415C120.624 89.3498 122.027 88.9332 122.634 87.8116C122.798 87.5101 122.892 87.1762 122.911 86.834C122.916 86.7585 122.916 86.6824 122.911 86.6069C122.906 86.3673 122.865 86.1301 122.788 85.903L129.436 78.6678C129.562 78.692 129.69 78.705 129.818 78.7068C130.272 78.7079 130.716 78.5728 131.093 78.3191L136.167 80.6791C136.229 81.9382 137.3 82.9087 138.559 82.8474C139.818 82.786 140.788 81.7152 140.727 80.4561C140.706 80.0295 140.566 79.6171 140.322 79.2667L143.164 73.8871Z" fill="#263238"/>
<path d="M148.191 115.8C146.268 115.804 144.711 117.363 144.709 119.286V149.498C144.711 151.421 146.268 152.979 148.191 152.983H184.79C186.713 152.979 188.271 151.421 188.276 149.498V119.271C188.271 117.347 186.713 115.789 184.79 115.785L148.191 115.8Z" stroke="#263238" stroke-miterlimit="10" stroke-linejoin="round"/>
<path d="M150.373 119.915H147.594V120.284H150.373V119.915Z" fill="#263238"/>
<path d="M150.373 122.949H147.594V123.319H150.373V122.949Z" fill="#263238"/>
<path d="M150.373 125.984H147.594V126.354H150.373V125.984Z" fill="#263238"/>
<path d="M150.373 129.019H147.594V129.388H150.373V129.019Z" fill="#263238"/>
<path d="M150.266 122.949H147.488V123.319H150.266V122.949Z" fill="#263238"/>
<path d="M150.373 132.053H147.594V132.423H150.373V132.053Z" fill="#263238"/>
<path d="M168.601 148.469C175.961 148.619 182.048 142.775 182.198 135.415C182.348 128.055 176.503 121.968 169.144 121.818C161.784 121.669 155.697 127.513 155.547 134.873C155.397 142.232 161.242 148.32 168.601 148.469ZM169.064 125.73C174.277 125.836 178.416 130.147 178.31 135.36C178.204 140.572 173.892 144.712 168.68 144.605C163.467 144.499 159.328 140.188 159.434 134.975C159.54 129.763 163.851 125.623 169.064 125.73Z" fill="#C6FF00"/>
<path opacity="0.2" d="M168.601 148.469C175.961 148.619 182.048 142.775 182.198 135.415C182.348 128.055 176.503 121.968 169.144 121.818C161.784 121.669 155.697 127.513 155.547 134.873C155.397 142.232 161.242 148.32 168.601 148.469ZM169.064 125.73C174.277 125.836 178.416 130.147 178.31 135.36C178.204 140.572 173.892 144.712 168.68 144.605C163.467 144.499 159.328 140.188 159.434 134.975C159.54 129.763 163.851 125.623 169.064 125.73Z" fill="black"/>
<path d="M159.295 144.68C164.572 150.002 173.162 150.039 178.485 144.764C178.585 144.659 178.589 144.495 178.492 144.386L175.727 141.621C175.675 141.572 175.606 141.543 175.535 141.54C175.464 141.545 175.397 141.573 175.344 141.619C173.583 143.381 171.177 144.343 168.686 144.28C168.466 144.276 168.248 144.272 168.031 144.267C166.03 144.154 164.121 143.385 162.6 142.079C162.461 141.952 162.321 141.831 162.189 141.699C158.983 138.494 158.547 133.447 161.157 129.74C161.17 129.724 161.18 129.706 161.188 129.687C161.249 129.606 161.315 129.53 161.382 129.45C163.225 127.117 166.09 125.828 169.059 125.994C169.206 125.997 169.327 125.881 169.329 125.734L169.409 121.823C169.412 121.675 169.296 121.552 169.149 121.546C161.655 121.42 155.479 127.393 155.353 134.886C155.292 138.55 156.714 142.082 159.295 144.68Z" fill="#263238"/>
<path d="M169.149 121.547C176.641 121.716 182.578 127.927 182.41 135.419C182.242 142.912 176.031 148.849 168.538 148.681C161.057 148.513 155.125 142.32 155.277 134.838C155.429 127.345 161.627 121.395 169.12 121.547C169.129 121.547 169.139 121.547 169.149 121.547ZM168.607 148.198C175.819 148.345 181.785 142.617 181.932 135.404C182.079 128.191 176.351 122.225 169.138 122.078C161.925 121.931 155.959 127.66 155.813 134.872C155.672 142.083 161.397 148.045 168.607 148.198ZM169.069 125.458C174.419 125.567 178.667 129.992 178.558 135.342C178.45 140.691 174.025 144.939 168.676 144.83C163.326 144.722 159.078 140.297 159.187 134.947C159.295 129.598 163.72 125.349 169.069 125.458ZM168.686 144.287C173.739 144.39 177.919 140.377 178.021 135.324C178.124 130.272 174.111 126.092 169.059 125.989C164.006 125.887 159.826 129.899 159.724 134.952C159.627 140.001 163.638 144.176 168.687 144.281L168.686 144.287Z" fill="#263238"/>
<path d="M100.105 164.099V199.886" stroke="#263238" stroke-width="0.8792" stroke-miterlimit="10" stroke-linecap="round" stroke-linejoin="round"/>
<path d="M105.859 177.602H102.818V198.091H105.859V177.602Z" fill="#263238"/>
<path d="M110.203 185.965H107.162V198.091H110.203V185.965Z" fill="#C6FF00"/>
<path d="M115.308 170.976H112.267V198.09H115.308V170.976Z" fill="white" stroke="#263238" stroke-width="0.8792" stroke-miterlimit="10" stroke-linejoin="round"/>
<path d="M123.78 167.066H120.739V198.09H123.78V167.066Z" fill="#263238"/>
<path d="M128.124 190.417H125.083V198.09H128.124V190.417Z" fill="#C6FF00"/>
<path d="M133.23 179.774H130.188V198.091H133.23V179.774Z" fill="white" stroke="#263238" stroke-width="0.8792" stroke-miterlimit="10" stroke-linejoin="round"/>
<path d="M145.612 182.578H142.57V198.09H145.612V182.578Z" fill="#263238"/>
<path d="M149.956 170.542H146.914V198.09H149.956V170.542Z" fill="#C6FF00"/>
<path d="M155.06 176.624H152.019V198.091H155.06V176.624Z" fill="white" stroke="#263238" stroke-width="0.8792" stroke-miterlimit="10" stroke-linejoin="round"/>
<path d="M96.8445 193.35H98.5407" stroke="#263238" stroke-width="0.8792" stroke-miterlimit="10" stroke-linecap="round" stroke-linejoin="round"/>
<path d="M96.8445 188.932H98.5407" stroke="#263238" stroke-width="0.8792" stroke-miterlimit="10" stroke-linecap="round" stroke-linejoin="round"/>
<path d="M96.8445 184.515H98.5407" stroke="#263238" stroke-width="0.8792" stroke-miterlimit="10" stroke-linecap="round" stroke-linejoin="round"/>
<path d="M96.8445 180.096H98.5407" stroke="#263238" stroke-width="0.8792" stroke-miterlimit="10" stroke-linecap="round" stroke-linejoin="round"/>
<path d="M96.8445 175.678H98.5407" stroke="#263238" stroke-width="0.8792" stroke-miterlimit="10" stroke-linecap="round" stroke-linejoin="round"/>
<path d="M96.8445 171.26H98.5407" stroke="#263238" stroke-width="0.8792" stroke-miterlimit="10" stroke-linecap="round" stroke-linejoin="round"/>
<path d="M96.8445 166.842H98.5407" stroke="#263238" stroke-width="0.8792" stroke-miterlimit="10" stroke-linecap="round" stroke-linejoin="round"/>
<path d="M98.0923 198.091H157.185" stroke="#263238" stroke-width="0.8792" stroke-miterlimit="10" stroke-linecap="round" stroke-linejoin="round"/>
<path opacity="0.3" d="M110.203 185.965H107.162V198.091H110.203V185.965Z" fill="black"/>
<path opacity="0.3" d="M128.124 190.417H125.083V198.09H128.124V190.417Z" fill="black"/>
<path opacity="0.3" d="M149.956 170.542H146.914V198.09H149.956V170.542Z" fill="black"/>
<path d="M94.4302 159.127C92.3086 159.131 90.5905 160.851 90.5881 162.973V198.079C90.5905 200.201 92.3086 201.921 94.4302 201.925H159.595C161.717 201.921 163.437 200.201 163.441 198.079V162.957C163.437 160.835 161.717 159.116 159.595 159.111L94.4302 159.127Z" stroke="#263238" stroke-miterlimit="10" stroke-linejoin="round"/>
<path d="M42.8617 237.618C42.8617 237.618 44.2263 246.713 40.927 247.648C37.6278 248.582 35.3397 247.349 34.9267 245.987C34.5137 244.625 37.4331 234.894 37.4331 234.894L42.8617 237.618Z" fill="white"/>
<path d="M100.23 239.629L114.567 243.026C114.567 243.026 115.652 243.649 115.531 244.591C115.41 245.532 108.872 248.061 107.039 248.374C105.206 248.687 94.6129 250.063 93.1072 248.771C91.6016 247.478 94.7805 237.164 94.7805 237.164L100.23 239.629Z" fill="white"/>
<path d="M74.2704 73.7023C74.2704 73.7023 76.2858 76.7491 76.3141 78.2896C76.3424 79.8301 76.1578 81.5824 77.0977 82.4933C78.0375 83.4037 78.7679 84.3931 78.3803 84.8445C77.9921 85.2958 77.2404 86.1979 77.2404 86.1979C77.2404 86.1979 78.2151 91.3876 76.9555 92.3251C75.6958 93.2626 71.8974 92.3251 71.8974 92.3251V95.6733C71.8974 95.6733 66.503 93.9104 62.7807 94.2337L62.1211 87.0546C62.1211 87.0546 70.2177 71.5128 74.2704 73.7023Z" fill="white"/>
<path d="M107.441 94.9162C107.441 94.9162 106.958 91.2382 108.752 89.0186C108.752 89.0186 106.599 88.6539 106.859 87.874C107.119 87.094 110.393 88.1171 110.393 88.1171L109.502 86.317C109.502 86.317 106.408 85.2904 106.793 84.3316C107.178 83.3729 111.72 85.7358 111.72 85.7358C111.72 85.7358 109.021 83.4796 109.4 82.5398C109.778 81.5999 112.519 81.6206 113.984 86.4845L114.726 85.5582C114.726 85.5582 114.99 80.024 115.752 79.719C115.752 79.719 116.917 80.3709 116.927 83.5499C116.927 83.5499 118.086 84.9712 117.359 86.176C116.631 87.3807 114.842 90.0882 113.344 91.1019C111.846 92.1161 111.855 96.0744 111.855 96.0744L107.441 94.9162Z" fill="white"/>
<path d="M59.9538 64.66L60.6371 63.7479C60.6371 63.7479 68.2298 60.3631 68.038 59.3058C67.8463 58.2485 63.5481 59.7105 62.7516 59.1459C62.7516 59.1459 63.5393 49.1543 62.7681 48.8268C61.997 48.4994 61.1144 53.5167 61.1144 53.5167C61.1144 53.5167 60.0117 48.3755 59.1585 48.5206C58.3054 48.6657 58.6641 53.8501 58.6641 53.8501C58.6641 53.8501 57.0422 50.5419 56.4085 50.8481C55.7749 51.1544 56.7254 55.1917 56.7254 55.1917C56.7254 55.1917 55.5678 53.804 55.0698 54.2218C55.0698 54.2218 55.248 57.5576 56.7147 60.1642L55.0698 62.9367L59.9538 64.66Z" fill="white"/>
<path d="M106.618 94.9404L111.854 95.6738C111.854 95.6738 108.021 128.107 106.898 132.133C105.774 136.158 104.752 139.016 100.906 139.206C97.0607 139.396 83.3568 127.88 83.3568 127.88L82.7208 143.789L83.6105 150.397C83.6105 150.397 66.8492 159.205 49.8041 151.541L50.1852 143.789L44.0427 108.352L39.2124 91.5131L54.8043 61.9712L60.4571 64.923L50.4844 91.8334L53.2751 100.821L56.3962 99.5678L59.8506 95.1675C59.8506 95.1675 65.6999 92.1261 73.1061 96.3664L74.2708 100.06C74.2708 100.06 82.9532 100.712 97.6147 121.037L106.618 94.9404Z" fill="#C6FF00"/>
<path opacity="0.2" d="M69.2063 94.9404L69.8671 99.4881C69.8671 99.4881 74.7417 102.718 76.6775 103.808C76.6775 103.808 81.4653 134.064 77.9194 140.016L74.1883 145.866C74.1883 145.866 78.0056 145.866 79.762 143.194C79.762 143.194 77.5743 150.495 71.8973 152.464C71.8973 152.464 80.6116 151.553 83.6106 150.397L82.7208 143.788L84.1486 106.943C84.1486 106.943 85.5021 104.477 74.2703 100.061L72.613 96.0744L69.2063 94.9404Z" fill="black"/>
<path d="M74.2702 74.1177C74.2702 74.1177 76.1004 76.7939 76.314 78.2896C76.5275 79.7858 75.8862 81.4242 77.0975 82.4933C78.3087 83.5618 78.8787 84.2745 78.3801 84.8445C77.8816 85.4144 77.2403 86.1979 77.2403 86.1979C77.2403 86.1979 77.7388 91.2566 76.9553 92.3251C76.1718 93.3936 71.8972 92.3251 71.8972 92.3251V95.6733" stroke="#263238" stroke-miterlimit="10" stroke-linecap="round" stroke-linejoin="round"/>
<path d="M71.8972 85.9844C71.8972 85.9844 70.1874 81.567 68.9048 82.6361C67.6221 83.7046 68.762 89.5468 71.8972 88.2647" stroke="#263238" stroke-miterlimit="10" stroke-linecap="round" stroke-linejoin="round"/>
<path d="M71.4329 84.9348C71.4329 84.9348 73.4643 84.7731 72.1822 79.9994C70.8995 75.2258 73.6784 75.8671 76.6703 74.5136C79.6628 73.1602 80.3749 70.6662 79.7336 69.17C79.0923 67.6738 78.0238 66.8902 74.2478 67.6024C74.2478 67.6024 70.1154 62.8293 66.1259 68.1009C66.1259 68.1009 57.149 67.9581 54.7265 72.2333C52.3039 76.5078 55.51 87.4087 60.2123 91.0419C64.9146 94.6757 69.5107 91.767 70.4712 88.3509C70.4712 88.3509 67.2651 86.6251 68.9042 82.6356C68.9042 82.6356 70.3992 82.104 71.4329 84.9348Z" fill="#263238"/>
<path d="M43.5767 105.661C43.5767 105.661 65.3093 89.9012 84.2459 105.661L82.7208 143.788L83.6105 150.397C83.6105 150.397 67.5973 157.895 49.8041 151.541L50.1852 143.788L43.5767 105.661Z" stroke="#263238" stroke-miterlimit="10" stroke-linecap="round" stroke-linejoin="round"/>
<path d="M56.106 99.9372L59.8501 95.1682C59.8501 95.1682 67.1826 92.63 73.1056 96.3671L74.2703 100.061" stroke="#263238" stroke-miterlimit="10" stroke-linecap="round" stroke-linejoin="round"/>
<path d="M84.2461 105.661L103.167 127.425" stroke="#263238" stroke-miterlimit="10" stroke-linecap="round" stroke-linejoin="round"/>
<path d="M83.3752 127.425C83.3752 127.425 95.9092 139.087 100.907 139.205C105.904 139.324 106.737 133.315 106.737 133.315L111.853 95.6738L106.618 94.9404L97.6143 121.038" stroke="#263238" stroke-miterlimit="10" stroke-linecap="round" stroke-linejoin="round"/>
<path d="M111.764 95.5523C111.764 95.5523 112.419 91.2996 114.152 90.332C115.885 89.3644 117.883 85.5896 117.231 84.5305C116.579 83.4715 114.601 86.9578 112.816 87.6322C111.03 88.3065 109.572 91.6111 109.328 93.0436" stroke="#263238" stroke-miterlimit="10" stroke-linecap="round" stroke-linejoin="round"/>
<path d="M116.653 84.406C116.653 84.406 116.636 79.4907 115.751 79.7197C114.866 79.9486 114.724 86.176 114.724 86.176" stroke="#263238" stroke-miterlimit="10" stroke-linecap="round" stroke-linejoin="round"/>
<path d="M114.062 86.8056C114.062 86.8056 113.497 84.0509 111.851 82.7087C110.204 81.3664 109.213 82.0898 109.4 82.5399C109.586 82.9901 112.364 86.6552 112.284 87.9196" stroke="#263238" stroke-miterlimit="10" stroke-linecap="round" stroke-linejoin="round"/>
<path d="M111.259 85.4463C111.259 85.4463 106.803 83.4055 106.792 84.6226C106.781 85.8398 109.502 86.3165 109.502 86.3165L110.392 88.1166C110.392 88.1166 106.635 86.9166 106.858 87.8735C107.083 88.8305 108.751 89.0181 108.751 89.0181C108.751 89.0181 106.925 90.8235 107.44 94.9158" stroke="#263238" stroke-miterlimit="10" stroke-linecap="round" stroke-linejoin="round"/>
<path d="M81.0288 150.84L82.1681 158.816C82.1681 158.816 92.6512 190.266 94.2466 196.419C95.8419 202.573 96.7535 216.475 97.2089 222.856C97.665 229.237 101.311 239.948 101.311 239.948C101.311 239.948 100.856 244.278 93.1067 243.594C93.1067 243.594 89.916 230.832 86.4975 223.311C83.079 215.79 82.623 204.396 82.623 204.396L65.9861 173.857C65.9861 173.857 62.5812 191.638 60.2885 198.243C57.9267 205.046 41.841 242.826 42.9685 240.176C42.9685 240.176 40.6893 241.544 35.9038 238.125C35.9038 238.125 39.3223 226.73 40.2338 220.576C41.1454 214.423 45.9314 200.293 45.9314 200.293C45.9314 200.293 47.0707 173.629 48.8938 165.425C48.8938 165.425 47.7268 156.384 50.2337 150.003C50.2349 150.003 64.392 155.398 81.0288 150.84Z" fill="#263238"/>
<path d="M56.8477 168.499L64.3159 170.667L65.3997 173.317" stroke="white" stroke-miterlimit="10" stroke-linecap="round" stroke-linejoin="round"/>
<path d="M93.2883 242.678C93.2883 242.678 92.28 247.735 93.1072 248.771C93.5414 249.315 94.8435 249.214 95.4412 249.227C96.8832 249.259 98.3298 249.162 99.7683 249.067C102.649 248.878 105.6 248.906 108.378 248.017C110.615 247.3 113.065 246.314 115.029 245.004C116.158 244.251 115.029 243.026 115.029 243.026L101.311 239.948" stroke="#263238" stroke-miterlimit="10" stroke-linecap="round" stroke-linejoin="round"/>
<path d="M93.2058 246.992C93.2058 246.992 108.625 249.525 115.029 243.027" stroke="#263238" stroke-miterlimit="10" stroke-linecap="round" stroke-linejoin="round"/>
<path d="M36.4601 237.618C36.4601 237.618 34.6901 243.687 34.9532 245.598C35.2163 247.509 37.1279 247.97 39.3688 247.904C41.6096 247.838 42.5323 246.85 42.8616 245.334C43.1908 243.818 42.8616 238.916 42.8616 238.916" stroke="#263238" stroke-miterlimit="10" stroke-linecap="round" stroke-linejoin="round"/>
<path d="M34.9272 244.675L42.8616 245.334" stroke="#263238" stroke-miterlimit="10" stroke-linecap="round" stroke-linejoin="round"/>
<path d="M55.6439 62.1394C56.3141 60.9117 56.713 60.1635 56.713 60.1635C56.713 60.1635 54.5241 54.8943 55.0681 54.2211C55.612 53.5485 56.8876 55.4146 56.8876 55.4146C56.8876 55.4146 55.5914 51.2038 56.4068 50.8474C57.2222 50.4911 58.6936 54.3928 58.6936 54.3928C58.6936 54.3928 58.3083 48.7547 59.1574 48.5199C60.0064 48.2851 61.0318 53.8765 61.0318 53.8765C61.0318 53.8765 62.1274 48.8727 62.7676 48.8261C63.4077 48.7795 62.751 59.1452 62.751 59.1452C64.111 59.8131 68.1 58.187 68.0717 59.5004C68.0433 60.8137 60.3958 63.8445 60.3958 63.8445C60.2288 64.0941 60.2382 64.0475 60.0506 64.3986" stroke="#263238" stroke-miterlimit="10" stroke-linecap="round" stroke-linejoin="round"/>
<path d="M43.5768 105.661L39.2131 91.5126L54.8051 61.9707L60.4573 64.9225L50.4845 91.8335L53.2752 100.821" stroke="#263238" stroke-miterlimit="10" stroke-linecap="round" stroke-linejoin="round"/>
<path d="M44.0817 89.2806C44.0817 89.2806 49.6761 89.2316 50.4844 91.8335C50.4844 91.8335 47.0069 91.4406 43.5767 93.7439" stroke="#263238" stroke-miterlimit="10" stroke-linecap="round" stroke-linejoin="round"/>
<path d="M62.5618 94.5505V90.4524" stroke="#263238" stroke-miterlimit="10" stroke-linecap="round" stroke-linejoin="round"/>
<path opacity="0.2" d="M84.1486 117.074L85.5758 126.376C85.5758 126.376 86.7199 120.309 87.4343 120.309C88.1494 120.309 87.4343 127.425 87.4343 127.425C87.4343 127.425 99.1606 138.019 104.235 138.1C104.235 138.1 101.416 140.086 98.5865 138.608C95.7563 137.13 83.3757 127.425 83.3757 127.425L84.1486 117.074Z" fill="black"/>
<path opacity="0.2" d="M59.4541 64.3987L48.7279 90.4525C48.7279 90.4525 44.9933 90.3941 43.5767 93.7441L49.3126 92.7199L51.2419 101.592L53.2745 100.822L50.4838 91.8343L60.4571 64.9238L59.4541 64.3987Z" fill="black"/>
<path d="M207.274 110.215L203.052 101.198L186.444 112.163L200.148 136.435L210.83 130.373L207.274 110.215Z" fill="white"/>
<path d="M220.957 188.247C220.957 188.247 223.637 195.696 224.034 199.324C224.43 202.952 223.222 218.237 223.48 222.448C223.737 226.657 226.019 239.233 226.019 239.233C226.019 239.233 214.846 247.355 211.301 244.741C211.301 244.741 219.173 238.363 219.972 235.832L217.42 218.609L214.892 198.25C214.892 198.25 214.245 194 213.352 191.807C212.46 189.613 212.588 184.974 212.588 184.974L220.957 188.247Z" fill="white"/>
<path d="M220.719 187.583C220.719 187.583 223.619 195.432 224.302 201.063C224.985 206.694 222.937 219.491 223.619 225.634C224.302 231.777 224.985 235.189 226.179 238.431L225.581 247.938H224.051L223.448 242.544C223.448 242.544 221.055 241.545 219.602 244.996C218.149 248.447 212.791 248.9 210.248 246.903C210.248 246.903 210.248 245.359 212.155 243.997C214.062 242.635 219.062 238.374 219.971 235.831C219.971 235.831 217.24 218.116 216.605 212.396C215.97 206.675 214.971 196.232 213.699 192.872C212.428 189.512 212.428 184.699 212.428 184.699" stroke="#263238" stroke-miterlimit="10" stroke-linecap="round" stroke-linejoin="round"/>
<path d="M225.581 236.648C225.581 236.648 218.094 244.789 211.789 244.741" stroke="#263238" stroke-miterlimit="10" stroke-linecap="round" stroke-linejoin="round"/>
<path d="M211.301 244.741C211.301 244.741 212.684 244.966 214.373 244.354C216.063 243.743 222.157 240.818 225.156 237.092L226.074 238.138L225.595 247.717L224.052 247.939L223.449 242.544C223.449 242.544 221.479 241.642 220.212 243.86C218.945 246.079 218.027 247.599 215.811 248.089C213.594 248.579 210.249 246.903 210.249 246.903C210.249 246.903 209.675 246.039 211.301 244.741Z" fill="#263238"/>
<path d="M226.179 188.497C226.179 188.497 227.403 193.042 228.739 196.115C230.075 199.188 241.644 230.277 241.644 230.277C241.644 230.277 242.524 247.106 247.452 247.051C252.381 246.996 247.257 235.293 247.257 235.293L244.266 228.876C244.266 228.876 243.12 210.042 241.706 203.111L235.673 186.869L226.179 188.497Z" fill="white"/>
<path d="M235.735 187.413C235.735 187.413 240.683 198.675 241.707 203.111C242.73 207.547 243.754 227.511 244.266 228.876C244.778 230.242 252.968 244.745 248.02 247.646C243.071 250.547 241.877 230.924 241.877 230.924C241.877 230.924 230.445 199.187 228.738 196.115C227.032 193.044 225.155 184.171 225.155 184.171L235.735 187.413Z" stroke="#263238" stroke-miterlimit="10" stroke-linecap="round" stroke-linejoin="round"/>
<path d="M248.99 240.206C248.99 240.206 248.647 244.136 247.349 244.692C246.051 245.249 243.187 240.816 243.187 240.816" stroke="#263238" stroke-miterlimit="10" stroke-linecap="round" stroke-linejoin="round"/>
<path d="M243.187 241.494C243.187 241.494 244.977 248.197 247.32 247.913C249.662 247.628 250.105 243.903 248.99 241.031C248.99 241.031 248.596 243.978 247.349 244.692C246.088 244.708 243.187 241.494 243.187 241.494Z" fill="#263238"/>
<path d="M222.292 128.828C222.292 128.828 228.261 136.971 232.394 150.092C236.528 163.212 236.109 188.274 236.109 188.274C236.109 188.274 220.712 193.228 205.794 186.937L208.525 130.382C208.525 130.382 218.121 130.569 222.292 128.828Z" fill="#263238"/>
<path d="M214.589 69.7798C214.589 69.7798 209.952 74.124 209.409 76.9654C208.866 79.8068 207.273 82.6677 207.273 82.6677C207.273 82.6677 208.141 84.0059 209.358 84.2967C209.358 84.2967 209.659 90.1236 211.35 90.572L215.395 89.5106L215.831 92.0021L221.632 89.7967V86.4337L226.056 83.5409L224.486 75.9872L217.288 72.6218L214.589 69.7798Z" fill="white"/>
<path d="M208.497 129.938L207.98 121.769C207.98 121.769 204.205 114.668 205.401 112.118C206.726 109.293 214.664 98.8239 214.664 98.8239L213.886 93.1162L225.015 88.3467L225.545 93.1162L224.203 94.1074L225.697 97.3076C225.697 97.3076 225.792 96.3601 228.378 101.178C230.964 105.996 240.698 123.153 241.461 126.443C242.225 129.733 226.325 141.333 220.957 144.07C220.957 144.07 220.337 142.741 213.96 147.636C212.338 147.353 210.094 145.894 209.615 144.99C209.136 144.088 211.45 141.943 211.45 141.943C211.45 141.943 212.844 139.31 215.302 141.415H217.925L232.906 127.455L225.307 116.337L222.292 128.827C222.292 128.828 212.54 131.772 208.497 129.938Z" fill="white"/>
<path d="M213.886 93.1167L214.681 98.9465L225.545 93.1167L225.015 88.3472L213.886 93.1167Z" stroke="#263238" stroke-miterlimit="10" stroke-linecap="round" stroke-linejoin="round"/>
<path d="M214.681 98.9465C214.681 98.9465 204.8 111.038 205.065 113.423C205.33 115.808 207.98 121.77 207.98 121.77L208.524 130.382C208.524 130.382 216.518 130.604 222.292 128.828L225.306 116.338" stroke="#263238" stroke-miterlimit="10" stroke-linecap="round" stroke-linejoin="round"/>
<path d="M232.906 127.457L217.596 104.379C217.596 104.379 216.095 99.0876 219.716 97.1736C223.337 95.2597 226.489 97.6792 227.615 98.946C228.741 100.213 240.899 123.629 241.462 126.443C242.025 129.257 229.191 140.514 221.761 143.554C221.761 143.554 218.384 145.58 218.384 141.415L232.906 127.457Z" stroke="#263238" stroke-miterlimit="10" stroke-linecap="round" stroke-linejoin="round"/>
<path d="M225.545 97.3081L224.11 93.8867" stroke="#263238" stroke-miterlimit="10" stroke-linecap="round" stroke-linejoin="round"/>
<path d="M218.384 141.416H215.303C215.303 141.416 212.904 139.27 211.76 141.416C210.617 143.562 209.187 143.99 209.616 144.991C210.045 145.992 212.516 147.994 213.961 147.637C215.407 147.279 219.472 143.93 219.472 143.93" stroke="#263238" stroke-miterlimit="10" stroke-linecap="round" stroke-linejoin="round"/>
<path d="M213.48 71.3049C213.48 71.3049 209.862 74.4715 209.462 76.219C209.061 77.9666 209.232 80.9196 207.273 82.6677C207.273 82.6677 207.372 84.0855 209.358 84.2967C209.358 84.2967 210.37 89.8887 211.35 90.572C212.33 91.2552 218.325 88.1654 220.671 86.8886C221.209 86.596 221.609 85.9682 221.906 85.1741" stroke="#263238" stroke-miterlimit="10" stroke-linecap="round" stroke-linejoin="round"/>
<path d="M210.671 86.003C210.671 86.003 212.371 85.7959 213.479 84.3445" stroke="#263238" stroke-miterlimit="10" stroke-linecap="round" stroke-linejoin="round"/>
<path d="M210.671 77.923C210.671 77.923 212.101 77.0911 212.884 78.4717" stroke="#263238" stroke-miterlimit="10" stroke-linecap="round" stroke-linejoin="round"/>
<path d="M211.653 80.8884C211.677 81.3639 211.518 81.7586 211.297 81.7698C211.077 81.781 210.878 81.4046 210.854 80.9291C210.83 80.4535 210.989 80.0588 211.21 80.0476C211.43 80.0364 211.629 80.4128 211.653 80.8884Z" fill="#263238"/>
<path d="M215.396 89.5107L215.876 92.2637" stroke="#263238" stroke-miterlimit="10" stroke-linecap="round" stroke-linejoin="round"/>
<path d="M220.032 80.5249C220.032 80.5249 220.92 78.8092 221.905 79.8098C222.891 80.8111 224.761 85.4479 219.715 84.3446C219.715 84.3446 219.38 87.1795 221.905 87.8887C224.431 88.5973 229.226 84.6862 229.383 78.0298C229.54 71.3734 223.117 66.8694 219.715 68.1568C219.715 68.1568 214.791 60.4354 209.904 63.7241C205.018 67.0128 208.313 72.0885 207.273 73.2325C206.233 74.3765 204.017 73.3039 203.945 76.3784C203.874 79.4529 209.011 79.1367 209.011 79.1367L209.631 75.753L213.886 71.305C213.886 71.305 212.882 74.5193 214.589 77.3077C216.128 79.8199 220.032 80.5249 220.032 80.5249Z" fill="#263238"/>
<path d="M229.383 78.0299C229.383 78.0299 231.751 78.5586 231.486 81.7493C231.22 84.94 225.902 92.7917 226.301 97.3082L240.056 122.936C240.056 122.936 246.243 121.767 245.977 115.386C245.711 109.004 238.133 103.646 239.596 98.9466C241.059 94.2473 246.775 82.2927 238.666 75.4398C230.555 68.5876 217.925 79.0902 217.925 79.0902L224.111 77.096L229.383 78.0299Z" fill="#263238"/>
<path d="M206.742 109.691L203.052 101.198L186.444 112.163L200.148 136.435L208.453 131.864" stroke="#263238" stroke-miterlimit="10" stroke-linecap="round" stroke-linejoin="round"/>
<path d="M191.616 124.17C191.616 124.17 190.718 122.316 191.915 121.298C193.111 120.28 197.194 117.252 197.249 117.991C197.265 118.21 197.312 118.542 196.966 119.014C195.805 120.596 192.963 123.169 193.144 123.352C193.144 123.352 198.296 119.93 198.795 120.255C198.919 120.336 198.847 120.777 198.416 121.21C197.125 122.506 193.952 124.702 193.952 124.702C193.952 124.702 199.392 122.599 200.09 122.935C200.295 123.034 200.251 123.337 199.619 123.722C198.097 124.651 194.751 126.036 194.751 126.036L196.113 128.31C196.114 128.311 193.51 128.757 191.616 124.17Z" fill="white" stroke="#263238" stroke-miterlimit="10" stroke-linecap="round" stroke-linejoin="round"/>
<path d="M221.257 86.0032L221.631 89.7975" stroke="#263238" stroke-miterlimit="10" stroke-linejoin="round"/>
</svg>
