<svg width="288" height="288" viewBox="0 0 288 288" fill="none" xmlns="http://www.w3.org/2000/svg">
<path d="M194.011 215.908C194.011 215.908 221.659 214.18 240.667 180.196C259.675 146.212 256.219 94.3718 232.603 65.5718C208.987 36.7718 172.123 26.9798 136.987 36.1958C119.867 40.6863 108.452 52.333 98.5859 66.3712C89.9919 78.6003 80.3284 90.3899 67.32 98.1296C54.4395 105.793 41.1996 111.905 34.6954 126.47C18.8663 161.915 30.4341 203.156 67.8672 217.06C108.187 232.036 175.579 223.972 194.011 215.908Z" fill="#C6FF00"/>
<path opacity="0.7" d="M194.011 215.908C194.011 215.908 221.659 214.18 240.667 180.196C259.675 146.212 256.219 94.3718 232.603 65.5718C208.987 36.7718 172.123 26.9798 136.987 36.1958C119.867 40.6863 108.452 52.333 98.5859 66.3712C89.9919 78.6003 80.3284 90.3899 67.32 98.1296C54.4395 105.793 41.1996 111.905 34.6954 126.47C18.8663 161.915 30.4341 203.156 67.8672 217.06C108.187 232.036 175.579 223.972 194.011 215.908Z" fill="white"/>
<path d="M152.014 253.014C210.201 253.014 257.372 249.146 257.372 244.374C257.372 239.602 210.201 235.734 152.014 235.734C93.8263 235.734 46.656 239.602 46.656 244.374C46.656 249.146 93.8263 253.014 152.014 253.014Z" fill="#C6FF00"/>
<path opacity="0.5" d="M152.014 253.014C210.201 253.014 257.372 249.146 257.372 244.374C257.372 239.602 210.201 235.734 152.014 235.734C93.8263 235.734 46.656 239.602 46.656 244.374C46.656 249.146 93.8263 253.014 152.014 253.014Z" fill="white"/>
<path d="M251.993 168.55L252.01 168.526C252.01 168.526 252 168.525 251.982 168.523C251.974 168.507 251.97 168.497 251.97 168.497L251.953 168.52C251.253 168.45 244.016 167.829 237.412 171.261C239.972 167.959 241.693 163.684 241.151 158.268C239.557 142.33 224.515 133.203 223.356 132.523V132.48C223.356 132.48 223.342 132.488 223.319 132.501C223.297 132.488 223.282 132.48 223.282 132.48V132.523C222.124 133.203 207.082 142.33 205.488 158.268C205.14 161.746 205.727 164.752 206.867 167.333C198.398 162.27 188.517 163.122 187.607 163.214L187.586 163.185C187.586 163.185 187.58 163.197 187.572 163.217C187.55 163.219 187.536 163.221 187.536 163.221L187.557 163.25C187.111 164.282 181.457 177.871 188.25 189.423C194.323 199.752 207.062 197.022 210.519 196.051C213.428 199.105 218.726 206.053 221.068 217.915H217.765L219.356 240.376H226.781L228.371 217.915H224.486C226.774 207.929 230.586 200.442 233.969 195.325C237.434 196.186 246.81 197.645 251.43 189.786C256.943 180.414 252.355 169.387 251.993 168.55ZM223.094 168.462L215.248 157.565C215.179 157.469 215.201 157.336 215.296 157.267C215.392 157.199 215.525 157.22 215.594 157.315L223.106 167.749V156.711L223.093 156.728L215.247 145.831C215.179 145.735 215.2 145.602 215.296 145.533C215.391 145.465 215.525 145.486 215.593 145.582L223.106 156.015V139.946C223.106 139.828 223.201 139.733 223.319 139.733C223.437 139.733 223.532 139.829 223.532 139.946V155.48L231.679 145.147C231.752 145.055 231.886 145.039 231.978 145.112C232.071 145.185 232.087 145.32 232.013 145.412L223.531 156.17V167.214L231.678 156.881C231.751 156.789 231.886 156.773 231.978 156.846C232.071 156.919 232.086 157.053 232.013 157.145L223.534 167.904V177.242L231.681 166.909C231.754 166.816 231.888 166.801 231.98 166.874C232.073 166.947 232.088 167.08 232.015 167.173L223.533 177.931V178.134H222.838L215.247 167.592C215.179 167.496 215.2 167.363 215.296 167.294C215.391 167.225 215.525 167.247 215.593 167.342L223.106 177.776V168.444L223.094 168.462ZM210.629 195.063L209.856 194.005L198.817 190.927C198.722 190.9 198.667 190.802 198.693 190.707C198.72 190.612 198.817 190.556 198.913 190.583L209.517 193.539L204.907 187.233L193.867 184.155C193.772 184.128 193.717 184.03 193.743 183.935C193.77 183.84 193.868 183.784 193.963 183.811L204.567 186.767L199.115 179.308L188.075 176.23C187.98 176.204 187.925 176.105 187.951 176.01C187.978 175.916 188.076 175.86 188.171 175.886L198.775 178.843L191.106 168.351C191.048 168.271 191.065 168.16 191.145 168.102C191.224 168.043 191.336 168.061 191.394 168.14L199.327 178.993L199.25 168.237C199.249 168.139 199.329 168.059 199.427 168.058C199.525 168.057 199.606 168.136 199.607 168.235L199.687 179.467L199.67 179.463L205.119 186.918L205.042 176.162C205.042 176.064 205.121 175.984 205.22 175.982C205.318 175.982 205.399 176.061 205.399 176.159L205.48 187.392L205.463 187.387L210.07 193.69L209.992 182.934C209.992 182.836 210.071 182.756 210.169 182.754C210.268 182.754 210.348 182.833 210.349 182.931L210.43 194.164L210.412 194.159L211.072 195.062H210.629V195.063ZM211.884 195.063C213.496 192.615 218.141 184.57 215.366 176.832C218.154 178.682 220.811 179.813 222.248 180.354V215.272C219.701 204.573 214.899 198.155 211.974 195.063H211.884ZM223.955 213.122V180.514C225.13 180.095 227.714 179.071 230.535 177.307C226.106 184.408 231.068 192.608 232.376 194.543C229.458 198.987 226.267 205.134 223.955 213.122ZM251.575 179.082L242.617 181.579L238.193 187.632L246.797 185.233C246.874 185.212 246.954 185.257 246.975 185.334C246.996 185.411 246.951 185.49 246.874 185.512L237.917 188.01L234.176 193.127L242.78 190.728C242.857 190.707 242.937 190.752 242.959 190.828C242.98 190.905 242.935 190.985 242.858 191.007L233.9 193.504L233.429 194.148C233.345 194.098 233.259 194.049 233.18 193.998L233.449 193.63L233.435 193.634L233.501 184.52C233.501 184.44 233.566 184.375 233.646 184.376C233.726 184.377 233.791 184.443 233.79 184.522L233.727 193.249L237.465 188.135L237.451 188.139L237.517 179.025C237.518 178.945 237.583 178.881 237.663 178.881C237.742 178.883 237.807 178.948 237.806 179.027L237.744 187.754L242.165 181.705L242.152 181.709L242.217 172.595C242.218 172.515 242.283 172.45 242.363 172.451C242.443 172.452 242.508 172.518 242.507 172.597L242.444 181.324L248.881 172.518C248.928 172.454 249.019 172.439 249.083 172.487C249.148 172.534 249.162 172.624 249.115 172.689L242.892 181.202L251.496 178.802C251.573 178.781 251.653 178.826 251.675 178.903C251.697 178.98 251.652 179.061 251.575 179.082Z" fill="#263238"/>
<path d="M71.7908 130.826V135.935" stroke="#263238" stroke-miterlimit="10" stroke-linecap="round" stroke-linejoin="round"/>
<path d="M74.3454 133.38H69.2363" stroke="#263238" stroke-miterlimit="10" stroke-linecap="round" stroke-linejoin="round"/>
<path d="M232.303 87.0498V92.1589" stroke="#263238" stroke-miterlimit="10" stroke-linecap="round" stroke-linejoin="round"/>
<path d="M234.858 89.6042H229.749" stroke="#263238" stroke-miterlimit="10" stroke-linecap="round" stroke-linejoin="round"/>
<path d="M127.471 155.018V160.127" stroke="#263238" stroke-miterlimit="10" stroke-linecap="round" stroke-linejoin="round"/>
<path d="M130.026 157.573H124.917" stroke="#263238" stroke-miterlimit="10" stroke-linecap="round" stroke-linejoin="round"/>
<path d="M173.551 47.4976V52.6067" stroke="#263238" stroke-miterlimit="10" stroke-linecap="round" stroke-linejoin="round"/>
<path d="M176.106 50.052H170.997" stroke="#263238" stroke-miterlimit="10" stroke-linecap="round" stroke-linejoin="round"/>
<path d="M173.551 184.646V189.755" stroke="#263238" stroke-miterlimit="10" stroke-linecap="round" stroke-linejoin="round"/>
<path d="M176.106 187.2H170.997" stroke="#263238" stroke-miterlimit="10" stroke-linecap="round" stroke-linejoin="round"/>
<path d="M133.084 65.6357V69.1482" stroke="#263238" stroke-miterlimit="10" stroke-linecap="round" stroke-linejoin="round"/>
<path d="M134.841 67.3921H131.328" stroke="#263238" stroke-miterlimit="10" stroke-linecap="round" stroke-linejoin="round"/>
<path d="M69.4453 80.9656V86.0747" stroke="#263238" stroke-miterlimit="10" stroke-linecap="round" stroke-linejoin="round"/>
<path d="M72 83.52H66.8909" stroke="#263238" stroke-miterlimit="10" stroke-linecap="round" stroke-linejoin="round"/>
<path d="M89.4551 188.042V193.151" stroke="#263238" stroke-miterlimit="10" stroke-linecap="round" stroke-linejoin="round"/>
<path d="M92.0098 190.596H86.9006" stroke="#263238" stroke-miterlimit="10" stroke-linecap="round" stroke-linejoin="round"/>
<path d="M229.887 69.6922C230.47 67.4334 229.111 65.1299 226.852 64.5471C224.593 63.9644 222.29 65.3232 221.707 67.582C221.124 69.8408 222.483 72.1443 224.742 72.727C227.001 73.3097 229.304 71.951 229.887 69.6922Z" stroke="#263238" stroke-miterlimit="10" stroke-linecap="round" stroke-linejoin="round"/>
<path d="M178.56 157.248C178.56 159.581 176.669 161.472 174.336 161.472C172.003 161.472 170.112 159.581 170.112 157.248C170.112 154.915 172.003 153.024 174.336 153.024C176.669 153.024 178.56 154.915 178.56 157.248Z" stroke="#263238" stroke-miterlimit="10" stroke-linecap="round" stroke-linejoin="round"/>
<path d="M62.9985 170.093C65.1651 169.228 66.2209 166.771 65.3566 164.605C64.4923 162.438 62.0353 161.382 59.8686 162.247C57.702 163.111 56.6462 165.568 57.5105 167.735C58.3748 169.901 60.8318 170.957 62.9985 170.093Z" stroke="#263238" stroke-miterlimit="10" stroke-linecap="round" stroke-linejoin="round"/>
<path d="M135.36 201.024C136.911 201.024 138.169 199.766 138.169 198.215C138.169 196.663 136.911 195.406 135.36 195.406C133.808 195.406 132.551 196.663 132.551 198.215C132.551 199.766 133.808 201.024 135.36 201.024Z" stroke="#263238" stroke-miterlimit="10" stroke-linecap="round" stroke-linejoin="round"/>
<path d="M181.248 111.834C181.248 112.365 180.819 112.795 180.288 112.795C179.758 112.795 179.328 112.365 179.328 111.834C179.328 111.305 179.758 110.874 180.288 110.874C180.819 110.875 181.248 111.305 181.248 111.834Z" stroke="#263238" stroke-miterlimit="10" stroke-linecap="round" stroke-linejoin="round"/>
<path d="M116.544 98.0105C116.544 98.541 116.114 98.9707 115.584 98.9707C115.053 98.9707 114.624 98.541 114.624 98.0105C114.624 97.4806 115.053 97.0503 115.584 97.0503C116.114 97.0509 116.544 97.4806 116.544 98.0105Z" stroke="#263238" stroke-miterlimit="10" stroke-linecap="round" stroke-linejoin="round"/>
<path d="M147.456 158.4C147.456 158.931 147.026 159.36 146.496 159.36C145.965 159.36 145.536 158.931 145.536 158.4C145.536 157.87 145.965 157.44 146.496 157.44C147.026 157.44 147.456 157.87 147.456 158.4Z" stroke="#263238" stroke-miterlimit="10" stroke-linecap="round" stroke-linejoin="round"/>
<path d="M194.112 203.328C194.112 203.859 193.682 204.288 193.152 204.288C192.621 204.288 192.192 203.859 192.192 203.328C192.192 202.798 192.621 202.368 193.152 202.368C193.682 202.368 194.112 202.798 194.112 203.328Z" stroke="#263238" stroke-miterlimit="10" stroke-linecap="round" stroke-linejoin="round"/>
<path d="M112.426 72.6813C112.426 72.6813 115.492 70.2817 113.359 67.082C111.226 63.8823 100.562 63.4826 92.9624 66.9489C85.3638 70.4153 86.0303 74.9473 86.6967 76.4138C87.3631 77.8803 88.2962 79.7465 88.2962 79.7465V84.2791C88.2962 84.2791 87.8965 86.9454 83.364 90.2781C78.8314 93.6108 75.365 99.0765 76.2987 103.076C77.2319 107.075 80.1649 107.209 77.7652 110.275C75.3656 113.341 67.1006 115.341 66.5672 121.74C66.0338 128.139 67.9001 137.604 81.6313 139.07C95.3626 140.537 100.961 135.738 107.76 127.339C114.559 118.94 116.159 112.542 115.626 105.21C115.092 97.8778 111.493 96.8111 111.627 92.2785C111.76 87.746 118.025 80.4141 116.426 75.8816C114.826 71.3479 112.426 72.6813 112.426 72.6813Z" fill="#263238" stroke="#263238" stroke-miterlimit="10" stroke-linecap="round" stroke-linejoin="round"/>
<path d="M100.428 94.2774C100.428 94.2774 101.495 98.4102 100.695 100.409C99.8946 102.409 97.6286 103.209 92.8294 105.075C88.0302 106.941 87.2301 112.007 89.0969 116.14C90.9632 120.273 97.362 130.538 96.4288 132.804C95.4957 135.07 86.0303 142.402 85.8972 152.934C85.7642 163.465 91.6296 177.596 91.6296 177.596H112.559C112.559 177.596 114.826 134.404 114.826 130.271C114.826 126.138 114.559 125.605 116.159 123.339C116.159 123.339 125.091 133.604 127.49 132.804C129.89 132.004 142.688 106.142 142.688 106.142C142.688 106.142 145.354 104.542 147.221 102.809C149.087 101.076 150.153 100.143 149.62 98.2765C149.087 96.4103 147.487 96.1436 147.487 96.1436C147.487 96.1436 150.954 90.2776 150.42 89.6112C149.887 88.9447 148.821 89.8779 147.754 92.0108C146.687 94.1437 144.688 96.01 142.955 99.4763C141.221 102.943 140.822 104.009 140.822 104.009C140.822 104.009 129.757 118.94 128.424 120.406C127.091 121.873 126.691 122.14 126.691 122.14C126.691 122.14 123.358 118.14 121.091 114.808C118.825 111.475 118.559 110.408 116.559 108.676C114.559 106.942 107.76 103.076 106.827 102.277C105.894 101.477 106.694 96.6775 106.694 96.6775L100.428 94.2774Z" fill="white" stroke="#263238" stroke-miterlimit="10" stroke-linecap="round" stroke-linejoin="round"/>
<path d="M151.353 97.7437C151.353 97.7437 152.42 98.277 151.886 99.6099C151.353 100.943 149.22 101.876 148.82 101.343C148.42 100.81 151.353 97.7437 151.353 97.7437Z" fill="white" stroke="#263238" stroke-miterlimit="10" stroke-linecap="round" stroke-linejoin="round"/>
<path d="M150.287 95.7439C150.287 95.7439 152.419 96.2773 151.353 97.7438C150.287 99.2103 148.287 101.21 147.888 100.81C147.488 100.41 148.554 98.9436 148.688 98.4102C148.82 97.8774 150.287 95.7439 150.287 95.7439Z" fill="white" stroke="#263238" stroke-miterlimit="10" stroke-linecap="round" stroke-linejoin="round"/>
<path d="M148.02 96.9437C148.02 96.9437 146.287 99.61 146.953 100.01C147.62 100.409 149.22 98.6769 150.019 97.0767C150.82 95.4778 149.087 95.0774 148.02 96.9437Z" fill="white" stroke="#263238" stroke-miterlimit="10" stroke-linecap="round" stroke-linejoin="round"/>
<path d="M143.088 102.943C143.088 102.943 144.954 101.876 145.487 100.676C146.021 99.4764 145.487 98.0099 145.487 98.0099C145.487 98.0099 147.887 97.4766 148.42 97.4766C148.954 97.4766 149.62 96.6765 149.487 95.7434C149.354 94.8103 145.621 95.8764 144.288 96.1431C142.955 96.4098 142.955 99.4759 142.955 99.4759L141.622 103.075" fill="white"/>
<path d="M143.088 102.943C143.088 102.943 144.954 101.876 145.487 100.676C146.021 99.4764 145.487 98.0099 145.487 98.0099C145.487 98.0099 147.887 97.4766 148.42 97.4766C148.954 97.4766 149.62 96.6765 149.487 95.7434C149.354 94.8103 145.621 95.8764 144.288 96.1431C142.955 96.4098 142.955 99.4759 142.955 99.4759L141.622 103.075" stroke="#263238" stroke-miterlimit="10" stroke-linecap="round" stroke-linejoin="round"/>
<path d="M114.048 175.68C114.048 175.68 114.543 183.303 112.896 188.352C111.902 191.4 108.399 215.257 108 220.145C107.545 225.722 107.268 233.854 108.157 236.248C108.836 238.075 114.318 245.613 116.581 246.674C117.269 246.997 116.809 248.134 116.054 248.227C114.873 248.374 111.889 248.215 109.658 247.431C107.566 246.695 106.607 243.699 104.522 242.712C102.438 241.726 99.314 241.978 100.472 239.372C101.648 236.724 102.455 234.585 102.455 234.585C102.455 234.585 102.373 230.577 99.5501 208.013C98.8705 202.584 102.816 190.656 102.816 187.776C102.816 184.896 101.088 175.968 101.088 175.968L114.048 175.68Z" fill="white" stroke="#263238" stroke-miterlimit="10" stroke-linecap="round" stroke-linejoin="round"/>
<path d="M103.036 245.426L103.821 245.074L104.762 242.684L103.242 242.322L103.036 245.426Z" fill="#C6FF00" stroke="#263238" stroke-miterlimit="10" stroke-linecap="round" stroke-linejoin="round"/>
<path d="M100.373 240.888L101.608 245.025L103.036 245.426L103.484 242.149L100.373 240.888Z" fill="#C6FF00" stroke="#263238" stroke-miterlimit="10" stroke-linecap="round" stroke-linejoin="round"/>
<path d="M116.58 246.674C116.145 246.242 114.77 245.383 114.225 244.714C113.245 244.924 111.708 245.188 110.634 244.909C108.237 244.287 107.238 241.395 105.245 239.704C103.252 238.011 101.812 236.411 101.812 236.411L101.742 236.382C101.408 237.201 100.974 238.239 100.471 239.372C99.3129 241.978 102.437 241.726 104.521 242.712C106.606 243.698 107.565 246.694 109.657 247.431C111.887 248.215 114.872 248.374 116.053 248.227C116.808 248.133 117.12 247.21 116.58 246.674Z" fill="#C6FF00" stroke="#263238" stroke-miterlimit="10" stroke-linecap="round" stroke-linejoin="round"/>
<path d="M104.822 169.775C104.822 169.775 104.676 184.542 104.128 188.789C103.616 192.75 101.857 202.885 92.7547 218.27C89.7031 223.428 84.8658 233.957 84.8658 236.261C84.9879 237.2 86.1774 241.765 87.6381 243.656C89.8822 246.561 91.476 248.036 90.3816 248.583C89.2872 249.13 85.4021 248.147 82.9397 246.779C80.7872 245.583 79.3593 242.5 77.7177 240.311C76.0761 238.122 77.1624 236.745 78.8904 235.305C80.6184 233.865 81.4087 229.71 81.9847 228.27C82.5607 226.83 86.8835 203.612 88.4681 198.839C90.0613 194.039 93.1706 188.928 93.1706 188.928L90.2906 170.208L104.822 169.775Z" fill="white" stroke="#263238" stroke-miterlimit="10" stroke-linecap="round" stroke-linejoin="round"/>
<path d="M78.3362 245.435L79.4225 245.218L80.2911 242.829L78.8431 241.671L78.3362 245.435Z" fill="#C6FF00" stroke="#263238" stroke-miterlimit="10" stroke-linecap="round" stroke-linejoin="round"/>
<path d="M77.0332 238.123V245.001L78.3361 245.435L78.843 241.671L77.0332 238.123Z" fill="#C6FF00" stroke="#263238" stroke-miterlimit="10" stroke-linecap="round" stroke-linejoin="round"/>
<path d="M87.051 244.533C85.7924 244.92 83.7597 244.629 81.4367 242.403C79.3873 240.439 78.4386 236.634 78.2969 235.802C76.8598 237.021 76.27 238.38 77.718 240.311C79.3596 242.5 80.7875 245.583 82.9401 246.779C85.4025 248.147 89.2876 249.131 90.382 248.584C91.4165 248.066 89.9719 246.628 87.9916 244.109C87.752 244.259 87.4496 244.41 87.051 244.533Z" fill="#C6FF00" stroke="#263238" stroke-miterlimit="10" stroke-linecap="round" stroke-linejoin="round"/>
<path d="M121.091 114.808C118.825 111.475 118.559 110.408 116.559 108.676C115.592 107.838 113.502 106.501 111.496 105.252C110.639 107.391 108.697 110.142 104.294 110.542C99.1015 111.014 97.2537 106.34 96.6167 103.571C95.5799 104.014 94.3282 104.493 92.8295 105.076C88.0302 106.942 87.2302 112.008 89.097 116.141C90.9632 120.273 97.362 130.538 96.4289 132.804C95.4958 135.07 86.0304 142.403 85.8973 152.934C85.7642 163.466 90.9367 182.781 90.9367 182.781L115.2 182.592C115.2 182.592 117.221 171.551 116.933 163.487C116.65 155.561 114.367 142.665 114.338 142.29C114.623 136.253 114.826 131.509 114.826 130.272C114.826 126.139 114.56 125.605 116.159 123.339C116.159 123.339 117.645 125.047 119.567 127.015L124.533 119.458C123.454 118.082 122.157 116.373 121.091 114.808Z" fill="#C6FF00" stroke="#263238" stroke-miterlimit="10" stroke-linecap="round" stroke-linejoin="round"/>
<path d="M116.158 123.34C116.158 123.34 118.692 118.54 117.225 114.941" stroke="#263238" stroke-miterlimit="10" stroke-linecap="round" stroke-linejoin="round"/>
<path d="M105.201 163.316C105.307 164.451 105.379 165.6 105.408 166.752" stroke="#263238" stroke-miterlimit="10" stroke-linecap="round" stroke-linejoin="round"/>
<path d="M100.512 144C100.512 144 103.692 151.751 104.934 160.978" stroke="#263238" stroke-miterlimit="10" stroke-linecap="round" stroke-linejoin="round"/>
<path d="M110.88 160.704C110.88 160.704 109.44 167.04 106.272 172.512" stroke="#263238" stroke-miterlimit="10" stroke-linecap="round" stroke-linejoin="round"/>
<path d="M92.2961 105.209C92.2961 105.209 87.4969 106.009 85.6306 108.142C83.7644 110.275 71.8994 135.337 72.2997 136.804C72.6994 138.27 78.5654 137.604 81.0981 135.071C83.6308 132.538 92.9626 112.808 92.9626 112.808" fill="#C6FF00"/>
<path d="M92.2961 105.209C92.2961 105.209 87.4969 106.009 85.6306 108.142C83.7644 110.275 71.8994 135.337 72.2997 136.804C72.6994 138.27 78.5654 137.604 81.0981 135.071C83.6308 132.538 92.9626 112.808 92.9626 112.808" stroke="#263238" stroke-miterlimit="10" stroke-linecap="round" stroke-linejoin="round"/>
<path d="M87.2945 124.34L78.7754 121.323C75.3793 128.488 72.0852 136.02 72.2995 136.804C72.6992 138.27 78.5652 137.603 81.0979 135.071C82.2562 133.912 84.8355 129.159 87.2945 124.34Z" fill="white" stroke="#263238" stroke-miterlimit="10" stroke-linecap="round" stroke-linejoin="round"/>
<path d="M76.1656 129.738C76.1656 129.738 96.8291 126.139 97.7622 125.872C98.6953 125.605 103.228 120.54 103.628 120.406C104.027 120.273 107.76 119.74 109.36 120.14C110.959 120.54 112.159 120.94 111.36 121.207C110.56 121.473 107.76 121.74 107.227 121.74C106.694 121.74 105.894 121.874 105.894 121.874C105.894 121.874 110.027 122.94 110.693 123.473C111.36 124.006 111.36 124.54 110.56 124.54C109.76 124.54 105.494 123.74 105.494 123.74C105.494 123.74 110.827 126.139 110.56 126.539C110.294 126.939 109.361 126.806 108.161 126.539C106.961 126.272 105.095 125.339 105.095 125.339C105.095 125.339 108.294 128.672 107.361 128.805C106.428 128.938 106.294 128.538 105.628 127.738C104.962 126.938 103.361 126.139 103.361 126.139C103.361 126.139 102.029 128.671 100.029 129.205C98.0289 129.738 96.0296 129.338 96.0296 129.338C96.0296 129.338 84.4318 135.471 80.8324 136.67C77.233 137.87 73.7672 138.803 72.5674 137.47C71.3675 136.138 74.3005 131.604 74.3005 131.604" fill="white"/>
<path d="M76.1656 129.738C76.1656 129.738 96.8291 126.139 97.7622 125.872C98.6953 125.605 103.228 120.54 103.628 120.406C104.027 120.273 107.76 119.74 109.36 120.14C110.959 120.54 112.159 120.94 111.36 121.207C110.56 121.473 107.76 121.74 107.227 121.74C106.694 121.74 105.894 121.874 105.894 121.874C105.894 121.874 110.027 122.94 110.693 123.473C111.36 124.006 111.36 124.54 110.56 124.54C109.76 124.54 105.494 123.74 105.494 123.74C105.494 123.74 110.827 126.139 110.56 126.539C110.294 126.939 109.361 126.806 108.161 126.539C106.961 126.272 105.095 125.339 105.095 125.339C105.095 125.339 108.294 128.672 107.361 128.805C106.428 128.938 106.294 128.538 105.628 127.738C104.962 126.938 103.361 126.139 103.361 126.139C103.361 126.139 102.029 128.671 100.029 129.205C98.0289 129.738 96.0296 129.338 96.0296 129.338C96.0296 129.338 84.4318 135.471 80.8324 136.67C77.233 137.87 73.7672 138.803 72.5674 137.47C71.3675 136.138 74.3005 131.604 74.3005 131.604" stroke="#263238" stroke-miterlimit="10" stroke-linecap="round" stroke-linejoin="round"/>
<path opacity="0.6" d="M166.779 103.905H145.378C143.095 103.905 141.245 102.054 141.245 99.7716V79.5897C141.245 77.3064 143.095 75.4563 145.378 75.4563H166.779C169.062 75.4563 170.913 77.307 170.913 79.5897V99.7716C170.913 102.054 169.062 103.905 166.779 103.905Z" fill="#C6FF00"/>
<path d="M136.564 91.3839V87.8064" stroke="#263238" stroke-miterlimit="10" stroke-linecap="round" stroke-linejoin="round"/>
<path d="M153.892 108.897H140.698C138.415 108.897 136.564 107.046 136.564 104.763V92.9778" stroke="#263238" stroke-miterlimit="10" stroke-linecap="round" stroke-linejoin="round"/>
<path d="M161.003 108.897H156.712" stroke="#263238" stroke-miterlimit="10" stroke-linecap="round" stroke-linejoin="round"/>
<path d="M175.593 83.5371V104.763C175.593 107.047 173.742 108.897 171.459 108.897H163.823" stroke="#263238" stroke-miterlimit="10" stroke-linecap="round" stroke-linejoin="round"/>
<path d="M142.989 70.4636H171.46C173.743 70.4636 175.594 72.3143 175.594 74.597V79.7355" stroke="#263238" stroke-miterlimit="10" stroke-linecap="round" stroke-linejoin="round"/>
<path d="M168.709 105.756H143.448C141.165 105.756 139.315 103.905 139.315 101.622V77.7391C139.315 75.4564 141.166 73.6057 143.448 73.6057H168.709C170.993 73.6057 172.843 75.4564 172.843 77.7391V101.622C172.843 103.905 170.992 105.756 168.709 105.756Z" stroke="#263238" stroke-miterlimit="10" stroke-linecap="round" stroke-linejoin="round"/>
<path opacity="0.5" d="M211.717 105.756H186.456C184.173 105.756 182.323 103.905 182.323 101.622V77.7391C182.323 75.4564 184.173 73.6057 186.456 73.6057H211.717C214 73.6057 215.851 75.4564 215.851 77.7391V101.622C215.851 103.905 214 105.756 211.717 105.756Z" fill="white" stroke="#263238" stroke-miterlimit="10" stroke-linecap="round" stroke-linejoin="round"/>
<path opacity="0.5" d="M168.709 147.611H143.448C141.165 147.611 139.315 145.761 139.315 143.478V119.595C139.315 117.312 141.166 115.461 143.448 115.461H168.709C170.993 115.461 172.843 117.312 172.843 119.595V143.478C172.843 145.761 170.992 147.611 168.709 147.611Z" fill="white" stroke="#263238" stroke-miterlimit="10" stroke-linecap="round" stroke-linejoin="round"/>
<path opacity="0.5" d="M211.717 147.611H186.456C184.173 147.611 182.323 145.761 182.323 143.478V119.595C182.323 117.312 184.173 115.461 186.456 115.461H211.717C214 115.461 215.851 117.312 215.851 119.595V143.478C215.851 145.761 214 147.611 211.717 147.611Z" fill="white" stroke="#263238" stroke-miterlimit="10" stroke-linecap="round" stroke-linejoin="round"/>
<path d="M209.787 103.905H188.387C186.103 103.905 184.253 102.054 184.253 99.7718V79.5899C184.253 77.3067 186.104 75.4565 188.387 75.4565H209.787C212.071 75.4565 213.921 77.3072 213.921 79.5899V99.7718C213.921 102.054 212.07 103.905 209.787 103.905Z" fill="#C6FF00"/>
<path d="M166.779 145.761H145.378C143.095 145.761 141.244 143.91 141.244 141.627V121.445C141.244 119.163 143.095 117.312 145.378 117.312H166.779C169.062 117.312 170.912 119.163 170.912 121.445V141.627C170.912 143.91 169.062 145.761 166.779 145.761Z" fill="#C6FF00"/>
<path d="M209.787 145.761H188.387C186.103 145.761 184.253 143.91 184.253 141.627V121.445C184.253 119.163 186.104 117.312 188.387 117.312H209.787C212.071 117.312 213.921 119.163 213.921 121.445V141.627C213.921 143.91 212.07 145.761 209.787 145.761Z" fill="#C6FF00"/>
<path d="M95.8956 84.9455C95.8956 84.9455 94.8288 83.0792 94.0293 84.279C93.2293 85.4788 93.3629 87.7454 94.5627 89.2113C95.7625 90.6778 98.0291 90.0114 98.0291 90.0114C98.0291 90.0114 99.362 95.0773 101.762 96.8105C104.161 98.5437 108.96 98.6767 111.36 96.0104C113.76 93.3441 113.893 87.6118 113.493 82.5459C113.093 77.4799 110.694 74.9473 110.694 74.9473C110.694 74.9473 105.094 79.3468 102.295 80.4129C99.4956 81.4791 96.6956 81.8794 96.6956 81.8794L95.8956 84.9455Z" fill="white" stroke="#263238" stroke-miterlimit="10" stroke-linecap="round" stroke-linejoin="round"/>
<path d="M109.536 91.4774C109.536 91.4774 107.74 92.2942 105.943 90.8242" stroke="#263238" stroke-miterlimit="10" stroke-linecap="round" stroke-linejoin="round"/>
<path d="M99.0951 79.7466H88.2969V84.2791H99.0951V79.7466Z" fill="#C6FF00" stroke="#263238" stroke-miterlimit="10" stroke-linecap="round" stroke-linejoin="round"/>
<path d="M116.166 88.8117H98.0209C97.0676 88.8117 96.2952 88.0393 96.2952 87.086V81.6053C96.2952 80.6521 97.0676 79.8796 98.0209 79.8796H116.166C117.119 79.8796 117.892 80.6521 117.892 81.6053V87.086C117.892 88.0393 117.119 88.8117 116.166 88.8117Z" fill="#C6FF00" stroke="#263238" stroke-miterlimit="10" stroke-linecap="round" stroke-linejoin="round"/>
<path d="M118.429 88.8117H101.487C100.534 88.8117 99.7615 88.0393 99.7615 87.086V81.6053C99.7615 80.6521 100.534 79.8796 101.487 79.8796H118.429C119.382 79.8796 120.155 80.6521 120.155 81.6053V87.086C120.155 88.0393 119.382 88.8117 118.429 88.8117Z" fill="#C6FF00"/>
<mask id="mask0_132_1103" style="mask-type:luminance" maskUnits="userSpaceOnUse" x="99" y="79" width="22" height="10">
<path d="M118.429 88.8117H101.487C100.534 88.8117 99.7615 88.0393 99.7615 87.086V81.6053C99.7615 80.6521 100.534 79.8796 101.487 79.8796H118.429C119.382 79.8796 120.155 80.6521 120.155 81.6053V87.086C120.155 88.0393 119.382 88.8117 118.429 88.8117Z" fill="white"/>
</mask>
<g mask="url(#mask0_132_1103)">
<path opacity="0.3" d="M118.429 88.8117H101.487C100.534 88.8117 99.7615 88.0393 99.7615 87.086V81.6053C99.7615 80.6521 100.534 79.8796 101.487 79.8796H118.429C119.382 79.8796 120.155 80.6521 120.155 81.6053V87.086C120.155 88.0393 119.382 88.8117 118.429 88.8117Z" fill="black"/>
</g>
<path d="M118.429 88.8117H101.487C100.534 88.8117 99.7615 88.0393 99.7615 87.086V81.6053C99.7615 80.6521 100.534 79.8796 101.487 79.8796H118.429C119.382 79.8796 120.155 80.6521 120.155 81.6053V87.086C120.155 88.0393 119.382 88.8117 118.429 88.8117Z" stroke="#263238" stroke-miterlimit="10" stroke-linecap="round" stroke-linejoin="round"/>
</svg>
