<svg width="297" height="297" viewBox="0 0 297 297" fill="none" xmlns="http://www.w3.org/2000/svg">
<path d="M60.0937 204.505C60.0937 204.505 84.1003 234.903 125.121 236.141C166.141 237.378 202.826 211.806 233.092 191.874C263.358 171.942 273.286 138.602 258.178 111.102C243.071 83.602 215.644 93.0116 182.707 73.6763C149.771 54.3404 143.933 44.1919 105.749 45.9293C67.5663 47.6674 35.9613 88.4586 37.3536 134.161C38.746 179.863 60.0937 204.505 60.0937 204.505Z" fill="#C6FF00"/>
<path opacity="0.7" d="M60.0937 204.505C60.0937 204.505 84.1003 234.903 125.121 236.141C166.141 237.378 202.826 211.806 233.092 191.874C263.358 171.942 273.286 138.602 258.178 111.102C243.071 83.602 215.644 93.0116 182.707 73.6763C149.771 54.3404 143.933 44.1919 105.749 45.9293C67.5663 47.6674 35.9613 88.4586 37.3536 134.161C38.746 179.863 60.0937 204.505 60.0937 204.505Z" fill="white"/>
<path d="M67.5543 54.099C67.5205 54.1026 67.9683 51.8846 68.0123 51.748C68.5255 50.1662 70.4465 47.41 72.3087 47.4136C73.6505 47.416 74.5594 48.6372 74.4269 49.9179C74.2921 51.2259 73.1171 52.3408 72.0545 52.9847C70.8077 53.7397 67.5573 54.0985 67.5543 54.099Z" fill="#C6FF00"/>
<path d="M63.9482 39.1802C65.7011 39.8093 66.5731 43.0531 66.5185 44.7157C66.5137 44.8595 66.1817 47.0977 66.1508 47.0828C66.1508 47.0828 66.1223 47.0686 66.1152 47.065C66.2565 47.5758 66.4027 48.1253 66.55 48.7294C66.8131 49.8461 67.1 51.1107 67.3198 52.5078C67.5431 53.9031 67.7463 55.4261 67.8152 57.0489C67.8871 58.6759 67.8793 60.3908 67.6429 62.1568C67.6406 62.177 67.6352 62.1971 67.6322 62.2173C67.8615 61.7225 68.55 60.3593 68.6147 60.2607C69.5271 58.8702 72.1074 56.7193 73.9031 57.2147C75.1968 57.5717 75.751 58.9895 75.2847 60.1894C74.8089 61.4154 73.3816 62.1805 72.187 62.5203C70.8398 62.904 67.836 62.4508 67.5966 62.414C67.356 64.0938 66.9723 65.798 66.4894 67.501C66.2144 68.4751 65.9073 69.4475 65.5865 70.4187C65.7986 69.997 65.9916 69.6216 66.0243 69.5723C66.9367 68.1817 69.517 66.0314 71.3127 66.5262C72.6064 66.8832 73.16 68.3005 72.6949 69.501C72.2197 70.727 70.7917 71.4921 69.5972 71.8324C68.3848 72.1775 65.8158 71.8425 65.1374 71.7451C65.0103 72.1164 64.888 72.4888 64.7597 72.8594C64.1449 74.6385 63.5229 76.4116 62.9664 78.1692C62.7698 78.7882 62.5993 79.4053 62.4264 80.0225C62.6153 79.6483 62.7775 79.3346 62.8072 79.2895C63.7196 77.8989 66.2999 75.7481 68.0956 76.2435C69.3893 76.5999 69.9435 78.0183 69.4772 79.2188C69.002 80.4442 67.574 81.2099 66.3795 81.5497C65.2224 81.8787 62.8488 81.5912 62.0415 81.479C61.8835 82.1158 61.7243 82.7537 61.5996 83.378C61.5241 83.8063 61.422 84.2132 61.3703 84.6474C61.3103 85.0762 61.2503 85.501 61.1915 85.9215C61.1077 86.7359 61.0157 87.5752 60.9539 88.3712C60.9064 88.9248 60.8719 89.4528 60.8351 89.9851C61.0234 89.3661 61.4172 88.1627 61.4618 88.0659C61.9209 87.0608 63.0584 85.6162 64.3124 84.8208C64.3795 84.6723 64.4591 84.5298 64.5529 84.3955C65.2913 83.3412 66.7781 83.0133 67.7938 83.89C69.204 85.1071 68.8511 88.4478 68.2031 89.9791C68.1651 90.0694 67.64 91.0032 67.2996 91.5871C67.552 91.274 67.7932 90.9675 68.0575 90.6492C68.5749 90.0154 69.1095 89.3982 69.6827 88.7317C69.9708 88.4199 70.2619 88.1045 70.5559 87.7867C70.8404 87.4647 71.182 87.1612 71.4968 86.8434C72.2423 86.1235 73.0323 85.4297 73.8437 84.7484C73.2901 84.2939 71.3459 82.6521 70.787 81.5366C70.2304 80.4258 69.83 78.8565 70.4128 77.678C70.983 76.5238 72.4027 75.9744 73.5396 76.6872C75.1178 77.6762 75.2758 81.0323 74.8666 82.6444C74.841 82.7448 74.4175 83.8686 74.1734 84.4817C74.6646 84.076 75.1523 83.6685 75.6625 83.2746C77.135 82.1365 78.6604 81.0305 80.1775 79.9197C80.6426 79.58 81.1012 79.2354 81.5627 78.8927C81.3637 78.7329 79.0115 76.8315 78.3854 75.5817C77.8288 74.4716 77.4285 72.9016 78.0112 71.7231C78.5814 70.569 80.0011 70.0195 81.138 70.7323C82.7163 71.7219 82.8737 75.0774 82.465 76.6896C82.4341 76.8107 81.8223 78.427 81.6471 78.8309C82.6616 78.0754 83.6661 77.3133 84.626 76.5215C85.9518 75.4309 87.1921 74.288 88.3118 73.0911C88.2191 73.0169 85.7546 71.0436 85.1131 69.7635C84.5565 68.6527 84.1561 67.0834 84.7388 65.9049C85.3091 64.7508 86.7287 64.2013 87.8657 64.9141C89.4439 65.9037 89.6013 69.2592 89.1927 70.8713C89.1659 70.9771 88.7008 72.2102 88.4662 72.7905C88.5155 72.8214 88.5066 72.8161 88.5559 72.847C89.7403 71.5509 90.724 70.1461 91.5799 68.7858C92.0771 67.9987 92.509 67.2188 92.9111 66.4508C92.4145 66.1306 90.1609 64.6403 89.4564 63.5521C88.7816 62.509 88.2114 60.9931 88.6604 59.7576C89.1006 58.5476 90.4513 57.8455 91.6595 58.4294C93.337 59.2396 93.8621 62.5571 93.6328 64.2043C93.6203 64.294 93.3928 65.1903 93.2182 65.8413C93.3946 65.4921 93.5829 65.1345 93.7451 64.7959C94.3581 63.5277 94.8404 62.3284 95.2598 61.2628C95.4932 60.6551 95.6922 60.1009 95.8728 59.5806C95.5496 59.0115 94.2755 56.7032 94.1537 55.4362C94.0349 54.1995 94.228 52.5916 95.1962 51.7018C96.1442 50.831 97.6667 50.8304 98.4703 51.9049C99.5853 53.397 98.5226 56.5833 97.5603 57.9399C97.4772 58.057 95.9654 59.741 95.9482 59.7113C95.9482 59.7113 95.9322 59.6833 95.9286 59.6768C95.7647 60.1811 95.5835 60.7199 95.3732 61.305C94.9764 62.3819 94.5185 63.5948 93.931 64.8814C93.3471 66.1686 92.6771 67.5509 91.8395 68.9426C91.002 70.3391 90.0492 71.7653 88.8778 73.1077C88.8648 73.1232 88.8487 73.1368 88.8357 73.1523C89.3002 72.866 90.626 72.1092 90.7341 72.0629C92.2625 71.4065 95.6007 71.0365 96.8256 72.4395C97.7076 73.4505 97.3875 74.939 96.3373 75.6833C95.2645 76.4436 93.6518 76.294 92.4674 75.9185C91.1321 75.495 88.8761 73.46 88.6973 73.2972C87.5699 74.5654 86.31 75.7754 84.9675 76.9295C84.2007 77.5901 83.4077 78.2322 82.6052 78.8654C83.0151 78.6308 83.3827 78.424 83.4374 78.4009C84.9657 77.7445 88.3046 77.3744 89.5289 78.7781C90.4109 79.7891 90.0908 81.2776 89.0406 82.0219C87.9678 82.7822 86.3551 82.6325 85.1707 82.2571C83.969 81.8758 82.0112 80.1799 81.4992 79.7237C81.1885 79.9637 80.8814 80.206 80.5696 80.4448C79.0751 81.5895 77.5782 82.7252 76.1449 83.8841C75.6394 84.2922 75.1564 84.7127 74.6717 85.1315C75.0359 84.9236 75.3441 84.7513 75.394 84.7299C76.9224 84.0736 80.2613 83.7035 81.4855 85.1071C82.3676 86.1181 82.0474 87.6067 80.9966 88.351C79.9239 89.1107 78.3112 88.9616 77.1267 88.5862C75.9803 88.2227 74.1591 86.6729 73.5479 86.1342C73.065 86.5785 72.5797 87.0222 72.1318 87.4742C71.833 87.7902 71.5229 88.073 71.2402 88.4068C70.9533 88.7311 70.6694 89.0525 70.3878 89.3709C69.8686 90.0035 69.3287 90.6533 68.8381 91.283C68.4929 91.7184 68.1728 92.1395 67.8485 92.5636C68.3468 92.1514 69.3394 91.3649 69.4297 91.3085C70.8404 90.4282 74.0849 89.5562 75.5081 90.7585C76.5333 91.6245 76.4424 93.144 75.5164 94.0385C74.5713 94.9521 72.9545 95.0489 71.7267 94.8576C70.3753 94.6462 67.9292 93.0531 67.6251 92.8523C67.0911 93.555 66.5785 94.2435 66.1051 94.901C64.4591 97.1766 63.1743 99.1339 62.2957 100.514C62.2643 100.564 62.2363 100.608 62.2066 100.655L61.0668 100.102C61.1256 100.013 61.1826 99.9262 61.2461 99.8312C62.1657 98.4537 63.5051 96.506 65.2176 94.2446C65.757 93.5289 66.3474 92.7751 66.961 92.0064C66.803 91.8336 65.9102 90.8452 65.1927 89.817C63.8841 90.3296 61.1594 90.3498 60.8072 90.3504C60.7496 91.2307 60.702 92.0878 60.67 92.8974C60.5523 95.7035 60.5607 98.0451 60.5892 99.6809C60.5904 99.7481 60.5916 99.8074 60.5933 99.8722L59.3406 99.2645C59.3531 97.6388 59.4024 95.4404 59.5681 92.8404C59.6227 91.9459 59.6994 90.9913 59.7873 90.0118C59.4398 89.9245 56.6064 89.1968 55.5366 88.3421C54.566 87.5669 53.5449 86.3094 53.58 84.9949C53.6144 83.7077 54.6735 82.6141 56.0041 82.7852C57.8514 83.0222 59.4006 86.0029 59.7047 87.6382C59.7225 87.7344 59.8003 88.803 59.8384 89.4778C59.8764 89.078 59.9085 88.689 59.953 88.2773C60.035 87.4635 60.1407 86.6533 60.2512 85.7813C60.3195 85.362 60.3878 84.939 60.4579 84.5114C60.5179 84.086 60.6349 83.6441 60.7222 83.2057C60.9468 82.1942 61.223 81.1796 61.5241 80.1639C60.8113 80.0902 58.2845 79.7932 57.2028 79.1713C56.1259 78.5518 54.926 77.4635 54.762 76.1591C54.6011 74.882 55.482 73.64 56.8238 73.6073C58.686 73.5622 60.6688 76.2738 61.217 77.8437C61.2515 77.9417 61.5182 79.1125 61.6524 79.7588C61.8384 79.1493 62.0201 78.5405 62.2286 77.9304C62.8286 76.1692 63.4909 74.4044 64.1437 72.6415C64.3439 72.1015 64.5369 71.561 64.7323 71.021C64.4787 70.9979 61.4671 70.7092 60.2559 70.0124C59.179 69.3935 57.9797 68.3047 57.8152 67.0002C57.6542 65.7231 58.5351 64.4811 59.877 64.449C61.7392 64.4039 63.7219 67.1155 64.2702 68.6854C64.3112 68.8036 64.6931 70.4888 64.7692 70.9224C65.1986 69.732 65.6162 68.5423 65.9797 67.3531C66.484 65.7124 66.8874 64.0742 67.1618 62.4591C67.0436 62.4484 63.8995 62.1621 62.6587 61.4481C61.5818 60.8286 60.3819 59.7404 60.2179 58.4359C60.057 57.1588 60.9379 55.9174 62.2797 55.8847C64.1419 55.8396 66.1247 58.5512 66.6729 60.1211C66.7092 60.2245 67.0008 61.5075 67.1256 62.1217C67.1844 62.1199 67.1731 62.1205 67.2319 62.1187C67.5045 60.3849 67.5497 58.6706 67.5134 57.0638C67.4944 56.133 67.4237 55.2444 67.3358 54.3819C66.7448 54.3884 64.0433 54.389 62.8553 53.8699C61.7172 53.3727 60.405 52.4229 60.0979 51.144C59.7974 49.8918 60.5369 48.5613 61.8669 48.3813C63.7124 48.1318 65.9809 50.6094 66.6985 52.1098C66.7377 52.1912 67.0424 53.065 67.2556 53.7041C67.2099 53.3157 67.1701 52.9135 67.119 52.5417C66.9301 51.1458 66.6717 49.8794 66.4335 48.7597C66.2928 48.1241 66.1532 47.5521 66.0166 47.0181C65.4332 46.7223 63.097 45.4992 62.2963 44.5096C61.5152 43.5438 60.7888 42.0962 61.106 40.8197C61.416 39.5669 62.6854 38.7264 63.9482 39.1802Z" fill="#C6FF00"/>
<path d="M97.619 67.8901C96.162 67.8318 93.2526 66.3379 93.2502 66.3373C93.2199 66.3219 94.8166 64.7187 94.9288 64.629C96.2297 63.5925 99.3517 62.354 100.904 63.384C102.022 64.1265 102.106 65.6465 101.289 66.6415C100.455 67.6578 98.8599 67.9394 97.619 67.8901Z" fill="#C6FF00"/>
<g opacity="0.5">
<path d="M67.5543 54.099C67.5205 54.1026 67.9683 51.8846 68.0123 51.748C68.5255 50.1662 70.4465 47.41 72.3087 47.4136C73.6505 47.416 74.5594 48.6372 74.4269 49.9179C74.2921 51.2259 73.1171 52.3408 72.0545 52.9847C70.8077 53.7397 67.5573 54.0985 67.5543 54.099Z" fill="white"/>
<path d="M63.9482 39.1802C65.7011 39.8093 66.5731 43.0531 66.5185 44.7157C66.5137 44.8595 66.1817 47.0977 66.1508 47.0828C66.1508 47.0828 66.1223 47.0686 66.1152 47.065C66.2565 47.5758 66.4027 48.1253 66.55 48.7294C66.8131 49.8461 67.1 51.1107 67.3198 52.5078C67.5431 53.9031 67.7463 55.4261 67.8152 57.0489C67.8871 58.6759 67.8793 60.3908 67.6429 62.1568C67.6406 62.177 67.6352 62.1971 67.6322 62.2173C67.8615 61.7225 68.55 60.3593 68.6147 60.2607C69.5271 58.8702 72.1074 56.7193 73.9031 57.2147C75.1968 57.5717 75.751 58.9895 75.2847 60.1894C74.8089 61.4154 73.3816 62.1805 72.187 62.5203C70.8398 62.904 67.836 62.4508 67.5966 62.414C67.356 64.0938 66.9723 65.798 66.4894 67.501C66.2144 68.4751 65.9073 69.4475 65.5865 70.4187C65.7986 69.997 65.9916 69.6216 66.0243 69.5723C66.9367 68.1817 69.517 66.0314 71.3127 66.5262C72.6064 66.8832 73.16 68.3005 72.6949 69.501C72.2197 70.727 70.7917 71.4921 69.5972 71.8324C68.3848 72.1775 65.8158 71.8425 65.1374 71.7451C65.0103 72.1164 64.888 72.4888 64.7597 72.8594C64.1449 74.6385 63.5229 76.4116 62.9664 78.1692C62.7698 78.7882 62.5993 79.4053 62.4264 80.0225C62.6153 79.6483 62.7775 79.3346 62.8072 79.2895C63.7196 77.8989 66.2999 75.7481 68.0956 76.2435C69.3893 76.5999 69.9435 78.0183 69.4772 79.2188C69.002 80.4442 67.574 81.2099 66.3795 81.5497C65.2224 81.8787 62.8488 81.5912 62.0415 81.479C61.8835 82.1158 61.7243 82.7537 61.5996 83.378C61.5241 83.8063 61.422 84.2132 61.3703 84.6474C61.3103 85.0762 61.2503 85.501 61.1915 85.9215C61.1077 86.7359 61.0157 87.5752 60.9539 88.3712C60.9064 88.9248 60.8719 89.4528 60.8351 89.9851C61.0234 89.3661 61.4172 88.1627 61.4618 88.0659C61.9209 87.0608 63.0584 85.6162 64.3124 84.8208C64.3795 84.6723 64.4591 84.5298 64.5529 84.3955C65.2913 83.3412 66.7781 83.0133 67.7938 83.89C69.204 85.1071 68.8511 88.4478 68.2031 89.9791C68.1651 90.0694 67.64 91.0032 67.2996 91.5871C67.552 91.274 67.7932 90.9675 68.0575 90.6492C68.5749 90.0154 69.1095 89.3982 69.6827 88.7317C69.9708 88.4199 70.2619 88.1045 70.5559 87.7867C70.8404 87.4647 71.182 87.1612 71.4968 86.8434C72.2423 86.1235 73.0323 85.4297 73.8437 84.7484C73.2901 84.2939 71.3459 82.6521 70.787 81.5366C70.2304 80.4258 69.83 78.8565 70.4128 77.678C70.983 76.5238 72.4027 75.9744 73.5396 76.6872C75.1178 77.6762 75.2758 81.0323 74.8666 82.6444C74.841 82.7448 74.4175 83.8686 74.1734 84.4817C74.6646 84.076 75.1523 83.6685 75.6625 83.2746C77.135 82.1365 78.6604 81.0305 80.1775 79.9197C80.6426 79.58 81.1012 79.2354 81.5627 78.8927C81.3637 78.7329 79.0115 76.8315 78.3854 75.5817C77.8288 74.4716 77.4285 72.9016 78.0112 71.7231C78.5814 70.569 80.0011 70.0195 81.138 70.7323C82.7163 71.7219 82.8737 75.0774 82.465 76.6896C82.4341 76.8107 81.8223 78.427 81.6471 78.8309C82.6616 78.0754 83.6661 77.3133 84.626 76.5215C85.9518 75.4309 87.1921 74.288 88.3118 73.0911C88.2191 73.0169 85.7546 71.0436 85.1131 69.7635C84.5565 68.6527 84.1561 67.0834 84.7388 65.9049C85.3091 64.7508 86.7287 64.2013 87.8657 64.9141C89.4439 65.9037 89.6013 69.2592 89.1927 70.8713C89.1659 70.9771 88.7008 72.2102 88.4662 72.7905C88.5155 72.8214 88.5066 72.8161 88.5559 72.847C89.7403 71.5509 90.724 70.1461 91.5799 68.7858C92.0771 67.9987 92.509 67.2188 92.9111 66.4508C92.4145 66.1306 90.1609 64.6403 89.4564 63.5521C88.7816 62.509 88.2114 60.9931 88.6604 59.7576C89.1006 58.5476 90.4513 57.8455 91.6595 58.4294C93.337 59.2396 93.8621 62.5571 93.6328 64.2043C93.6203 64.294 93.3928 65.1903 93.2182 65.8413C93.3946 65.4921 93.5829 65.1345 93.7451 64.7959C94.3581 63.5277 94.8404 62.3284 95.2598 61.2628C95.4932 60.6551 95.6922 60.1009 95.8728 59.5806C95.5496 59.0115 94.2755 56.7032 94.1537 55.4362C94.0349 54.1995 94.228 52.5916 95.1962 51.7018C96.1442 50.831 97.6667 50.8304 98.4703 51.9049C99.5853 53.397 98.5226 56.5833 97.5603 57.9399C97.4772 58.057 95.9654 59.741 95.9482 59.7113C95.9482 59.7113 95.9322 59.6833 95.9286 59.6768C95.7647 60.1811 95.5835 60.7199 95.3732 61.305C94.9764 62.3819 94.5185 63.5948 93.931 64.8814C93.3471 66.1686 92.6771 67.5509 91.8395 68.9426C91.002 70.3391 90.0492 71.7653 88.8778 73.1077C88.8648 73.1232 88.8487 73.1368 88.8357 73.1523C89.3002 72.866 90.626 72.1092 90.7341 72.0629C92.2625 71.4065 95.6007 71.0365 96.8256 72.4395C97.7076 73.4505 97.3875 74.939 96.3373 75.6833C95.2645 76.4436 93.6518 76.294 92.4674 75.9185C91.1321 75.495 88.8761 73.46 88.6973 73.2972C87.5699 74.5654 86.31 75.7754 84.9675 76.9295C84.2007 77.5901 83.4077 78.2322 82.6052 78.8654C83.0151 78.6308 83.3827 78.424 83.4374 78.4009C84.9657 77.7445 88.3046 77.3744 89.5289 78.7781C90.4109 79.7891 90.0908 81.2776 89.0406 82.0219C87.9678 82.7822 86.3551 82.6325 85.1707 82.2571C83.969 81.8758 82.0112 80.1799 81.4992 79.7237C81.1885 79.9637 80.8814 80.206 80.5696 80.4448C79.0751 81.5895 77.5782 82.7252 76.1449 83.8841C75.6394 84.2922 75.1564 84.7127 74.6717 85.1315C75.0359 84.9236 75.3441 84.7513 75.394 84.7299C76.9224 84.0736 80.2613 83.7035 81.4855 85.1071C82.3676 86.1181 82.0474 87.6067 80.9966 88.351C79.9239 89.1107 78.3112 88.9616 77.1267 88.5862C75.9803 88.2227 74.1591 86.6729 73.5479 86.1342C73.065 86.5785 72.5797 87.0222 72.1318 87.4742C71.833 87.7902 71.5229 88.073 71.2402 88.4068C70.9533 88.7311 70.6694 89.0525 70.3878 89.3709C69.8686 90.0035 69.3287 90.6533 68.8381 91.283C68.4929 91.7184 68.1728 92.1395 67.8485 92.5636C68.3468 92.1514 69.3394 91.3649 69.4297 91.3085C70.8404 90.4282 74.0849 89.5562 75.5081 90.7585C76.5333 91.6245 76.4424 93.144 75.5164 94.0385C74.5713 94.9521 72.9545 95.0489 71.7267 94.8576C70.3753 94.6462 67.9292 93.0531 67.6251 92.8523C67.0911 93.555 66.5785 94.2435 66.1051 94.901C64.4591 97.1766 63.1743 99.1339 62.2957 100.514C62.2643 100.564 62.2363 100.608 62.2066 100.655L61.0668 100.102C61.1256 100.013 61.1826 99.9262 61.2461 99.8312C62.1657 98.4537 63.5051 96.506 65.2176 94.2446C65.757 93.5289 66.3474 92.7751 66.961 92.0064C66.803 91.8336 65.9102 90.8452 65.1927 89.817C63.8841 90.3296 61.1594 90.3498 60.8072 90.3504C60.7496 91.2307 60.702 92.0878 60.67 92.8974C60.5523 95.7035 60.5607 98.0451 60.5892 99.6809C60.5904 99.7481 60.5916 99.8074 60.5933 99.8722L59.3406 99.2645C59.3531 97.6388 59.4024 95.4404 59.5681 92.8404C59.6227 91.9459 59.6994 90.9913 59.7873 90.0118C59.4398 89.9245 56.6064 89.1968 55.5366 88.3421C54.566 87.5669 53.5449 86.3094 53.58 84.9949C53.6144 83.7077 54.6735 82.6141 56.0041 82.7852C57.8514 83.0222 59.4006 86.0029 59.7047 87.6382C59.7225 87.7344 59.8003 88.803 59.8384 89.4778C59.8764 89.078 59.9085 88.689 59.953 88.2773C60.035 87.4635 60.1407 86.6533 60.2512 85.7813C60.3195 85.362 60.3878 84.939 60.4579 84.5114C60.5179 84.086 60.6349 83.6441 60.7222 83.2057C60.9468 82.1942 61.223 81.1796 61.5241 80.1639C60.8113 80.0902 58.2845 79.7932 57.2028 79.1713C56.1259 78.5518 54.926 77.4635 54.762 76.1591C54.6011 74.882 55.482 73.64 56.8238 73.6073C58.686 73.5622 60.6688 76.2738 61.217 77.8437C61.2515 77.9417 61.5182 79.1125 61.6524 79.7588C61.8384 79.1493 62.0201 78.5405 62.2286 77.9304C62.8286 76.1692 63.4909 74.4044 64.1437 72.6415C64.3439 72.1015 64.5369 71.561 64.7323 71.021C64.4787 70.9979 61.4671 70.7092 60.2559 70.0124C59.179 69.3935 57.9797 68.3047 57.8152 67.0002C57.6542 65.7231 58.5351 64.4811 59.877 64.449C61.7392 64.4039 63.7219 67.1155 64.2702 68.6854C64.3112 68.8036 64.6931 70.4888 64.7692 70.9224C65.1986 69.732 65.6162 68.5423 65.9797 67.3531C66.484 65.7124 66.8874 64.0742 67.1618 62.4591C67.0436 62.4484 63.8995 62.1621 62.6587 61.4481C61.5818 60.8286 60.3819 59.7404 60.2179 58.4359C60.057 57.1588 60.9379 55.9174 62.2797 55.8847C64.1419 55.8396 66.1247 58.5512 66.6729 60.1211C66.7092 60.2245 67.0008 61.5075 67.1256 62.1217C67.1844 62.1199 67.1731 62.1205 67.2319 62.1187C67.5045 60.3849 67.5497 58.6706 67.5134 57.0638C67.4944 56.133 67.4237 55.2444 67.3358 54.3819C66.7448 54.3884 64.0433 54.389 62.8553 53.8699C61.7172 53.3727 60.405 52.4229 60.0979 51.144C59.7974 49.8918 60.5369 48.5613 61.8669 48.3813C63.7124 48.1318 65.9809 50.6094 66.6985 52.1098C66.7377 52.1912 67.0424 53.065 67.2556 53.7041C67.2099 53.3157 67.1701 52.9135 67.119 52.5417C66.9301 51.1458 66.6717 49.8794 66.4335 48.7597C66.2928 48.1241 66.1532 47.5521 66.0166 47.0181C65.4332 46.7223 63.097 45.4992 62.2963 44.5096C61.5152 43.5438 60.7888 42.0962 61.106 40.8197C61.416 39.5669 62.6854 38.7264 63.9482 39.1802Z" fill="white"/>
<path d="M97.619 67.8901C96.162 67.8318 93.2526 66.3379 93.2502 66.3373C93.2199 66.3219 94.8166 64.7187 94.9288 64.629C96.2297 63.5925 99.3517 62.354 100.904 63.384C102.022 64.1265 102.106 65.6465 101.289 66.6415C100.455 67.6578 98.8599 67.9394 97.619 67.8901Z" fill="white"/>
</g>
<path d="M80.6236 104.336C80.6236 104.336 71.7938 83.046 66.8487 83.9715C61.9037 84.8969 75.3257 117.913 75.3257 117.913C75.3257 117.913 59.7849 88.5999 49.1885 88.5999C38.5921 88.5999 53.0739 120.998 66.4953 131.797C66.4953 131.797 45.3031 108.965 32.9414 113.901C20.5791 118.838 57.6655 141.98 57.6655 141.98C57.6655 141.98 36.1205 135.191 38.5927 140.437C41.065 145.683 47.776 146.608 47.776 146.608L53.46 147.842H84.348L89.1006 145.99C89.1006 145.99 108.88 136.117 103.582 132.106C98.2838 128.094 86.6277 136.734 86.6277 136.734C86.6277 136.734 106.76 114.519 102.875 106.187C98.9895 97.8562 81.6827 121.306 81.6827 121.306C81.6827 121.306 95.811 91.3763 92.9853 86.1312C90.1602 80.8856 80.6236 104.336 80.6236 104.336Z" fill="#C6FF00"/>
<path opacity="0.4" d="M80.6236 104.336C80.6236 104.336 71.7938 83.046 66.8487 83.9715C61.9037 84.8969 75.3257 117.913 75.3257 117.913C75.3257 117.913 59.7849 88.5999 49.1885 88.5999C38.5921 88.5999 53.0739 120.998 66.4953 131.797C66.4953 131.797 45.3031 108.965 32.9414 113.901C20.5791 118.838 57.6655 141.98 57.6655 141.98C57.6655 141.98 36.1205 135.191 38.5927 140.437C41.065 145.683 47.776 146.608 47.776 146.608L57.024 147.842H81.972L89.1006 145.99C89.1006 145.99 108.88 136.117 103.582 132.106C98.2838 128.094 86.6277 136.734 86.6277 136.734C86.6277 136.734 106.76 114.519 102.875 106.187C98.9895 97.8562 81.6827 121.306 81.6827 121.306C81.6827 121.306 95.811 91.3763 92.9853 86.1312C90.1602 80.8856 80.6236 104.336 80.6236 104.336Z" fill="white"/>
<path d="M83.4493 105.458C75.6792 128.416 75.6792 144.663 75.6792 144.663C75.6792 144.663 84.8624 145.016 94.3991 137.952" stroke="#263238" stroke-miterlimit="10" stroke-linecap="round" stroke-linejoin="round"/>
<path d="M79.5639 117.82C79.5639 117.82 77.7979 109.343 73.2063 97.6875" stroke="#263238" stroke-miterlimit="10" stroke-linecap="round" stroke-linejoin="round"/>
<path d="M56.6057 104.398L76.3847 133.714C76.3847 133.714 89.8068 122.411 94.3978 116.054" stroke="#263238" stroke-miterlimit="10" stroke-linecap="round" stroke-linejoin="round"/>
<path d="M76.032 140.778C76.032 140.778 55.1933 130.889 46.7163 125.237" stroke="#263238" stroke-miterlimit="10" stroke-linecap="round" stroke-linejoin="round"/>
<path d="M138.76 56.8049H134.468V235.771H138.76V56.8049Z" fill="#C2C2C2" stroke="#ABABAB" stroke-miterlimit="10" stroke-linecap="round" stroke-linejoin="round"/>
<path d="M61.5082 56.8049H57.2166V235.771H61.5082V56.8049Z" fill="#C2C2C2" stroke="#ABABAB" stroke-miterlimit="10" stroke-linecap="round" stroke-linejoin="round"/>
<path d="M100.134 56.8049H95.842V235.771H100.134V56.8049Z" fill="#C2C2C2" stroke="#ABABAB" stroke-miterlimit="10" stroke-linecap="round" stroke-linejoin="round"/>
<path d="M177.385 56.8049H173.094V235.771H177.385V56.8049Z" fill="#C2C2C2" stroke="#ABABAB" stroke-miterlimit="10" stroke-linecap="round" stroke-linejoin="round"/>
<path d="M176.098 62.3843H55.8301V70.5387H176.098V62.3843Z" fill="#C2C2C2" stroke="#ABABAB" stroke-miterlimit="10" stroke-linecap="round" stroke-linejoin="round"/>
<path d="M176.098 62.3843H98.6997V70.5387H176.098V62.3843Z" fill="#A6A6A6" stroke="#ABABAB" stroke-miterlimit="10" stroke-linecap="round" stroke-linejoin="round"/>
<path d="M176.098 144.501H55.8301V152.655H176.098V144.501Z" fill="#C2C2C2" stroke="#ABABAB" stroke-miterlimit="10" stroke-linecap="round" stroke-linejoin="round"/>
<path d="M176.098 144.501H98.6997V152.655H176.098V144.501Z" fill="#A6A6A6" stroke="#ABABAB" stroke-miterlimit="10" stroke-linecap="round" stroke-linejoin="round"/>
<path d="M176.098 226.617H55.8301V234.772H176.098V226.617Z" fill="#C2C2C2" stroke="#ABABAB" stroke-miterlimit="10" stroke-linecap="round" stroke-linejoin="round"/>
<path d="M176.098 226.617H98.6997V234.772H176.098V226.617Z" fill="#A6A6A6" stroke="#ABABAB" stroke-miterlimit="10" stroke-linecap="round" stroke-linejoin="round"/>
<path d="M98.7156 182.834H35.7754V235.704H98.7156V182.834Z" fill="#C6FF00"/>
<mask id="mask0_132_593" style="mask-type:luminance" maskUnits="userSpaceOnUse" x="35" y="182" width="64" height="54">
<path d="M98.7156 182.834H35.7754V235.704H98.7156V182.834Z" fill="white"/>
</mask>
<g mask="url(#mask0_132_593)">
<path opacity="0.6" d="M98.7156 182.834H35.7754V235.704H98.7156V182.834Z" fill="white" stroke="#696969" stroke-miterlimit="10" stroke-linecap="round" stroke-linejoin="round"/>
</g>
<path d="M98.7156 182.834H35.7754V235.704H98.7156V182.834Z" stroke="#696969" stroke-miterlimit="10" stroke-linecap="round" stroke-linejoin="round"/>
<path d="M98.7163 182.834H77.8027V235.704H98.7163V182.834Z" fill="#C6FF00"/>
<mask id="mask1_132_593" style="mask-type:luminance" maskUnits="userSpaceOnUse" x="77" y="182" width="22" height="54">
<path d="M98.7163 182.834H77.8027V235.704H98.7163V182.834Z" fill="white"/>
</mask>
<g mask="url(#mask1_132_593)">
<path opacity="0.39" d="M98.7163 182.834H77.8027V235.704H98.7163V182.834Z" fill="white" stroke="#696969" stroke-miterlimit="10" stroke-linecap="round" stroke-linejoin="round"/>
</g>
<path d="M98.7163 182.834H77.8027V235.704H98.7163V182.834Z" stroke="#696969" stroke-miterlimit="10" stroke-linecap="round" stroke-linejoin="round"/>
<path d="M88.4768 182.976V235.771" stroke="#696969" stroke-miterlimit="10" stroke-linecap="round" stroke-linejoin="round"/>
<path d="M101.892 130.043H38.9521V182.913H101.892V130.043Z" fill="#C6FF00"/>
<mask id="mask2_132_593" style="mask-type:luminance" maskUnits="userSpaceOnUse" x="38" y="130" width="64" height="53">
<path d="M101.892 130.043H38.9521V182.913H101.892V130.043Z" fill="white"/>
</mask>
<g mask="url(#mask2_132_593)">
<path opacity="0.6" d="M101.892 130.043H38.9521V182.913H101.892V130.043Z" fill="white" stroke="#696969" stroke-miterlimit="10" stroke-linecap="round" stroke-linejoin="round"/>
</g>
<path d="M101.892 130.043H38.9521V182.913H101.892V130.043Z" stroke="#696969" stroke-miterlimit="10" stroke-linecap="round" stroke-linejoin="round"/>
<path d="M101.893 130.043H80.9795V182.913H101.893V130.043Z" fill="#C6FF00"/>
<mask id="mask3_132_593" style="mask-type:luminance" maskUnits="userSpaceOnUse" x="80" y="130" width="22" height="53">
<path d="M101.893 130.043H80.9795V182.913H101.893V130.043Z" fill="white"/>
</mask>
<g mask="url(#mask3_132_593)">
<path opacity="0.39" d="M101.893 130.043H80.9795V182.913H101.893V130.043Z" fill="white" stroke="#696969" stroke-miterlimit="10" stroke-linecap="round" stroke-linejoin="round"/>
</g>
<path d="M101.893 130.043H80.9795V182.913H101.893V130.043Z" stroke="#696969" stroke-miterlimit="10" stroke-linecap="round" stroke-linejoin="round"/>
<path d="M91.6536 130.186V182.98" stroke="#696969" stroke-miterlimit="10" stroke-linecap="round" stroke-linejoin="round"/>
<path d="M265.684 182.834H202.743V235.704H265.684V182.834Z" fill="#C6FF00"/>
<mask id="mask4_132_593" style="mask-type:luminance" maskUnits="userSpaceOnUse" x="202" y="182" width="64" height="54">
<path d="M265.684 182.834H202.743V235.704H265.684V182.834Z" fill="white"/>
</mask>
<g mask="url(#mask4_132_593)">
<path opacity="0.6" d="M265.684 182.834H202.743V235.704H265.684V182.834Z" fill="white" stroke="#919191" stroke-miterlimit="10" stroke-linecap="round" stroke-linejoin="round"/>
</g>
<path d="M265.684 182.834H202.743V235.704H265.684V182.834Z" stroke="#919191" stroke-miterlimit="10" stroke-linecap="round" stroke-linejoin="round"/>
<path d="M265.684 182.834H244.77V235.704H265.684V182.834Z" fill="#C6FF00"/>
<mask id="mask5_132_593" style="mask-type:luminance" maskUnits="userSpaceOnUse" x="244" y="182" width="22" height="54">
<path d="M265.684 182.834H244.77V235.704H265.684V182.834Z" fill="white"/>
</mask>
<g mask="url(#mask5_132_593)">
<path opacity="0.39" d="M265.684 182.834H244.77V235.704H265.684V182.834Z" fill="white" stroke="#919191" stroke-miterlimit="10" stroke-linecap="round" stroke-linejoin="round"/>
</g>
<path d="M265.684 182.834H244.77V235.704H265.684V182.834Z" stroke="#919191" stroke-miterlimit="10" stroke-linecap="round" stroke-linejoin="round"/>
<path d="M255.445 182.976V235.771" stroke="#919191" stroke-miterlimit="10" stroke-linecap="round" stroke-linejoin="round"/>
<path d="M265.684 129.908H202.743V182.778H265.684V129.908Z" fill="#C6FF00"/>
<mask id="mask6_132_593" style="mask-type:luminance" maskUnits="userSpaceOnUse" x="202" y="129" width="64" height="54">
<path d="M265.684 129.908H202.743V182.778H265.684V129.908Z" fill="white"/>
</mask>
<g mask="url(#mask6_132_593)">
<path opacity="0.6" d="M265.684 129.908H202.743V182.778H265.684V129.908Z" fill="white" stroke="#919191" stroke-miterlimit="10" stroke-linecap="round" stroke-linejoin="round"/>
</g>
<path d="M265.684 129.908H202.743V182.778H265.684V129.908Z" stroke="#919191" stroke-miterlimit="10" stroke-linecap="round" stroke-linejoin="round"/>
<path d="M265.684 129.908H244.77V182.778H265.684V129.908Z" fill="#C6FF00"/>
<mask id="mask7_132_593" style="mask-type:luminance" maskUnits="userSpaceOnUse" x="244" y="129" width="22" height="54">
<path d="M265.684 129.908H244.77V182.778H265.684V129.908Z" fill="white"/>
</mask>
<g mask="url(#mask7_132_593)">
<path opacity="0.39" d="M265.684 129.908H244.77V182.778H265.684V129.908Z" fill="white" stroke="#919191" stroke-miterlimit="10" stroke-linecap="round" stroke-linejoin="round"/>
</g>
<path d="M265.684 129.908H244.77V182.778H265.684V129.908Z" stroke="#919191" stroke-miterlimit="10" stroke-linecap="round" stroke-linejoin="round"/>
<path d="M255.445 130.051V182.845" stroke="#919191" stroke-miterlimit="10" stroke-linecap="round" stroke-linejoin="round"/>
<path d="M260.153 86.1299H208.089V129.864H260.153V86.1299Z" fill="#C6FF00"/>
<mask id="mask8_132_593" style="mask-type:luminance" maskUnits="userSpaceOnUse" x="208" y="86" width="53" height="44">
<path d="M260.153 86.1299H208.089V129.864H260.153V86.1299Z" fill="white"/>
</mask>
<g mask="url(#mask8_132_593)">
<path opacity="0.6" d="M260.153 86.1299H208.089V129.864H260.153V86.1299Z" fill="white" stroke="#919191" stroke-miterlimit="10" stroke-linecap="round" stroke-linejoin="round"/>
</g>
<path d="M260.153 86.1299H208.089V129.864H260.153V86.1299Z" stroke="#919191" stroke-miterlimit="10" stroke-linecap="round" stroke-linejoin="round"/>
<path d="M260.153 86.1299H242.854V129.864H260.153V86.1299Z" fill="#C6FF00"/>
<mask id="mask9_132_593" style="mask-type:luminance" maskUnits="userSpaceOnUse" x="242" y="86" width="19" height="44">
<path d="M260.153 86.1299H242.854V129.864H260.153V86.1299Z" fill="white"/>
</mask>
<g mask="url(#mask9_132_593)">
<path opacity="0.39" d="M260.153 86.1299H242.854V129.864H260.153V86.1299Z" fill="white" stroke="#919191" stroke-miterlimit="10" stroke-linecap="round" stroke-linejoin="round"/>
</g>
<path d="M260.153 86.1299H242.854V129.864H260.153V86.1299Z" stroke="#919191" stroke-miterlimit="10" stroke-linecap="round" stroke-linejoin="round"/>
<path d="M251.684 86.248V129.92" stroke="#919191" stroke-miterlimit="10" stroke-linecap="round" stroke-linejoin="round"/>
<path d="M253.495 215.831H245.337V220.936H253.495V215.831Z" fill="white" stroke="#263238" stroke-miterlimit="10" stroke-linecap="round" stroke-linejoin="round"/>
<path d="M176.751 235.771C179.474 235.771 181.681 233.564 181.681 230.841C181.681 228.118 179.474 225.911 176.751 225.911C174.028 225.911 171.821 228.118 171.821 230.841C171.821 233.564 174.028 235.771 176.751 235.771Z" fill="#263238" stroke="#263238" stroke-miterlimit="10" stroke-linecap="round" stroke-linejoin="round"/>
<path d="M257.885 149.235H254.971V230.951H257.885V149.235Z" fill="#263238" stroke="#263238" stroke-miterlimit="10" stroke-linecap="round" stroke-linejoin="round"/>
<path d="M256.331 177.819L249.444 172.346C243.471 167.598 240.807 159.746 242.658 152.344C243.206 150.151 245.168 148.619 247.428 148.619H265.234C267.494 148.619 269.456 150.151 270.004 152.344C271.855 159.746 269.191 167.598 263.218 172.346L256.331 177.819ZM247.428 151.405C246.448 151.405 245.598 152.068 245.361 153.019C243.774 159.365 246.057 166.095 251.178 170.165L256.332 174.261L261.485 170.165C266.606 166.095 268.889 159.365 267.302 153.019C267.065 152.069 266.214 151.405 265.235 151.405H247.428Z" fill="#263238"/>
<path d="M239.238 218.384H149.111V228.872H239.238V218.384Z" fill="white"/>
<mask id="mask10_132_593" style="mask-type:luminance" maskUnits="userSpaceOnUse" x="149" y="218" width="91" height="11">
<path d="M239.238 218.384H149.111V228.872H239.238V218.384Z" fill="white"/>
</mask>
<g mask="url(#mask10_132_593)">
<path opacity="0.28" d="M239.238 218.384H149.111V228.872H239.238V218.384Z" fill="black" stroke="#263238" stroke-miterlimit="10" stroke-linecap="round" stroke-linejoin="round"/>
</g>
<path d="M239.238 218.384H149.111V228.872H239.238V218.384Z" stroke="#263238" stroke-miterlimit="10" stroke-linecap="round" stroke-linejoin="round"/>
<path d="M159.212 218.384H149.111V228.872H159.212V218.384Z" stroke="#263238" stroke-miterlimit="10" stroke-linecap="round" stroke-linejoin="round"/>
<path d="M239.238 218.384H229.137V228.872H239.238V218.384Z" stroke="#263238" stroke-miterlimit="10" stroke-linecap="round" stroke-linejoin="round"/>
<path d="M199.225 218.384H189.124V228.872H199.225V218.384Z" stroke="#263238" stroke-miterlimit="10" stroke-linecap="round" stroke-linejoin="round"/>
<path d="M239.238 228.872H245.453L253.223 199.348H247.007L239.238 228.872Z" fill="white" stroke="#263238" stroke-miterlimit="10" stroke-linecap="round" stroke-linejoin="round"/>
<path d="M260.507 211.779H252.349V224.987H260.507V211.779Z" fill="white" stroke="#263238" stroke-miterlimit="10" stroke-linecap="round" stroke-linejoin="round"/>
<path d="M254.429 235.771C253.461 235.771 252.677 234.986 252.677 234.018V227.444C252.677 226.476 253.461 225.691 254.429 225.691C255.398 225.691 256.182 226.476 256.182 227.444V234.018C256.182 234.986 255.398 235.771 254.429 235.771Z" fill="#263238"/>
<path d="M258.593 235.771C257.625 235.771 256.84 234.986 256.84 234.018V227.444C256.84 226.476 257.625 225.691 258.593 225.691C259.561 225.691 260.346 226.476 260.346 227.444V234.018C260.346 234.986 259.561 235.771 258.593 235.771Z" fill="#263238"/>
<path d="M27.8135 235.771H273.617" stroke="#263238" stroke-miterlimit="10" stroke-linecap="round" stroke-linejoin="round"/>
<path d="M112.615 252.934C136.313 252.934 155.524 250.599 155.524 247.718C155.524 244.838 136.313 242.503 112.615 242.503C88.9165 242.503 69.7053 244.838 69.7053 247.718C69.7053 250.599 88.9165 252.934 112.615 252.934Z" fill="#C6FF00"/>
<path opacity="0.5" d="M112.615 252.934C136.313 252.934 155.524 250.599 155.524 247.718C155.524 244.838 136.313 242.503 112.615 242.503C88.9165 242.503 69.7053 244.838 69.7053 247.718C69.7053 250.599 88.9165 252.934 112.615 252.934Z" fill="white"/>
<path d="M201.411 247.718C201.411 249.154 191.835 250.318 180.021 250.318C168.208 250.318 158.631 249.154 158.631 247.718C158.631 246.282 168.208 245.118 180.021 245.118C191.835 245.118 201.411 246.282 201.411 247.718Z" fill="#C6FF00"/>
<path opacity="0.5" d="M201.411 247.718C201.411 249.154 191.835 250.318 180.021 250.318C168.208 250.318 158.631 249.154 158.631 247.718C158.631 246.282 168.208 245.118 180.021 245.118C191.835 245.118 201.411 246.282 201.411 247.718Z" fill="white"/>
<path d="M121.162 75.9043C121.162 75.9043 117.843 73.2966 114.05 74.6004C110.258 75.9043 107.354 82.2452 106.346 87.4005C105.339 92.5565 101.368 96.4673 102.316 102.512C103.264 108.557 110.139 109.505 118.436 110.394C126.732 111.283 131.236 110.276 135.147 104.824C139.059 99.372 137.399 92.7347 135.088 86.8677C132.777 81.0008 128.925 75.549 125.725 74.5416C122.524 73.5342 121.162 75.9043 121.162 75.9043Z" fill="#263238" stroke="#263238" stroke-miterlimit="10" stroke-linecap="round" stroke-linejoin="round"/>
<path d="M107.453 106.932C108.416 107.362 109.192 107.523 109.192 107.523" stroke="white" stroke-miterlimit="10" stroke-linecap="round" stroke-linejoin="round"/>
<path d="M120.344 80.1282C120.344 80.1282 118.647 84.2493 115.253 88.6135C111.859 92.977 104.343 97.0988 103.859 101.705C103.705 103.167 104.186 104.287 104.914 105.135" stroke="white" stroke-miterlimit="10" stroke-linecap="round" stroke-linejoin="round"/>
<path d="M134.129 102.032C133.896 102.577 133.589 103.117 133.193 103.644" stroke="white" stroke-miterlimit="10" stroke-linecap="round" stroke-linejoin="round"/>
<path d="M131.254 90.5527C131.254 90.5527 135.078 94.965 134.707 99.6659" stroke="white" stroke-miterlimit="10" stroke-linecap="round" stroke-linejoin="round"/>
<path d="M119.617 77.704C119.617 77.704 115.01 76.9769 111.616 80.8557C111.483 81.0078 111.356 81.1616 111.235 81.3173" stroke="white" stroke-miterlimit="10" stroke-linecap="round" stroke-linejoin="round"/>
<path d="M97.7058 189.662L96.9663 201.092C96.9663 201.092 93.8062 216.421 92.7976 222.741C91.789 229.061 89.9737 238.676 89.6375 238.676C89.3013 238.676 83.8555 241.97 82.1074 244.66C80.3592 247.349 82.5778 248.492 84.9984 247.618C87.4189 246.744 90.7132 244.323 91.789 241.432C92.8647 238.541 93.4029 237.465 93.47 236.995C93.5371 236.524 105.035 205.663 106.177 202.369C107.32 199.074 109.741 189.392 109.741 189.392L115.389 170.23C115.389 170.23 121.44 189.93 121.507 190.804C121.574 191.678 127.76 242.037 128.028 243.92C128.297 245.802 128.23 247.147 129.373 247.55C130.516 247.953 133.206 247.953 134.618 247.953C136.03 247.953 140.938 248.693 143.358 248.088C145.779 247.482 146.048 247.079 144.367 245.869C142.686 244.658 133.348 243.883 132.466 240.356C132.399 240.086 132.332 188.249 132.332 188.249C132.332 188.249 131.525 171.104 130.18 166.263H99.1178L97.7058 189.662Z" fill="white" stroke="#263238" stroke-miterlimit="10" stroke-linecap="round" stroke-linejoin="round"/>
<path d="M84.9984 247.618C87.4189 246.745 90.7132 244.324 91.789 241.433C91.868 241.22 91.9428 241.021 92.0159 240.828C90.6449 242.29 88.4269 244.324 88.4269 244.324C88.4269 244.324 88.2256 243.181 87.5532 242.441C86.8808 241.702 86.007 241.971 86.007 241.971L88.3574 239.359C86.5541 240.465 83.3684 242.72 82.1074 244.66C80.3592 247.349 82.5778 248.493 84.9984 247.618Z" fill="#263238" stroke="#263238" stroke-miterlimit="10" stroke-linecap="round" stroke-linejoin="round"/>
<path d="M144.367 245.87C143.216 245.042 138.48 244.417 135.321 242.974C135.193 243.089 135.084 243.225 135.021 243.383C134.752 244.055 134.551 245.131 134.551 245.131L128.004 243.735C128.015 243.814 128.024 243.882 128.029 243.921C128.298 245.803 128.23 247.148 129.374 247.551C130.517 247.955 133.206 247.955 134.618 247.955C136.03 247.955 140.938 248.694 143.359 248.089C145.779 247.484 146.047 247.081 144.367 245.87Z" fill="#263238" stroke="#263238" stroke-miterlimit="10" stroke-linecap="round" stroke-linejoin="round"/>
<path d="M106.761 138.425C106.761 138.425 103.679 139.847 99.9459 146.544C95.8675 153.859 96.5678 157.922 96.509 166.752C96.4496 175.582 96.272 190.219 96.272 190.219C96.272 190.219 107.532 193.242 115.651 192.768C123.769 192.294 134.022 190.456 134.022 190.456C134.022 190.456 131.829 160.589 129.755 151.996C127.681 143.403 126.436 139.551 126.436 139.551C126.436 139.551 121.222 140.44 114.347 139.729C107.472 139.018 106.761 138.425 106.761 138.425Z" fill="#263238" stroke="#263238" stroke-miterlimit="10" stroke-linecap="round" stroke-linejoin="round"/>
<path d="M119.743 164.815C120.052 165.832 120.336 166.861 120.587 167.889" stroke="white" stroke-miterlimit="10" stroke-linecap="round" stroke-linejoin="round"/>
<path d="M112.586 148.01C112.586 148.01 116.072 154.225 118.731 161.74" stroke="white" stroke-miterlimit="10" stroke-linecap="round" stroke-linejoin="round"/>
<path d="M182.427 132.725C182.071 132.488 176.236 131.571 176.236 131.571L175.093 131.101C175.093 131.101 182.16 131.666 182.22 131.37C182.279 131.073 182.516 130.718 182.042 130.659C181.568 130.599 172.471 128.748 172.471 128.748C172.471 128.748 174.782 126.562 175.079 126.088C175.375 125.614 175.79 124.666 175.316 124.666C174.842 124.666 174.723 124.962 174.071 125.377C173.419 125.792 170.871 126.799 170.16 127.392C169.449 127.985 167.315 129.525 167.315 129.525L142.618 126.126C142.618 126.126 133.945 115.436 132.062 113.149C130.18 110.864 127.624 109.116 127.624 109.116C125.809 108.309 125.876 109.654 125.876 109.654L129.642 126.53C129.642 126.53 139.458 132.38 140.063 132.38C140.668 132.38 167.196 133.259 167.196 133.259C167.196 133.259 168.974 134.089 170.1 134.8C171.226 135.511 178.337 137.763 178.337 137.763C178.337 137.763 178.811 137.526 178.278 137.111C177.744 136.697 174.307 135.037 174.307 135.037L181.419 136.578C181.419 136.578 181.833 136.282 181.656 135.985C181.478 135.689 175.137 133.259 175.137 133.259L182.249 133.615C182.249 133.614 182.783 132.962 182.427 132.725Z" fill="white" stroke="#263238" stroke-miterlimit="10" stroke-linecap="round" stroke-linejoin="round"/>
<path d="M141.13 124.29C138.566 121.132 133.456 114.84 132.063 113.149C130.181 110.863 127.625 109.115 127.625 109.115C125.81 108.308 125.877 109.653 125.877 109.653L129.642 126.529C129.642 126.529 134.072 129.168 137.164 130.902L141.13 124.29Z" fill="white" stroke="#263238" stroke-miterlimit="10" stroke-linecap="round" stroke-linejoin="round"/>
<path d="M114.88 107.668C114.88 107.668 109.724 107.905 106.583 111.402C103.443 114.898 103.798 122.602 105.102 127.225C106.406 131.847 108.065 134.395 107.709 135.996C107.354 137.596 106.05 138.129 106.761 139.611C107.472 141.092 111.562 142.692 118.792 142.455C126.021 142.218 127.385 140.678 127.444 139.314C127.503 137.951 126.97 136.826 127.147 135.996C127.325 135.166 132.54 130.544 132.54 125.447C132.54 120.351 130.289 118.573 129.755 114.899C129.222 111.225 129.399 110.692 127.207 109.092C125.013 107.491 117.784 106.661 114.88 107.668Z" fill="white" stroke="#263238" stroke-miterlimit="10" stroke-linecap="round" stroke-linejoin="round"/>
<path d="M112.54 125.36C112.54 125.36 109.698 127.776 106.855 128.913" stroke="#263238" stroke-miterlimit="10" stroke-linecap="round" stroke-linejoin="round"/>
<path d="M113.109 125.928C113.109 125.928 111.83 130.05 108.703 132.325" stroke="#263238" stroke-miterlimit="10" stroke-linecap="round" stroke-linejoin="round"/>
<path d="M125.902 111.402L126.495 117.091L124.006 114.187L125.902 111.402Z" fill="white" stroke="#263238" stroke-miterlimit="10" stroke-linecap="round" stroke-linejoin="round"/>
<path d="M122.584 117.565L125.902 111.402L122.88 108.143L122.584 117.565Z" fill="white" stroke="#263238" stroke-miterlimit="10" stroke-linecap="round" stroke-linejoin="round"/>
<path d="M116.183 97.5942C116.183 97.5942 117.073 100.972 116.954 103.876C116.835 106.779 116.539 107.965 116.539 107.965L122.584 117.565L124.302 108.676L125.428 102.513C125.428 102.513 118.554 102.098 116.183 97.5942Z" fill="white" stroke="#263238" stroke-miterlimit="10" stroke-linecap="round" stroke-linejoin="round"/>
<path d="M122.228 112.409L122.584 117.565L120.806 114.78L122.228 112.409Z" fill="white" stroke="#263238" stroke-miterlimit="10" stroke-linecap="round" stroke-linejoin="round"/>
<path d="M114.524 107.728L120.036 117.625L122.228 112.409L116.362 104.35L114.524 107.728Z" fill="white" stroke="#263238" stroke-miterlimit="10" stroke-linecap="round" stroke-linejoin="round"/>
<path d="M211.097 112.342H161.074V153.389H211.097V112.342Z" fill="#C6FF00"/>
<mask id="mask11_132_593" style="mask-type:luminance" maskUnits="userSpaceOnUse" x="161" y="112" width="51" height="42">
<path d="M211.097 112.342H161.074V153.389H211.097V112.342Z" fill="white"/>
</mask>
<g mask="url(#mask11_132_593)">
<path opacity="0.2" d="M211.097 112.342H161.074V153.389H211.097V112.342Z" fill="black"/>
</g>
<path d="M211.097 112.342H161.074V153.389H211.097V112.342Z" stroke="#263238" stroke-miterlimit="10" stroke-linecap="round" stroke-linejoin="round"/>
<path d="M200.508 112.342H150.485V153.389H200.508V112.342Z" fill="#C6FF00" stroke="#263238" stroke-miterlimit="10" stroke-linecap="round" stroke-linejoin="round"/>
<path d="M219.333 167.206C217.731 164.662 211.097 153.389 211.097 153.389H200.508L205.957 167.206H219.333Z" fill="#C6FF00"/>
<mask id="mask12_132_593" style="mask-type:luminance" maskUnits="userSpaceOnUse" x="200" y="153" width="20" height="15">
<path d="M219.333 167.206C217.731 164.662 211.097 153.389 211.097 153.389H200.508L205.957 167.206H219.333Z" fill="white"/>
</mask>
<g mask="url(#mask12_132_593)">
<path opacity="0.2" d="M219.333 167.206C217.731 164.662 211.097 153.389 211.097 153.389H200.508L205.957 167.206H219.333Z" fill="black"/>
</g>
<path d="M219.333 167.206C217.731 164.662 211.097 153.389 211.097 153.389H200.508L205.957 167.206H219.333Z" stroke="#263238" stroke-miterlimit="10" stroke-linecap="round" stroke-linejoin="round"/>
<path d="M142.215 167.206C143.817 164.662 150.451 153.389 150.451 153.389H161.04L155.592 167.206H142.215Z" fill="#C6FF00" stroke="#263238" stroke-miterlimit="10" stroke-linecap="round" stroke-linejoin="round"/>
<path d="M150.451 153.389L145.846 167.206H198.088L200.508 153.389H150.451Z" fill="#C6FF00" stroke="#263238" stroke-miterlimit="10" stroke-linecap="round" stroke-linejoin="round"/>
<path d="M217.534 127.196V140.938" stroke="#263238" stroke-miterlimit="10" stroke-linecap="round" stroke-linejoin="round"/>
<path d="M220.133 133.139V144.281" stroke="#263238" stroke-miterlimit="10" stroke-linecap="round" stroke-linejoin="round"/>
<path d="M145.109 140.938V149.48" stroke="#263238" stroke-miterlimit="10" stroke-linecap="round" stroke-linejoin="round"/>
<path d="M142.881 145.767V152.452" stroke="#263238" stroke-miterlimit="10" stroke-linecap="round" stroke-linejoin="round"/>
<path d="M106.287 122.425C106.287 122.425 108.835 125.447 112.391 127.581C115.946 129.714 129.043 137.121 130.05 137.537C131.058 137.951 162.288 132.855 162.288 132.855C162.288 132.855 164.066 133.685 165.192 134.396C166.319 135.107 173.43 137.358 173.43 137.358C173.43 137.358 173.904 137.121 173.371 136.707C172.837 136.292 169.4 134.633 169.4 134.633L176.512 136.173C176.512 136.173 176.926 135.877 176.749 135.581C176.571 135.284 170.23 132.855 170.23 132.855L177.341 133.21C177.341 133.21 177.875 132.558 177.519 132.321C177.163 132.084 169.874 130.425 169.874 130.425C169.874 130.425 177.637 129.773 177.697 129.477C177.756 129.18 177.993 128.824 177.519 128.766C177.045 128.706 167.326 127.758 167.326 127.758C167.326 127.758 169.874 126.158 170.171 125.684C170.467 125.21 170.882 124.262 170.408 124.262C169.934 124.262 169.815 124.558 169.163 124.973C168.512 125.388 165.963 126.395 165.252 126.988C164.541 127.581 162.407 129.121 162.407 129.121L133.843 129.181L116.124 115.195" fill="white"/>
<path d="M106.287 122.425C106.287 122.425 108.835 125.447 112.391 127.581C115.946 129.714 129.043 137.121 130.05 137.537C131.058 137.951 162.288 132.855 162.288 132.855C162.288 132.855 164.066 133.685 165.192 134.396C166.319 135.107 173.43 137.358 173.43 137.358C173.43 137.358 173.904 137.121 173.371 136.707C172.837 136.292 169.4 134.633 169.4 134.633L176.512 136.173C176.512 136.173 176.926 135.877 176.749 135.581C176.571 135.284 170.23 132.855 170.23 132.855L177.341 133.21C177.341 133.21 177.875 132.558 177.519 132.321C177.163 132.084 169.874 130.425 169.874 130.425C169.874 130.425 177.637 129.773 177.697 129.477C177.756 129.18 177.993 128.824 177.519 128.766C177.045 128.706 167.326 127.758 167.326 127.758C167.326 127.758 169.874 126.158 170.171 125.684C170.467 125.21 170.882 124.262 170.408 124.262C169.934 124.262 169.815 124.558 169.163 124.973C168.512 125.388 165.963 126.395 165.252 126.988C164.541 127.581 162.407 129.121 162.407 129.121L133.843 129.181L116.124 115.195" stroke="#263238" stroke-miterlimit="10" stroke-linecap="round" stroke-linejoin="round"/>
<path d="M177.519 128.766C177.045 128.706 167.326 127.758 167.326 127.758C167.326 127.758 169.874 126.158 170.17 125.684C170.467 125.21 170.881 124.262 170.407 124.262C169.933 124.262 169.814 124.558 169.163 124.973C168.511 125.388 165.963 126.395 165.251 126.988C164.54 127.581 162.407 129.121 162.407 129.121L133.843 129.181L130.662 126.669C129.45 128.753 127.251 132.663 125.806 135.24C128.03 136.48 129.715 137.398 130.051 137.537C131.058 137.951 162.289 132.855 162.289 132.855C162.289 132.855 164.067 133.685 165.193 134.396C166.319 135.107 173.431 137.358 173.431 137.358C173.431 137.358 173.905 137.121 173.371 136.707C172.838 136.292 169.401 134.633 169.401 134.633L176.512 136.173C176.512 136.173 176.927 135.877 176.749 135.581C176.572 135.284 170.231 132.855 170.231 132.855L177.342 133.211C177.342 133.211 177.876 132.558 177.52 132.321C177.164 132.084 169.875 130.425 169.875 130.425C169.875 130.425 177.638 129.774 177.697 129.477C177.756 129.18 177.993 128.825 177.519 128.766Z" fill="white" stroke="#263238" stroke-miterlimit="10" stroke-linecap="round" stroke-linejoin="round"/>
<path d="M129.695 92.6159C129.695 92.4383 130.88 91.8455 131.177 92.9717C131.473 94.0979 130.88 95.994 130.229 96.6462C129.577 97.2984 128.984 97.476 128.984 96.6462C128.984 95.8164 129.695 92.6159 129.695 92.6159Z" fill="white" stroke="#263238" stroke-miterlimit="10" stroke-linecap="round" stroke-linejoin="round"/>
<path d="M122.399 82.231C122.399 82.231 122.283 86.6479 118.912 89.9025C115.541 93.157 112.52 94.6681 112.52 94.6681C112.52 94.6681 112.868 96.5279 113.566 97.1089C114.263 97.6898 115.658 97.574 115.658 97.574C115.658 97.574 116.704 100.829 119.493 103.386C122.283 105.943 125.537 105.711 127.397 101.875C129.257 98.0391 130.186 94.203 129.954 91.9945C129.722 89.786 129.722 89.786 129.722 89.786C129.722 89.786 123.677 86.4151 122.399 82.231Z" fill="white" stroke="#263238" stroke-miterlimit="10" stroke-linecap="round" stroke-linejoin="round"/>
<path d="M122.048 93.7178C122.342 93.7178 122.581 93.2934 122.581 92.7698C122.581 92.2462 122.342 91.8218 122.048 91.8218C121.753 91.8218 121.514 92.2462 121.514 92.7698C121.514 93.2934 121.753 93.7178 122.048 93.7178Z" fill="#263238"/>
<path d="M124.951 101.303C125.246 101.303 125.485 100.879 125.485 100.355C125.485 99.8314 125.246 99.407 124.951 99.407C124.657 99.407 124.418 99.8314 124.418 100.355C124.418 100.879 124.657 101.303 124.951 101.303Z" fill="#263238"/>
<path d="M127.203 93.7178C127.498 93.7178 127.737 93.2934 127.737 92.7698C127.737 92.2462 127.498 91.8218 127.203 91.8218C126.909 91.8218 126.67 92.2462 126.67 92.7698C126.67 93.2934 126.909 93.7178 127.203 93.7178Z" fill="#263238"/>
<path d="M126.137 91.7622C126.137 91.7622 125.781 92.9472 125.959 93.9547C126.137 94.9621 126.967 96.6805 126.256 96.9769C125.545 97.2733 124.596 97.1545 124.241 96.7399" stroke="#263238" stroke-miterlimit="10" stroke-linecap="round" stroke-linejoin="round"/>
<path d="M120.506 91.0572C120.506 91.0572 120.787 89.2348 123.17 89.4451" stroke="#263238" stroke-miterlimit="10" stroke-linecap="round" stroke-linejoin="round"/>
<path d="M126.885 90.0058C126.885 90.0058 129.106 88.2167 129.826 91.4795" stroke="#263238" stroke-miterlimit="10" stroke-linecap="round" stroke-linejoin="round"/>
</svg>
