<svg width="310" height="310" viewBox="0 0 310 310" fill="none" xmlns="http://www.w3.org/2000/svg">
<path d="M282.734 153.141C282.925 144.435 282.246 135.66 281.087 127.35C278.182 106.514 271.846 83.217 255.439 68.82C225.81 42.8184 166.959 35.973 135.265 62.2374C125.249 70.538 116.229 77.4225 103.818 82.114C89.8398 87.3983 74.9939 88.0815 60.9466 92.8369C52.819 95.5885 45.043 99.9322 39.471 106.458C20.1283 129.108 28.8604 168.279 43.4 190.96C53.8637 207.283 70.13 218.357 87.9253 225.398C96.5904 228.827 106.368 232.936 115.767 233.311C127.763 233.79 139.034 228.432 149.933 224.16C184.307 210.686 222.195 230.896 255.472 211.111C275.592 199.148 282.251 175.164 282.734 153.141Z" fill="#C6FF00"/>
<path opacity="0.7" d="M282.734 153.141C282.925 144.435 282.246 135.66 281.087 127.35C278.182 106.514 271.846 83.217 255.439 68.82C225.81 42.8184 166.959 35.973 135.265 62.2374C125.249 70.538 116.229 77.4225 103.818 82.114C89.8398 87.3983 74.9939 88.0815 60.9466 92.8369C52.819 95.5885 45.043 99.9322 39.471 106.458C20.1283 129.108 28.8604 168.279 43.4 190.96C53.8637 207.283 70.13 218.357 87.9253 225.398C96.5904 228.827 106.368 232.936 115.767 233.311C127.763 233.79 139.034 228.432 149.933 224.16C184.307 210.686 222.195 230.896 255.472 211.111C275.592 199.148 282.251 175.164 282.734 153.141Z" fill="white"/>
<path d="M138.26 262.88C159.832 262.88 177.32 257.467 177.32 250.79C177.32 244.113 159.832 238.7 138.26 238.7C116.688 238.7 99.2 244.113 99.2 250.79C99.2 257.467 116.688 262.88 138.26 262.88Z" fill="#C6FF00"/>
<path opacity="0.5" d="M138.26 262.88C159.832 262.88 177.32 257.467 177.32 250.79C177.32 244.113 159.832 238.7 138.26 238.7C116.688 238.7 99.2 244.113 99.2 250.79C99.2 257.467 116.688 262.88 138.26 262.88Z" fill="white"/>
<path d="M213.625 199.136C213.628 199.134 216.526 196.846 217.268 195.377C217.901 194.125 218.36 192.355 217.706 191.021C217.067 189.716 215.466 189.09 214.18 189.89C212.394 191.001 212.202 194.789 212.657 196.61C212.698 196.768 213.595 199.16 213.625 199.136Z" fill="#C6FF00"/>
<path d="M186.812 218.218C186.931 218.327 188.999 219.827 189.011 219.79C189.012 219.788 190.167 216.281 189.976 214.645C189.813 213.252 189.219 211.523 187.939 210.771C186.685 210.035 185.005 210.396 184.374 211.773C183.497 213.684 185.427 216.949 186.812 218.218Z" fill="#C6FF00"/>
<path d="M247.581 202.605C247.581 202.605 236.963 213.565 237.021 227.027C237.079 240.49 247.79 251.357 247.79 251.357C247.79 251.357 258.408 240.398 258.349 226.936C258.292 213.473 247.581 202.605 247.581 202.605Z" fill="#C6FF00"/>
<path d="M232.443 235.09C232.594 234.926 232.725 234.763 232.827 234.609C233.599 233.438 234.258 231.732 233.762 230.333C233.277 228.962 231.759 228.157 230.389 228.804C228.949 229.484 228.241 231.796 228.089 233.687C227.513 233.555 226.995 233.455 226.55 233.38C226.359 232.952 226.168 232.521 225.974 232.085C225.764 231.638 225.618 231.187 225.434 230.732C225.18 230.06 224.951 229.354 224.722 228.649C225.562 228.274 228.007 227.13 228.918 226.123C229.859 225.082 230.768 223.496 230.49 222.038C230.218 220.61 228.84 219.584 227.388 220.016C225.372 220.615 224.188 224.218 224.145 226.095C224.144 226.156 224.176 226.554 224.219 227.025C224.016 226.331 223.811 225.639 223.628 224.928C223.11 222.912 222.645 220.843 222.17 218.771C222.072 218.34 221.966 217.91 221.865 217.479C222.573 217.166 225.234 215.95 226.188 214.895C227.129 213.855 228.038 212.268 227.761 210.81C227.488 209.382 226.11 208.355 224.658 208.788C222.643 209.387 221.458 212.99 221.416 214.867C221.414 214.934 221.454 215.409 221.503 215.94C221.229 214.818 220.942 213.703 220.623 212.606C220.066 210.686 219.414 208.825 218.64 207.072C218.892 206.965 222.039 205.602 223.1 204.429C224.041 203.389 224.95 201.803 224.672 200.344C224.4 198.916 223.022 197.889 221.57 198.321C219.554 198.922 218.369 202.524 218.327 204.401C218.324 204.534 218.48 206.251 218.557 206.862C218.547 206.841 218.541 206.818 218.531 206.798C217.701 204.965 216.682 203.319 215.641 201.804C214.605 200.291 213.499 198.954 212.451 197.752C211.405 196.545 210.374 195.506 209.454 194.594C208.952 194.104 208.484 193.665 208.042 193.26C208.051 193.26 208.087 193.256 208.087 193.256C208.125 193.252 207.105 190.91 207.023 190.77C206.081 189.145 203.307 186.56 201.252 187.006C199.771 187.327 199.058 188.892 199.508 190.274C199.968 191.685 201.53 192.637 202.855 193.095C204.214 193.563 207.182 193.337 207.918 193.272C208.367 193.702 208.843 194.166 209.358 194.691C210.256 195.621 211.261 196.678 212.276 197.902C212.548 198.228 212.826 198.589 213.103 198.933C212.516 198.448 211.702 197.794 211.616 197.74C210.031 196.732 206.377 195.716 204.759 197.059C203.593 198.026 203.681 199.743 204.718 200.762C205.776 201.803 207.6 201.928 208.988 201.724C210.435 201.511 213.022 199.894 213.584 199.535C214.184 200.308 214.783 201.117 215.359 201.997C216.351 203.508 217.33 205.171 218.105 206.988C218.148 207.089 218.18 207.199 218.223 207.301C217.974 207.011 216.498 205.52 216.382 205.427C214.919 204.252 211.398 202.841 209.642 203.998C208.378 204.831 208.276 206.548 209.194 207.674C210.132 208.825 211.931 209.15 213.333 209.099C214.948 209.04 218.13 207.434 218.25 207.374C218.954 209.085 219.546 210.894 220.045 212.767C220.409 214.124 220.721 215.513 221.021 216.91C220.689 216.54 219.316 215.154 219.205 215.066C217.741 213.89 214.221 212.479 212.465 213.637C211.2 214.47 211.099 216.186 212.016 217.313C212.954 218.463 214.754 218.788 216.155 218.737C217.732 218.68 220.788 217.155 221.045 217.026C221.181 217.66 221.319 218.293 221.451 218.93C221.88 221.009 222.301 223.095 222.78 225.14C222.946 225.849 223.135 226.541 223.322 227.236C222.807 226.697 221.851 225.735 221.76 225.662C220.296 224.487 216.776 223.075 215.02 224.232C213.754 225.066 213.653 226.782 214.571 227.908C215.509 229.059 217.309 229.384 218.71 229.333C220.118 229.282 222.715 228.055 223.442 227.699C223.761 228.852 224.103 229.989 224.493 231.092C224.672 231.564 224.824 232.057 225.021 232.501C225.121 232.738 225.218 232.971 225.317 233.206C225.056 233.177 224.911 233.167 224.911 233.167C224.911 233.167 224.883 233.824 224.946 234.893C223.4 233.793 221.173 232.844 219.724 233.51C218.347 234.142 217.987 235.823 218.724 237.076C218.817 237.235 218.926 237.383 219.048 237.522C219.277 239.182 220.227 241.028 221.044 241.971C221.123 242.061 222.174 243.031 222.721 243.514C222.192 243.227 221.666 242.943 221.12 242.635C220.331 242.198 219.512 241.71 218.715 241.243C218.311 240.985 217.903 240.724 217.49 240.462C217.069 240.205 216.699 239.908 216.294 239.631C215.711 239.21 215.131 238.747 214.55 238.287C215.044 237.51 216.452 235.207 216.656 233.865C216.867 232.478 216.751 230.653 215.715 229.59C214.7 228.549 212.984 228.454 212.011 229.615C210.661 231.227 211.66 234.886 212.661 236.475C212.693 236.526 212.939 236.84 213.235 237.21C212.682 236.743 212.129 236.278 211.584 235.786C210.04 234.391 208.51 232.921 206.971 231.455C206.651 231.15 206.326 230.85 206.004 230.545C206.423 229.894 207.971 227.412 208.185 226.006C208.396 224.619 208.279 222.794 207.243 221.731C206.229 220.69 204.512 220.594 203.54 221.755C202.189 223.367 203.189 227.026 204.189 228.615C204.225 228.672 204.52 229.046 204.853 229.462C204.006 228.678 203.152 227.906 202.28 227.167C200.757 225.872 199.186 224.68 197.574 223.645C197.724 223.417 199.598 220.544 199.835 218.98C200.046 217.594 199.929 215.769 198.893 214.705C197.878 213.664 196.163 213.569 195.19 214.73C193.84 216.342 194.839 220.001 195.839 221.59C195.91 221.703 196.988 223.048 197.388 223.516C197.369 223.504 197.35 223.489 197.331 223.477C195.628 222.406 193.87 221.594 192.166 220.905C190.466 220.216 188.807 219.711 187.269 219.285C185.731 218.856 184.298 218.558 183.028 218.305C182.339 218.174 181.706 218.066 181.114 217.972C181.121 217.966 181.149 217.944 181.149 217.944C181.179 217.92 179.035 216.53 178.89 216.457C177.208 215.622 173.468 214.996 172 216.502C170.943 217.586 171.21 219.284 172.349 220.189C173.511 221.113 175.338 221.045 176.696 220.695C178.088 220.337 180.439 218.511 181.016 218.05C181.628 218.161 182.282 218.285 183 218.438C184.262 218.719 185.684 219.047 187.206 219.507C187.612 219.63 188.044 219.776 188.464 219.912C187.708 219.831 186.668 219.734 186.566 219.736C184.689 219.77 181.081 220.938 180.472 222.951C180.033 224.401 181.054 225.784 182.48 226.063C183.937 226.347 185.527 225.444 186.572 224.509C187.662 223.532 188.928 220.757 189.198 220.147C190.125 220.461 191.071 220.805 192.036 221.222C193.697 221.935 195.431 222.782 197.079 223.87C197.171 223.931 197.258 224.004 197.35 224.066C196.983 223.961 194.928 223.532 194.781 223.519C192.911 223.346 189.197 224.111 188.371 226.045C187.776 227.438 188.637 228.925 190.025 229.358C191.442 229.801 193.122 229.079 194.263 228.263C195.578 227.323 197.347 224.228 197.413 224.111C198.944 225.15 200.437 226.332 201.886 227.619C202.937 228.551 203.963 229.536 204.984 230.536C204.504 230.411 202.594 230.013 202.453 230C200.583 229.827 196.869 230.592 196.043 232.526C195.447 233.919 196.309 235.406 197.697 235.839C199.114 236.282 200.794 235.56 201.935 234.744C203.218 233.827 204.926 230.869 205.069 230.62C205.532 231.073 205.997 231.525 206.457 231.984C207.962 233.481 209.464 234.988 210.991 236.43C211.521 236.93 212.061 237.403 212.599 237.879C211.873 237.714 210.545 237.439 210.429 237.428C208.559 237.255 204.844 238.021 204.018 239.954C203.423 241.347 204.284 242.834 205.672 243.268C207.089 243.71 208.769 242.988 209.91 242.173C211.056 241.353 212.545 238.897 212.955 238.2C213.857 238.985 214.77 239.745 215.703 240.449C216.113 240.744 216.511 241.072 216.921 241.333C217.327 241.605 217.73 241.874 218.128 242.14C218.972 242.662 219.755 243.15 220.552 243.616C220.954 243.854 221.338 244.07 221.731 244.297C221.02 244.02 219.887 243.599 219.779 243.571C217.957 243.118 214.169 243.311 213.06 245.097C212.26 246.384 212.887 247.985 214.193 248.623C215.526 249.275 217.296 248.816 218.547 248.183C219.927 247.484 222.003 244.916 222.255 244.599C223.22 245.149 224.165 245.675 225.057 246.151C227.439 247.427 229.52 248.443 231.134 249.202C236.377 253.735 243.757 254.234 243.757 254.234C243.757 254.234 244.147 245.395 238.943 239.577C237.053 237.468 234.69 236.047 232.443 235.09ZM223.079 243.71C223.244 243.348 224.5 240.54 224.587 238.956C224.879 238.902 225.172 238.841 225.455 238.774C225.958 241.206 226.913 244.059 228.711 246.557C227.758 246.105 226.726 245.601 225.63 245.045C224.814 244.633 223.956 244.182 223.079 243.71Z" fill="#C6FF00"/>
<path d="M271.117 233.4C271.117 233.4 262.274 233.671 256.86 239.295C251.447 244.919 251.514 253.767 251.514 253.767C251.514 253.767 260.358 253.496 265.771 247.872C271.184 242.248 271.117 233.4 271.117 233.4Z" fill="#C6FF00"/>
<g opacity="0.5">
<path d="M213.625 199.136C213.628 199.134 216.526 196.846 217.268 195.377C217.901 194.125 218.36 192.355 217.706 191.021C217.067 189.716 215.466 189.09 214.18 189.89C212.394 191.001 212.202 194.789 212.657 196.61C212.698 196.768 213.595 199.16 213.625 199.136Z" fill="white"/>
<path d="M186.812 218.218C186.931 218.327 188.999 219.827 189.011 219.79C189.012 219.788 190.167 216.281 189.976 214.645C189.813 213.252 189.219 211.523 187.939 210.771C186.685 210.035 185.005 210.396 184.374 211.773C183.497 213.684 185.427 216.949 186.812 218.218Z" fill="white"/>
<path d="M247.581 202.605C247.581 202.605 236.963 213.565 237.021 227.027C237.079 240.49 247.79 251.357 247.79 251.357C247.79 251.357 258.408 240.398 258.349 226.936C258.292 213.473 247.581 202.605 247.581 202.605Z" fill="white"/>
<path d="M232.443 235.09C232.594 234.926 232.725 234.763 232.827 234.609C233.599 233.438 234.258 231.732 233.762 230.333C233.277 228.962 231.759 228.157 230.389 228.804C228.949 229.484 228.241 231.796 228.089 233.687C227.513 233.555 226.995 233.455 226.55 233.38C226.359 232.952 226.168 232.521 225.974 232.085C225.764 231.638 225.618 231.187 225.434 230.732C225.18 230.06 224.951 229.354 224.722 228.649C225.562 228.274 228.007 227.13 228.918 226.123C229.859 225.082 230.768 223.496 230.49 222.038C230.218 220.61 228.84 219.584 227.388 220.016C225.372 220.615 224.188 224.218 224.145 226.095C224.144 226.156 224.176 226.554 224.219 227.025C224.016 226.331 223.811 225.639 223.628 224.928C223.11 222.912 222.645 220.843 222.17 218.771C222.072 218.34 221.966 217.91 221.865 217.479C222.573 217.166 225.234 215.95 226.188 214.895C227.129 213.855 228.038 212.268 227.761 210.81C227.488 209.382 226.11 208.355 224.658 208.788C222.643 209.387 221.458 212.99 221.416 214.867C221.414 214.934 221.454 215.409 221.503 215.94C221.229 214.818 220.942 213.703 220.623 212.606C220.066 210.686 219.414 208.825 218.64 207.072C218.892 206.965 222.039 205.602 223.1 204.429C224.041 203.389 224.95 201.803 224.672 200.344C224.4 198.916 223.022 197.889 221.57 198.321C219.554 198.922 218.369 202.524 218.327 204.401C218.324 204.534 218.48 206.251 218.557 206.862C218.547 206.841 218.541 206.818 218.531 206.798C217.701 204.965 216.682 203.319 215.641 201.804C214.605 200.291 213.499 198.954 212.451 197.752C211.405 196.545 210.374 195.506 209.454 194.594C208.952 194.104 208.484 193.665 208.042 193.26C208.051 193.26 208.087 193.256 208.087 193.256C208.125 193.252 207.105 190.91 207.023 190.77C206.081 189.145 203.307 186.56 201.252 187.006C199.771 187.327 199.058 188.892 199.508 190.274C199.968 191.685 201.53 192.637 202.855 193.095C204.214 193.563 207.182 193.337 207.918 193.272C208.367 193.702 208.843 194.166 209.358 194.691C210.256 195.621 211.261 196.678 212.276 197.902C212.548 198.228 212.826 198.589 213.103 198.933C212.516 198.448 211.702 197.794 211.616 197.74C210.031 196.732 206.377 195.716 204.759 197.059C203.593 198.026 203.681 199.743 204.718 200.762C205.776 201.803 207.6 201.928 208.988 201.724C210.435 201.511 213.022 199.894 213.584 199.535C214.184 200.308 214.783 201.117 215.359 201.997C216.351 203.508 217.33 205.171 218.105 206.988C218.148 207.089 218.18 207.199 218.223 207.301C217.974 207.011 216.498 205.52 216.382 205.427C214.919 204.252 211.398 202.841 209.642 203.998C208.378 204.831 208.276 206.548 209.194 207.674C210.132 208.825 211.931 209.15 213.333 209.099C214.948 209.04 218.13 207.434 218.25 207.374C218.954 209.085 219.546 210.894 220.045 212.767C220.409 214.124 220.721 215.513 221.021 216.91C220.689 216.54 219.316 215.154 219.205 215.066C217.741 213.89 214.221 212.479 212.465 213.637C211.2 214.47 211.099 216.186 212.016 217.313C212.954 218.463 214.754 218.788 216.155 218.737C217.732 218.68 220.788 217.155 221.045 217.026C221.181 217.66 221.319 218.293 221.451 218.93C221.88 221.009 222.301 223.095 222.78 225.14C222.946 225.849 223.135 226.541 223.322 227.236C222.807 226.697 221.851 225.735 221.76 225.662C220.296 224.487 216.776 223.075 215.02 224.232C213.754 225.066 213.653 226.782 214.571 227.908C215.509 229.059 217.309 229.384 218.71 229.333C220.118 229.282 222.715 228.055 223.442 227.699C223.761 228.852 224.103 229.989 224.493 231.092C224.672 231.564 224.824 232.057 225.021 232.501C225.121 232.738 225.218 232.971 225.317 233.206C225.056 233.177 224.911 233.167 224.911 233.167C224.911 233.167 224.883 233.824 224.946 234.893C223.4 233.793 221.173 232.844 219.724 233.51C218.347 234.142 217.987 235.823 218.724 237.076C218.817 237.235 218.926 237.383 219.048 237.522C219.277 239.182 220.227 241.028 221.044 241.971C221.123 242.061 222.174 243.031 222.721 243.514C222.192 243.227 221.666 242.943 221.12 242.635C220.331 242.198 219.512 241.71 218.715 241.243C218.311 240.985 217.903 240.724 217.49 240.462C217.069 240.205 216.699 239.908 216.294 239.631C215.711 239.21 215.131 238.747 214.55 238.287C215.044 237.51 216.452 235.207 216.656 233.865C216.867 232.478 216.751 230.653 215.715 229.59C214.7 228.549 212.984 228.454 212.011 229.615C210.661 231.227 211.66 234.886 212.661 236.475C212.693 236.526 212.939 236.84 213.235 237.21C212.682 236.743 212.129 236.278 211.584 235.786C210.04 234.391 208.51 232.921 206.971 231.455C206.651 231.15 206.326 230.85 206.004 230.545C206.423 229.894 207.971 227.412 208.185 226.006C208.396 224.619 208.279 222.794 207.243 221.731C206.229 220.69 204.512 220.594 203.54 221.755C202.189 223.367 203.189 227.026 204.189 228.615C204.225 228.672 204.52 229.046 204.853 229.462C204.006 228.678 203.152 227.906 202.28 227.167C200.757 225.872 199.186 224.68 197.574 223.645C197.724 223.417 199.598 220.544 199.835 218.98C200.046 217.594 199.929 215.769 198.893 214.705C197.878 213.664 196.163 213.569 195.19 214.73C193.84 216.342 194.839 220.001 195.839 221.59C195.91 221.703 196.988 223.048 197.388 223.516C197.369 223.504 197.35 223.489 197.331 223.477C195.628 222.406 193.87 221.594 192.166 220.905C190.466 220.216 188.807 219.711 187.269 219.285C185.731 218.856 184.298 218.558 183.028 218.305C182.339 218.174 181.706 218.066 181.114 217.972C181.121 217.966 181.149 217.944 181.149 217.944C181.179 217.92 179.035 216.53 178.89 216.457C177.208 215.622 173.468 214.996 172 216.502C170.943 217.586 171.21 219.284 172.349 220.189C173.511 221.113 175.338 221.045 176.696 220.695C178.088 220.337 180.439 218.511 181.016 218.05C181.628 218.161 182.282 218.285 183 218.438C184.262 218.719 185.684 219.047 187.206 219.507C187.612 219.63 188.044 219.776 188.464 219.912C187.708 219.831 186.668 219.734 186.566 219.736C184.689 219.77 181.081 220.938 180.472 222.951C180.033 224.401 181.054 225.784 182.48 226.063C183.937 226.347 185.527 225.444 186.572 224.509C187.662 223.532 188.928 220.757 189.198 220.147C190.125 220.461 191.071 220.805 192.036 221.222C193.697 221.935 195.431 222.782 197.079 223.87C197.171 223.931 197.258 224.004 197.35 224.066C196.983 223.961 194.928 223.532 194.781 223.519C192.911 223.346 189.197 224.111 188.371 226.045C187.776 227.438 188.637 228.925 190.025 229.358C191.442 229.801 193.122 229.079 194.263 228.263C195.578 227.323 197.347 224.228 197.413 224.111C198.944 225.15 200.437 226.332 201.886 227.619C202.937 228.551 203.963 229.536 204.984 230.536C204.504 230.411 202.594 230.013 202.453 230C200.583 229.827 196.869 230.592 196.043 232.526C195.447 233.919 196.309 235.406 197.697 235.839C199.114 236.282 200.794 235.56 201.935 234.744C203.218 233.827 204.926 230.869 205.069 230.62C205.532 231.073 205.997 231.525 206.457 231.984C207.962 233.481 209.464 234.988 210.991 236.43C211.521 236.93 212.061 237.403 212.599 237.879C211.873 237.714 210.545 237.439 210.429 237.428C208.559 237.255 204.844 238.021 204.018 239.954C203.423 241.347 204.284 242.834 205.672 243.268C207.089 243.71 208.769 242.988 209.91 242.173C211.056 241.353 212.545 238.897 212.955 238.2C213.857 238.985 214.77 239.745 215.703 240.449C216.113 240.744 216.511 241.072 216.921 241.333C217.327 241.605 217.73 241.874 218.128 242.14C218.972 242.662 219.755 243.15 220.552 243.616C220.954 243.854 221.338 244.07 221.731 244.297C221.02 244.02 219.887 243.599 219.779 243.571C217.957 243.118 214.169 243.311 213.06 245.097C212.26 246.384 212.887 247.985 214.193 248.623C215.526 249.275 217.296 248.816 218.547 248.183C219.927 247.484 222.003 244.916 222.255 244.599C223.22 245.149 224.165 245.675 225.057 246.151C227.439 247.427 229.52 248.443 231.134 249.202C236.377 253.735 243.757 254.234 243.757 254.234C243.757 254.234 244.147 245.395 238.943 239.577C237.053 237.468 234.69 236.047 232.443 235.09ZM223.079 243.71C223.244 243.348 224.5 240.54 224.587 238.956C224.879 238.902 225.172 238.841 225.455 238.774C225.958 241.206 226.913 244.059 228.711 246.557C227.758 246.105 226.726 245.601 225.63 245.045C224.814 244.633 223.956 244.182 223.079 243.71Z" fill="white"/>
<path d="M271.117 233.4C271.117 233.4 262.274 233.671 256.86 239.295C251.447 244.919 251.514 253.767 251.514 253.767C251.514 253.767 260.358 253.496 265.771 247.872C271.184 242.248 271.117 233.4 271.117 233.4Z" fill="white"/>
</g>
<path d="M248.018 239.097L256.704 231.287L256.331 230.873L248.013 238.352L247.969 228.117L248.014 228.148L255.361 217.405L254.901 217.091L247.965 227.233L247.859 202.604L247.302 202.607L247.374 219.323L241.844 214.537L241.48 214.958L247.377 220.062L247.429 232.015L239.047 224.598L238.677 225.015L247.432 232.76L247.479 243.643L241.18 238.7L240.835 239.138L247.482 244.354L247.512 251.359L248.069 251.357L248.016 239.094L248.018 239.097Z" fill="white"/>
<path d="M240.016 242.111L239.462 242.048L238.761 248.233L235.032 244.065L235.039 244.064L234.093 236.578L233.541 236.648L234.386 243.343L225.116 232.979L224.7 233.351L230.99 240.383L227.008 240.431L227.015 240.988L231.484 240.934L235.894 245.865L229.666 245.872L229.668 246.429L236.392 246.421L240.402 250.905L236.01 251.169L236.044 251.725L240.876 251.434L243.547 254.419L243.962 254.048L239.258 248.789L240.016 242.111Z" fill="white"/>
<path d="M261.005 244.317L268.399 242.815L268.288 242.269L261.674 243.612L271.317 233.594L270.916 233.208L264.373 240.005L264.028 236.037L263.473 236.085L263.861 240.538L259.273 245.304L258.801 239.094L258.245 239.136L258.755 245.842L254.583 250.176L253.992 245.815L253.44 245.89L254.091 250.688L251.313 253.573L251.714 253.96L256.606 248.877L263.323 249.134L263.345 248.577L257.124 248.339L261.003 244.309L261.005 244.317Z" fill="white"/>
<path d="M113.412 244.73C113.412 244.73 109.336 249.485 108.827 251.183C108.317 252.881 109.845 254.07 112.733 253.9C115.619 253.731 117.657 249.485 118.507 248.466C119.356 247.447 121.393 246.258 121.733 243.881C122.072 241.504 114.43 242.692 113.412 244.73Z" fill="white" stroke="#263238" stroke-miterlimit="10" stroke-linecap="round" stroke-linejoin="round"/>
<path d="M121.733 243.881C121.767 243.638 121.715 243.434 121.598 243.262C120.85 245.33 119.304 247.298 118.506 247.617C117.657 247.957 116.129 250.844 113.751 252.372C112.13 253.414 109.958 252.561 108.739 251.913C108.816 253.208 110.282 254.045 112.733 253.9C115.62 253.731 117.657 249.485 118.507 248.466C119.355 247.447 121.393 246.258 121.733 243.881Z" fill="#263238" stroke="#263238" stroke-miterlimit="10" stroke-linecap="round" stroke-linejoin="round"/>
<path d="M162.404 244.73C162.404 244.73 166.48 249.485 166.989 251.183C167.499 252.881 165.97 254.07 163.083 253.9C160.196 253.731 158.158 249.485 157.309 248.466C156.46 247.447 154.422 246.258 154.082 243.881C153.743 241.504 161.385 242.692 162.404 244.73Z" fill="white" stroke="#263238" stroke-miterlimit="10" stroke-linecap="round" stroke-linejoin="round"/>
<path d="M154.083 243.881C154.048 243.638 154.101 243.434 154.217 243.262C154.965 245.33 156.512 247.298 157.309 247.617C158.158 247.957 159.687 250.844 162.064 252.372C163.685 253.414 165.858 252.561 167.077 251.913C167 253.208 165.533 254.045 163.082 253.9C160.196 253.731 158.158 249.485 157.308 248.466C156.46 247.447 154.422 246.258 154.083 243.881Z" fill="#263238" stroke="#263238" stroke-miterlimit="10" stroke-linecap="round" stroke-linejoin="round"/>
<path d="M129.239 158.683C129.239 158.683 127.167 172.556 126.997 173.066C126.827 173.575 120.714 204.482 119.525 210.766C118.336 217.049 116.638 223.333 116.468 227.069C116.298 230.805 115.11 240.315 115.11 240.315C115.11 240.315 114.091 241.843 113.921 242.863C113.751 243.881 113.412 244.731 113.412 244.731C113.412 244.731 115.28 245.24 116.978 245.41C118.676 245.58 120.544 244.731 121.224 244.731C121.903 244.731 123.262 239.636 123.771 237.428C124.281 235.221 126.828 224.692 127.337 222.824C127.847 220.956 134.3 195.652 134.3 195.652L140.126 180.317L142.673 179.298L146.527 208.219L152.81 241.165L154.169 245.919C154.169 245.919 156.376 246.599 157.905 246.429C159.433 246.259 162.32 244.561 162.32 244.561C162.32 244.561 162.659 242.353 162.15 241.674C161.64 240.995 160.452 239.127 160.452 239.127C160.452 239.127 159.433 217.559 158.584 212.635C157.734 207.71 156.716 201.596 156.716 201.596C156.716 201.596 155.357 180.029 155.357 174.764C155.357 169.5 152.954 158.838 152.954 158.838C152.954 158.838 140.651 161.792 129.239 158.683Z" fill="#263238" stroke="#263238" stroke-miterlimit="10" stroke-linecap="round" stroke-linejoin="round"/>
<path d="M138.715 161.348L138.885 164.745C138.885 164.745 142.621 165.424 144.659 164.235V161.009L138.715 161.348Z" fill="white" stroke="#263238" stroke-miterlimit="10" stroke-linecap="round" stroke-linejoin="round"/>
<path d="M141.287 167.341L141.077 178.091" stroke="white" stroke-width="0.75" stroke-miterlimit="10" stroke-linecap="round" stroke-linejoin="round"/>
<path d="M141.498 172.4L142.763 171.346L142.974 166.708" stroke="white" stroke-width="0.75" stroke-miterlimit="10" stroke-linecap="round" stroke-linejoin="round"/>
<path d="M131.38 162.702C131.38 162.702 132.434 166.075 130.958 167.34C129.483 168.605 128.218 169.026 128.218 169.026" stroke="white" stroke-width="0.75" stroke-miterlimit="10" stroke-linecap="round" stroke-linejoin="round"/>
<path d="M149.931 162.491C149.931 162.491 150.985 165.864 153.936 166.286" stroke="white" stroke-width="0.75" stroke-miterlimit="10" stroke-linecap="round" stroke-linejoin="round"/>
<path d="M133.269 121.638C133.269 121.638 123.349 119.778 122.109 119.468C120.869 119.158 109.399 109.548 109.399 109.548L101.474 89.605L97.3308 90.7173C97.3308 90.7173 98.0841 102.884 98.5491 106.294C99.0141 109.704 101.649 116.369 101.959 116.989C102.269 117.609 103.819 119.469 104.439 119.624C105.059 119.779 112.344 125.204 114.049 126.134C115.754 127.064 122.574 131.094 122.574 131.094C122.574 131.094 125.984 139.774 126.449 141.479C126.914 143.184 129.084 154.189 129.239 155.429C129.394 156.669 128.619 157.599 129.239 158.684C129.859 159.769 134.354 162.869 140.554 162.869C146.754 162.869 152.334 160.699 152.954 158.839C153.574 156.979 152.644 151.244 152.644 150.779C152.644 150.314 153.264 143.494 153.264 143.494C153.264 143.494 156.519 150.159 157.914 152.329C159.309 154.499 161.479 157.444 163.029 157.444C164.579 157.444 184.264 145.354 184.264 145.354L183.334 141.479C183.334 141.479 178.684 143.649 174.344 144.269C170.004 144.889 164.114 146.439 164.114 146.439C164.114 146.439 158.379 133.884 157.759 131.559C157.139 129.234 156.209 125.049 155.434 124.274C154.659 123.499 144.119 121.949 142.724 121.949C141.329 121.949 133.269 121.638 133.269 121.638Z" fill="white"/>
<mask id="mask0_132_1213" style="mask-type:luminance" maskUnits="userSpaceOnUse" x="97" y="89" width="88" height="74">
<path d="M133.269 121.638C133.269 121.638 123.349 119.778 122.109 119.468C120.869 119.158 109.399 109.548 109.399 109.548L101.474 89.605L97.3308 90.7173C97.3308 90.7173 98.0841 102.884 98.5491 106.294C99.0141 109.704 101.649 116.369 101.959 116.989C102.269 117.609 103.819 119.469 104.439 119.624C105.059 119.779 112.344 125.204 114.049 126.134C115.754 127.064 122.574 131.094 122.574 131.094C122.574 131.094 125.984 139.774 126.449 141.479C126.914 143.184 129.084 154.189 129.239 155.429C129.394 156.669 128.619 157.599 129.239 158.684C129.859 159.769 134.354 162.869 140.554 162.869C146.754 162.869 152.334 160.699 152.954 158.839C153.574 156.979 152.644 151.244 152.644 150.779C152.644 150.314 153.264 143.494 153.264 143.494C153.264 143.494 156.519 150.159 157.914 152.329C159.309 154.499 161.479 157.444 163.029 157.444C164.579 157.444 184.264 145.354 184.264 145.354L183.334 141.479C183.334 141.479 178.684 143.649 174.344 144.269C170.004 144.889 164.114 146.439 164.114 146.439C164.114 146.439 158.379 133.884 157.759 131.559C157.139 129.234 156.209 125.049 155.434 124.274C154.659 123.499 144.119 121.949 142.724 121.949C141.329 121.949 133.269 121.638 133.269 121.638Z" fill="white"/>
</mask>
<g mask="url(#mask0_132_1213)">
<path d="M152.954 158.838C153.574 156.978 152.644 151.243 152.644 150.778C152.644 150.462 152.929 147.22 153.114 145.169L153.029 145.777C153.029 145.777 151.626 152.093 151.626 154.667C151.626 157.24 151.859 160.281 147.649 161.216C143.438 162.152 139.929 157.941 136.186 154.667C132.443 151.392 130.338 147.649 129.87 145.31C129.402 142.97 134.783 148.584 134.783 148.584C134.783 148.584 129.636 141.333 127.999 137.356C126.361 133.38 123.554 124.256 123.554 124.256L123.788 131.274L120.513 126.595C120.513 126.595 119.577 124.256 118.642 122.151C117.706 120.045 116.536 124.256 116.536 124.256C116.536 124.256 110.922 114.197 109.284 112.794C107.647 111.39 110.22 120.981 110.22 120.981C110.22 120.981 106.01 117.707 102.969 114.665C101.465 113.162 100.363 111.717 99.6323 110.639C100.565 113.607 101.757 116.584 101.959 116.989C102.269 117.609 103.819 119.469 104.439 119.624C105.059 119.779 112.344 125.204 114.049 126.134C115.754 127.064 122.574 131.094 122.574 131.094C122.574 131.094 125.984 139.774 126.449 141.479C126.914 143.184 129.084 154.189 129.239 155.429C129.394 156.669 128.619 157.599 129.239 158.684C129.859 159.769 134.354 162.869 140.554 162.869C146.754 162.869 152.334 160.698 152.954 158.838Z" fill="#C6FF00"/>
<path d="M163.79 153.731C161.918 153.263 156.07 144.608 156.07 143.672C156.07 142.737 156.772 138.292 156.772 138.292L154.667 140.631L155.135 136.421L154.199 137.356L153.329 143.624C153.784 144.551 156.633 150.335 157.915 152.329C159.31 154.499 161.48 157.444 163.03 157.444C164.006 157.444 172.174 152.649 178.088 149.098C172.519 151.245 164.952 154.021 163.79 153.731Z" fill="#C6FF00"/>
</g>
<mask id="mask1_132_1213" style="mask-type:luminance" maskUnits="userSpaceOnUse" x="97" y="89" width="88" height="74">
<path d="M133.269 121.638C133.269 121.638 123.349 119.778 122.109 119.468C120.869 119.158 109.399 109.548 109.399 109.548L101.474 89.605L97.3308 90.7173C97.3308 90.7173 98.0841 102.884 98.5491 106.294C99.0141 109.704 101.649 116.369 101.959 116.989C102.269 117.609 103.819 119.469 104.439 119.624C105.059 119.779 112.344 125.204 114.049 126.134C115.754 127.064 122.574 131.094 122.574 131.094C122.574 131.094 125.984 139.774 126.449 141.479C126.914 143.184 129.084 154.189 129.239 155.429C129.394 156.669 128.619 157.599 129.239 158.684C129.859 159.769 134.354 162.869 140.554 162.869C146.754 162.869 152.334 160.699 152.954 158.839C153.574 156.979 152.644 151.244 152.644 150.779C152.644 150.314 153.264 143.494 153.264 143.494C153.264 143.494 156.519 150.159 157.914 152.329C159.309 154.499 161.479 157.444 163.029 157.444C164.579 157.444 184.264 145.354 184.264 145.354L183.334 141.479C183.334 141.479 178.684 143.649 174.344 144.269C170.004 144.889 164.114 146.439 164.114 146.439C164.114 146.439 158.379 133.884 157.759 131.559C157.139 129.234 156.209 125.049 155.434 124.274C154.659 123.499 144.119 121.949 142.724 121.949C141.329 121.949 133.269 121.638 133.269 121.638Z" fill="white"/>
</mask>
<g mask="url(#mask1_132_1213)">
<g opacity="0.5">
<path d="M152.954 158.838C153.574 156.978 152.644 151.243 152.644 150.778C152.644 150.462 152.929 147.22 153.114 145.169L153.029 145.777C153.029 145.777 151.626 152.093 151.626 154.667C151.626 157.24 151.859 160.281 147.649 161.216C143.438 162.152 139.929 157.941 136.186 154.667C132.443 151.392 130.338 147.649 129.87 145.31C129.402 142.97 134.783 148.584 134.783 148.584C134.783 148.584 129.636 141.333 127.999 137.356C126.361 133.38 123.554 124.256 123.554 124.256L123.788 131.274L120.513 126.595C120.513 126.595 119.577 124.256 118.642 122.151C117.706 120.045 116.536 124.256 116.536 124.256C116.536 124.256 110.922 114.197 109.284 112.794C107.647 111.39 110.22 120.981 110.22 120.981C110.22 120.981 106.01 117.707 102.969 114.665C101.465 113.162 100.363 111.717 99.6323 110.639C100.565 113.607 101.757 116.584 101.959 116.989C102.269 117.609 103.819 119.469 104.439 119.624C105.059 119.779 112.344 125.204 114.049 126.134C115.754 127.064 122.574 131.094 122.574 131.094C122.574 131.094 125.984 139.774 126.449 141.479C126.914 143.184 129.084 154.189 129.239 155.429C129.394 156.669 128.619 157.599 129.239 158.684C129.859 159.769 134.354 162.869 140.554 162.869C146.754 162.869 152.334 160.698 152.954 158.838Z" fill="white"/>
<path d="M163.79 153.731C161.918 153.263 156.07 144.608 156.07 143.672C156.07 142.737 156.772 138.292 156.772 138.292L154.667 140.631L155.135 136.421L154.199 137.356L153.329 143.624C153.784 144.551 156.633 150.335 157.915 152.329C159.31 154.499 161.48 157.444 163.03 157.444C164.006 157.444 172.174 152.649 178.088 149.098C172.519 151.245 164.952 154.021 163.79 153.731Z" fill="white"/>
</g>
</g>
<path d="M133.269 121.638C133.269 121.638 123.349 119.778 122.109 119.468C120.869 119.158 109.399 109.548 109.399 109.548L101.474 89.605L97.3308 90.7173C97.3308 90.7173 98.0841 102.884 98.5491 106.294C99.0141 109.704 101.649 116.369 101.959 116.989C102.269 117.609 103.819 119.469 104.439 119.624C105.059 119.779 112.344 125.204 114.049 126.134C115.754 127.064 122.574 131.094 122.574 131.094C122.574 131.094 125.984 139.774 126.449 141.479C126.914 143.184 129.084 154.189 129.239 155.429C129.394 156.669 128.619 157.599 129.239 158.684C129.859 159.769 134.354 162.869 140.554 162.869C146.754 162.869 152.334 160.699 152.954 158.839C153.574 156.979 152.644 151.244 152.644 150.779C152.644 150.314 153.264 143.494 153.264 143.494C153.264 143.494 156.519 150.159 157.914 152.329C159.309 154.499 161.479 157.444 163.029 157.444C164.579 157.444 184.264 145.354 184.264 145.354L183.334 141.479C183.334 141.479 178.684 143.649 174.344 144.269C170.004 144.889 164.114 146.439 164.114 146.439C164.114 146.439 158.379 133.884 157.759 131.559C157.139 129.234 156.209 125.049 155.434 124.274C154.659 123.499 144.119 121.949 142.724 121.949C141.329 121.949 133.269 121.638 133.269 121.638Z" stroke="#263238" stroke-miterlimit="10" stroke-linecap="round" stroke-linejoin="round"/>
<path d="M180.71 142.832L182.187 146.577" stroke="#263238" stroke-miterlimit="10" stroke-linecap="round" stroke-linejoin="round"/>
<path d="M97.5161 93.5315L102.373 92.188" stroke="#263238" stroke-miterlimit="10" stroke-linecap="round" stroke-linejoin="round"/>
<path d="M131.409 147.368C131.409 147.368 139.779 156.978 148.459 159.148" stroke="#263238" stroke-miterlimit="10" stroke-linecap="round" stroke-linejoin="round"/>
<path d="M154.849 133.056L155.124 131.248" stroke="#263238" stroke-miterlimit="10" stroke-linecap="round" stroke-linejoin="round"/>
<path d="M153.264 143.493L154.584 134.807" stroke="#263238" stroke-miterlimit="10" stroke-linecap="round" stroke-linejoin="round"/>
<path d="M153.419 142.098L156.519 135.278" stroke="#263238" stroke-miterlimit="10" stroke-linecap="round" stroke-linejoin="round"/>
<path d="M120.372 120.632L120.094 119.313" stroke="#263238" stroke-miterlimit="10" stroke-linecap="round" stroke-linejoin="round"/>
<path d="M122.574 131.093L120.752 122.437" stroke="#263238" stroke-miterlimit="10" stroke-linecap="round" stroke-linejoin="round"/>
<path d="M116.609 118.045L115.754 116.213" stroke="#263238" stroke-miterlimit="10" stroke-linecap="round" stroke-linejoin="round"/>
<path d="M122.264 130.163L117.309 119.544" stroke="#263238" stroke-miterlimit="10" stroke-linecap="round" stroke-linejoin="round"/>
<path d="M109.089 110.323C109.089 110.323 110.639 116.523 112.654 119.623" stroke="#263238" stroke-miterlimit="10" stroke-linecap="round" stroke-linejoin="round"/>
<path d="M166.284 150.623L164.114 146.438L168.299 149.848" stroke="#263238" stroke-miterlimit="10" stroke-linecap="round" stroke-linejoin="round"/>
<path d="M136.524 127.838L139.469 132.488L139.004 158.683L142.104 163.333L144.739 156.668L140.399 132.023L142.259 128.303L139.779 124.118L136.524 127.838Z" fill="#263238" stroke="#263238" stroke-miterlimit="10" stroke-linecap="round" stroke-linejoin="round"/>
<path d="M135.667 118.913C135.667 118.913 133.706 118.81 133.087 119.635C132.467 120.461 132.261 122.009 132.261 122.009C132.261 122.009 133.19 125.311 133.396 126.55C133.603 127.788 134.325 130.884 134.325 130.884L139.691 127.065L145.78 130.574C145.78 130.574 144.645 123.866 144.232 121.699C143.819 119.532 142.787 119.015 141.033 118.809C139.278 118.602 135.667 118.913 135.667 118.913Z" fill="white" stroke="#263238" stroke-miterlimit="10" stroke-linecap="round" stroke-linejoin="round"/>
<path d="M133.5 114.476C133.5 114.476 134.635 119.945 135.048 120.977C135.461 122.009 138.969 127.066 139.692 127.066C140.414 127.066 142.684 121.493 142.788 120.565C142.891 119.636 142.891 117.469 142.891 117.469C142.891 117.469 139.382 118.398 137.731 117.263C136.08 116.127 134.635 113.341 134.016 113.341C133.396 113.34 133.5 114.476 133.5 114.476Z" fill="white"/>
<mask id="mask2_132_1213" style="mask-type:luminance" maskUnits="userSpaceOnUse" x="133" y="113" width="10" height="15">
<path d="M133.5 114.476C133.5 114.476 134.635 119.945 135.048 120.977C135.461 122.009 138.969 127.066 139.692 127.066C140.414 127.066 142.684 121.493 142.788 120.565C142.891 119.636 142.891 117.469 142.891 117.469C142.891 117.469 139.382 118.398 137.731 117.263C136.08 116.127 134.635 113.341 134.016 113.341C133.396 113.34 133.5 114.476 133.5 114.476Z" fill="white"/>
</mask>
<g mask="url(#mask2_132_1213)">
<path d="M137.731 117.262C136.079 116.127 134.635 113.34 134.016 113.34C133.396 113.34 133.5 114.476 133.5 114.476C133.5 114.476 134.103 117.38 134.59 119.355C135.714 120.345 137.138 121.245 138.759 121.449C140.191 121.629 141.592 121.127 142.802 120.416C142.89 119.424 142.89 117.468 142.89 117.468C142.89 117.468 139.382 118.397 137.731 117.262Z" fill="#C6FF00"/>
</g>
<mask id="mask3_132_1213" style="mask-type:luminance" maskUnits="userSpaceOnUse" x="133" y="113" width="10" height="15">
<path d="M133.5 114.476C133.5 114.476 134.635 119.945 135.048 120.977C135.461 122.009 138.969 127.066 139.692 127.066C140.414 127.066 142.684 121.493 142.788 120.565C142.891 119.636 142.891 117.469 142.891 117.469C142.891 117.469 139.382 118.398 137.731 117.263C136.08 116.127 134.635 113.341 134.016 113.341C133.396 113.34 133.5 114.476 133.5 114.476Z" fill="white"/>
</mask>
<g mask="url(#mask3_132_1213)">
<path opacity="0.5" d="M137.731 117.262C136.079 116.127 134.635 113.34 134.016 113.34C133.396 113.34 133.5 114.476 133.5 114.476C133.5 114.476 134.103 117.38 134.59 119.355C135.714 120.345 137.138 121.245 138.759 121.449C140.191 121.629 141.592 121.127 142.802 120.416C142.89 119.424 142.89 117.468 142.89 117.468C142.89 117.468 139.382 118.397 137.731 117.262Z" fill="white"/>
</g>
<path d="M133.5 114.476C133.5 114.476 134.635 119.945 135.048 120.977C135.461 122.009 138.969 127.066 139.692 127.066C140.414 127.066 142.684 121.493 142.788 120.565C142.891 119.636 142.891 117.469 142.891 117.469C142.891 117.469 139.382 118.398 137.731 117.263C136.08 116.127 134.635 113.341 134.016 113.341C133.396 113.34 133.5 114.476 133.5 114.476Z" stroke="#263238" stroke-miterlimit="10" stroke-linecap="round" stroke-linejoin="round"/>
<path d="M145.78 102.195C145.78 102.195 146.089 107.251 146.399 109.522C146.709 111.792 146.812 114.476 145.677 116.23C144.542 117.984 143.407 119.119 141.033 119.429C138.66 119.738 135.667 118.294 134.738 116.849C133.809 115.404 132.983 113.959 132.983 113.959C132.983 113.959 131.951 113.959 131.022 113.443C130.093 112.927 129.268 110.553 129.578 109.625C129.887 108.696 131.435 108.592 131.435 108.592C131.435 108.592 130.713 105.393 130.3 103.226C129.887 101.059 131.022 98.7889 133.602 97.9631C136.182 97.1372 140 97.2408 141.961 98.2725C143.923 99.3048 145.264 100.44 145.78 102.195Z" fill="white"/>
<mask id="mask4_132_1213" style="mask-type:luminance" maskUnits="userSpaceOnUse" x="129" y="97" width="18" height="23">
<path d="M145.78 102.195C145.78 102.195 146.089 107.251 146.399 109.522C146.709 111.792 146.812 114.476 145.677 116.23C144.542 117.984 143.407 119.119 141.033 119.429C138.66 119.738 135.667 118.294 134.738 116.849C133.809 115.404 132.983 113.959 132.983 113.959C132.983 113.959 131.951 113.959 131.022 113.443C130.093 112.927 129.268 110.553 129.578 109.625C129.887 108.696 131.435 108.592 131.435 108.592C131.435 108.592 130.713 105.393 130.3 103.226C129.887 101.059 131.022 98.7889 133.602 97.9631C136.182 97.1372 140 97.2408 141.961 98.2725C143.923 99.3048 145.264 100.44 145.78 102.195Z" fill="white"/>
</mask>
<g mask="url(#mask4_132_1213)">
<path d="M137.59 102.501C139.038 103.535 141.586 106.573 146.036 105.81C145.887 103.923 145.781 102.195 145.781 102.195C145.265 100.441 143.923 99.3054 141.962 98.2737C140.001 97.242 136.183 97.1385 133.603 97.9643C132.175 98.4212 131.191 99.3221 130.666 100.402L132.364 101.783C132.364 101.782 135.952 101.331 137.59 102.501Z" fill="#C6FF00"/>
</g>
<mask id="mask5_132_1213" style="mask-type:luminance" maskUnits="userSpaceOnUse" x="129" y="97" width="18" height="23">
<path d="M145.78 102.195C145.78 102.195 146.089 107.251 146.399 109.522C146.709 111.792 146.812 114.476 145.677 116.23C144.542 117.984 143.407 119.119 141.033 119.429C138.66 119.738 135.667 118.294 134.738 116.849C133.809 115.404 132.983 113.959 132.983 113.959C132.983 113.959 131.951 113.959 131.022 113.443C130.093 112.927 129.268 110.553 129.578 109.625C129.887 108.696 131.435 108.592 131.435 108.592C131.435 108.592 130.713 105.393 130.3 103.226C129.887 101.059 131.022 98.7889 133.602 97.9631C136.182 97.1372 140 97.2408 141.961 98.2725C143.923 99.3048 145.264 100.44 145.78 102.195Z" fill="white"/>
</mask>
<g mask="url(#mask5_132_1213)">
<path opacity="0.5" d="M137.59 102.501C139.038 103.535 141.586 106.573 146.036 105.81C145.887 103.923 145.781 102.195 145.781 102.195C145.265 100.441 143.923 99.3054 141.962 98.2737C140.001 97.242 136.183 97.1385 133.603 97.9643C132.175 98.4212 131.191 99.3221 130.666 100.402L132.364 101.783C132.364 101.782 135.952 101.331 137.59 102.501Z" fill="white"/>
</g>
<path d="M145.78 102.195C145.78 102.195 146.089 107.251 146.399 109.522C146.709 111.792 146.812 114.476 145.677 116.23C144.542 117.984 143.407 119.119 141.033 119.429C138.66 119.738 135.667 118.294 134.738 116.849C133.809 115.404 132.983 113.959 132.983 113.959C132.983 113.959 131.951 113.959 131.022 113.443C130.093 112.927 129.268 110.553 129.578 109.625C129.887 108.696 131.435 108.592 131.435 108.592C131.435 108.592 130.713 105.393 130.3 103.226C129.887 101.059 131.022 98.7889 133.602 97.9631C136.182 97.1372 140 97.2408 141.961 98.2725C143.923 99.3048 145.264 100.44 145.78 102.195Z" stroke="#263238" stroke-miterlimit="10" stroke-linecap="round" stroke-linejoin="round"/>
<path d="M144.336 104.568C144.336 104.568 143.2 104.361 142.272 105.187C141.343 106.013 142.684 109.935 142.684 110.553C142.684 111.172 140.723 111.689 140.723 111.689" stroke="#263238" stroke-miterlimit="10" stroke-linecap="round" stroke-linejoin="round"/>
<path d="M142.684 114.475C142.684 114.475 139.923 115.092 138.828 113.449" stroke="#263238" stroke-miterlimit="10" stroke-linecap="round" stroke-linejoin="round"/>
<path d="M138.866 105.807C138.866 105.807 136.905 104.465 135.564 106.529" stroke="#263238" stroke-miterlimit="10" stroke-linecap="round" stroke-linejoin="round"/>
<path d="M138.603 108.726C138.661 109.178 138.457 109.578 138.146 109.618C137.835 109.658 137.536 109.324 137.477 108.872C137.419 108.42 137.623 108.021 137.934 107.98C138.245 107.941 138.545 108.274 138.603 108.726Z" fill="#263238"/>
<path d="M144.279 108.108C144.337 108.56 144.133 108.959 143.822 108.999C143.511 109.039 143.212 108.705 143.153 108.253C143.095 107.801 143.299 107.402 143.61 107.362C143.921 107.321 144.221 107.655 144.279 108.108Z" fill="#263238"/>
<path d="M136.389 110.037L137.937 109.935" stroke="#263238" stroke-width="0.5" stroke-miterlimit="10" stroke-linecap="round" stroke-linejoin="round"/>
<path d="M145.471 108.8L143.82 109.315" stroke="#263238" stroke-width="0.5" stroke-miterlimit="10" stroke-linecap="round" stroke-linejoin="round"/>
<path d="M130.816 107.355L132.261 111.792C132.261 111.792 132.983 111.895 133.19 111.276C133.396 110.657 132.054 108.077 132.261 107.768C132.467 107.458 133.912 106.942 133.705 105.807C133.499 104.672 132.364 102.814 132.364 101.782C132.364 100.749 134.428 99.9242 135.563 99.9242C136.698 99.9242 138.349 101.162 139.691 102.298C141.033 103.433 140.826 101.472 140.826 101.472C140.826 101.472 144.851 103.536 147.122 102.916C149.392 102.297 147.018 98.5819 147.018 98.5819C147.018 98.5819 149.701 96.6208 148.566 94.5568C147.431 92.4929 141.445 91.4612 136.595 92.4929C131.745 93.5252 129.99 95.2791 129.577 96.105C129.165 96.9308 129.062 97.756 129.062 97.756C129.062 97.756 126.791 98.9942 126.172 101.368C125.552 103.742 128.029 105.703 129.062 106.012C130.094 106.323 130.816 107.355 130.816 107.355Z" fill="#263238" stroke="#263238" stroke-miterlimit="10" stroke-linecap="round" stroke-linejoin="round"/>
<path d="M143.183 96.8179C140.893 95.8985 137.748 95.0019 135.558 95.8358C131.731 97.2935 132.643 99.2979 132.643 99.2979C132.643 99.2979 137.895 96.7224 140.826 101.472" stroke="white" stroke-width="0.75" stroke-miterlimit="10" stroke-linecap="round" stroke-linejoin="round"/>
<path d="M146.126 98.205C146.126 98.205 145.627 97.921 144.821 97.5378" stroke="white" stroke-width="0.75" stroke-miterlimit="10" stroke-linecap="round" stroke-linejoin="round"/>
<path d="M183.334 141.478C183.334 141.478 184.109 138.378 184.729 137.603C185.349 136.828 186.744 136.363 187.209 135.433C187.674 134.503 188.294 133.263 188.759 133.883C189.224 134.503 189.308 134.971 189.045 135.71C188.781 136.449 188.254 137.029 187.937 137.398C187.62 137.768 187.304 138.242 187.304 138.454C187.304 138.664 187.198 138.823 187.198 138.823L196.431 135.236C196.431 135.236 196.853 135.394 196.958 135.922C197.064 136.449 196.378 136.765 196.062 136.871C195.745 136.977 191.894 138.718 191.894 138.718L192.317 139.403L198.269 138.747C198.668 138.703 199.016 139.016 199.016 139.416C199.016 139.744 198.78 140.025 198.457 140.08L192.58 141.092L192.422 141.777L198.887 142.405C199.216 142.436 199.452 142.737 199.406 143.065C199.364 143.355 199.114 143.568 198.822 143.564L192.369 143.466C193.439 144.092 193.862 144.297 194.954 144.89C196.8 145.892 197.326 146.483 195.948 146.419C195.526 146.4 194.987 146.106 194.583 145.975C193.634 145.666 192.685 145.357 191.736 145.048C191.736 145.048 190.47 145.153 189.415 145.311C188.36 145.47 186.936 145.786 186.355 145.786C185.775 145.786 184.265 145.353 184.265 145.353L183.334 141.478Z" fill="white" stroke="#263238" stroke-miterlimit="10" stroke-linecap="round" stroke-linejoin="round"/>
<path d="M187.198 138.823C187.198 138.823 187.198 140.352 187.198 140.986C187.198 141.619 186.671 142.146 185.668 142.463" stroke="#263238" stroke-miterlimit="10" stroke-linecap="round" stroke-linejoin="round"/>
<path d="M101.154 89.5931C101.154 89.5931 103.456 87.3766 103.819 86.4534C104.182 85.5296 103.89 84.0888 104.465 83.222C105.04 82.3559 105.806 81.2002 105.037 81.1059C104.267 81.0117 103.82 81.1717 103.311 81.7681C102.802 82.3645 102.561 83.111 102.399 83.5698C102.236 84.028 101.982 84.5395 101.799 84.6443C101.616 84.7497 101.531 84.9196 101.531 84.9196L100.043 75.1273C100.043 75.1273 99.6948 74.8402 99.1851 75.0113C98.6749 75.1825 98.7425 75.9351 98.8088 76.2619C98.8752 76.5886 99.2844 80.7953 99.2844 80.7953L98.4796 80.7711L96.0833 75.2829C95.9227 74.9152 95.4788 74.7689 95.131 74.9686C94.847 75.1316 94.7211 75.4763 94.834 75.7839L96.8843 81.3837L96.3685 81.8623L92.6045 76.5694C92.4129 76.2997 92.0347 76.2445 91.7737 76.4485C91.543 76.6283 91.4829 76.9519 91.6323 77.203L94.9313 82.7489C93.8556 82.1333 93.4663 81.8685 92.4086 81.2169C90.6199 80.1152 89.8461 79.954 90.5864 81.1165C90.8133 81.473 91.3366 81.7941 91.6522 82.0787C92.3931 82.7477 93.1333 83.4167 93.8742 84.0857C93.8742 84.0857 94.4136 85.2358 94.8018 86.2296C95.1899 87.2235 95.6251 88.616 95.9147 89.1194C96.2036 89.6229 97.3313 90.7159 97.3313 90.7159L101.154 89.5931Z" fill="white" stroke="#263238" stroke-miterlimit="10" stroke-linecap="round" stroke-linejoin="round"/>
<path d="M101.532 84.9197C101.532 84.9197 100.205 85.6817 99.6563 85.9972C99.1076 86.3128 98.9129 87.0326 99.1373 88.0594" stroke="#263238" stroke-miterlimit="10" stroke-linecap="round" stroke-linejoin="round"/>
<path opacity="0.5" d="M275.893 109.36H166.469V178.649H275.893V109.36Z" fill="white" stroke="#263238" stroke-miterlimit="10"/>
<path d="M200.747 101.307L198.63 95.2356H164.342V101.307V106.084V183.69H278.019V101.307H200.747ZM275.892 178.649H166.469V109.36H275.892V178.649Z" fill="#C6FF00" stroke="#263238" stroke-miterlimit="10"/>
<path d="M255.095 103.601H200.731V106.929H255.095V103.601Z" fill="white" stroke="#263238" stroke-miterlimit="10"/>
<path d="M169.1 103.069L167.531 104.58L169.158 106.322" stroke="#263238" stroke-miterlimit="10" stroke-linecap="round" stroke-linejoin="round"/>
<path d="M167.531 104.58H171.018" stroke="#263238" stroke-miterlimit="10" stroke-linecap="round" stroke-linejoin="round"/>
<path d="M177.989 103.069L179.557 104.58L177.93 106.322" stroke="#263238" stroke-miterlimit="10" stroke-linecap="round" stroke-linejoin="round"/>
<path d="M179.557 104.58H176.072" stroke="#263238" stroke-miterlimit="10" stroke-linecap="round" stroke-linejoin="round"/>
<path d="M187.046 104.376C186.877 103.694 186.185 103.127 185.45 103.127C184.584 103.127 183.881 103.829 183.881 104.696C183.881 105.562 184.584 106.264 185.45 106.264C185.827 106.264 186.173 106.131 186.443 105.91" stroke="#263238" stroke-miterlimit="10" stroke-linecap="round" stroke-linejoin="round"/>
<path d="M185.99 104.552H187.21V103.102" stroke="#263238" stroke-miterlimit="10" stroke-linecap="round" stroke-linejoin="round"/>
<path d="M195.356 104.038L193.909 102.866L192.531 104.038V106.587H195.356V104.038Z" stroke="#263238" stroke-miterlimit="10" stroke-linecap="round" stroke-linejoin="round"/>
<path d="M194.46 104.727H193.357V106.495H194.46V104.727Z" fill="#263238"/>
<path d="M192.531 104.038L191.705 104.796" stroke="#263238" stroke-miterlimit="10" stroke-linecap="round" stroke-linejoin="round"/>
<path d="M195.356 104.038L196.134 104.729" stroke="#263238" stroke-miterlimit="10" stroke-linecap="round" stroke-linejoin="round"/>
<path d="M194.834 98.3784L197.038 100.651" stroke="#263238" stroke-miterlimit="10" stroke-linecap="round" stroke-linejoin="round"/>
<path d="M197.072 98.4131L194.8 100.617" stroke="#263238" stroke-miterlimit="10" stroke-linecap="round" stroke-linejoin="round"/>
<path d="M270.128 104.211H274.489" stroke="#263238" stroke-miterlimit="10" stroke-linecap="round" stroke-linejoin="round"/>
<path d="M270.128 105.193H274.489" stroke="#263238" stroke-miterlimit="10" stroke-linecap="round" stroke-linejoin="round"/>
<path d="M270.128 106.177H274.489" stroke="#263238" stroke-miterlimit="10" stroke-linecap="round" stroke-linejoin="round"/>
<path d="M270.128 107.16H274.489" stroke="#263238" stroke-miterlimit="10" stroke-linecap="round" stroke-linejoin="round"/>
<path opacity="0.5" d="M120.426 57.272H47.498V103.451H120.426V57.272Z" fill="white" stroke="#263238" stroke-miterlimit="10"/>
<path d="M70.3433 51.9045L68.9328 47.8584H46.0808V51.9045V55.0882V106.811H121.844V51.9045H70.3433ZM120.426 103.451H47.4981V57.2719H120.426V103.451Z" fill="#C6FF00" stroke="#263238" stroke-miterlimit="10"/>
<path d="M106.564 53.4329H70.3328V55.6512H106.564V53.4329Z" fill="white" stroke="#263238" stroke-miterlimit="10"/>
<path d="M49.2514 53.0789L48.2061 54.0851L49.2904 55.247" stroke="#263238" stroke-miterlimit="10" stroke-linecap="round" stroke-linejoin="round"/>
<path d="M48.2061 54.0852H50.5292" stroke="#263238" stroke-miterlimit="10" stroke-linecap="round" stroke-linejoin="round"/>
<path d="M55.1756 53.0789L56.2216 54.0851L55.1372 55.247" stroke="#263238" stroke-miterlimit="10" stroke-linecap="round" stroke-linejoin="round"/>
<path d="M56.2216 54.0852H53.8984" stroke="#263238" stroke-miterlimit="10" stroke-linecap="round" stroke-linejoin="round"/>
<path d="M61.2125 53.9501C61.0991 53.4956 60.6384 53.1174 60.1486 53.1174C59.5714 53.1174 59.1033 53.5855 59.1033 54.1628C59.1033 54.74 59.5714 55.2081 60.1486 55.2081C60.3997 55.2081 60.6303 55.1194 60.8108 54.9719" stroke="#263238" stroke-miterlimit="10" stroke-linecap="round" stroke-linejoin="round"/>
<path d="M60.5083 54.0672H61.3217V53.1006" stroke="#263238" stroke-miterlimit="10" stroke-linecap="round" stroke-linejoin="round"/>
<path d="M66.7504 53.7242L65.7863 52.9436L64.8674 53.7242V55.4236H66.7504V53.7242Z" stroke="#263238" stroke-miterlimit="10" stroke-linecap="round" stroke-linejoin="round"/>
<path d="M66.1534 54.1836H65.4187V55.3622H66.1534V54.1836Z" fill="#263238"/>
<path d="M64.8675 53.7241L64.3169 54.2294" stroke="#263238" stroke-miterlimit="10" stroke-linecap="round" stroke-linejoin="round"/>
<path d="M66.7505 53.7241L67.2688 54.1848" stroke="#263238" stroke-miterlimit="10" stroke-linecap="round" stroke-linejoin="round"/>
<path d="M66.4026 49.9526L67.8714 51.4667" stroke="#263238" stroke-miterlimit="10" stroke-linecap="round" stroke-linejoin="round"/>
<path d="M67.8943 49.9756L66.3796 51.4437" stroke="#263238" stroke-miterlimit="10" stroke-linecap="round" stroke-linejoin="round"/>
<path d="M116.584 53.8396H119.49" stroke="#263238" stroke-miterlimit="10" stroke-linecap="round" stroke-linejoin="round"/>
<path d="M116.584 54.4949H119.49" stroke="#263238" stroke-miterlimit="10" stroke-linecap="round" stroke-linejoin="round"/>
<path d="M116.584 55.1504H119.49" stroke="#263238" stroke-miterlimit="10" stroke-linecap="round" stroke-linejoin="round"/>
<path d="M116.584 55.8057H119.49" stroke="#263238" stroke-miterlimit="10" stroke-linecap="round" stroke-linejoin="round"/>
<path d="M116.477 148.608H46.0808V191.272H116.477V148.608Z" fill="#263238" stroke="#263238" stroke-miterlimit="10"/>
<path d="M116.477 184.964H46.0808V191.273H116.477V184.964Z" fill="#C6FF00" stroke="#263238" stroke-miterlimit="10"/>
<path d="M80.3191 179.644C86.4702 179.644 91.4568 174.657 91.4568 168.506C91.4568 162.355 86.4702 157.368 80.3191 157.368C74.1679 157.368 69.1814 162.355 69.1814 168.506C69.1814 174.657 74.1679 179.644 80.3191 179.644Z" fill="white" stroke="#263238" stroke-miterlimit="10"/>
<path d="M88.4033 168.506L76.1658 161.44V175.572L88.4033 168.506Z" fill="#263238" stroke="#263238" stroke-miterlimit="10"/>
<path d="M112.978 186.963H49.5789V188.105H112.978V186.963Z" fill="#263238"/>
<path d="M51.7805 187.513C51.7805 186.952 51.3255 186.497 50.7637 186.497C50.2026 186.497 49.7476 186.952 49.7476 187.513C49.7476 188.074 50.2026 188.529 50.7637 188.529C51.3255 188.529 51.7805 188.074 51.7805 187.513Z" fill="#C6FF00" stroke="#263238" stroke-miterlimit="10"/>
</svg>
