<svg width="266" height="289" viewBox="0 0 266 289" fill="none" xmlns="http://www.w3.org/2000/svg">
<path d="M247.976 179.69C253.299 163.559 254.191 143.065 247.548 127.327C243.153 116.916 235.712 108.98 227.916 102.267C218.267 93.9585 208.561 85.8151 198.953 77.437C175.733 57.1885 148.509 33.52 118.431 40.7028C106.541 43.5419 95.4897 51.4859 87.6139 62.8546C79.277 74.8897 74.2778 90.7119 63.8442 99.9171C54.0602 108.55 42.1481 111.259 33.027 121.461C24.7576 130.71 18.7699 143.136 16.4451 156.646C6.93453 211.906 52.0061 244.071 90.1111 247.282C105.284 248.56 120.768 246.615 135.367 241.309C135.409 241.293 135.451 241.278 135.493 241.262C150.93 235.625 165.754 228.431 181.91 226.57C197.017 224.83 212.975 223.074 226.078 212.703C236.009 204.841 243.589 192.982 247.976 179.69Z" fill="#C6FF00"/>
<path opacity="0.5" d="M247.976 179.69C253.299 163.559 254.191 143.065 247.548 127.327C243.153 116.916 235.712 108.98 227.916 102.267C218.267 93.9585 208.561 85.8151 198.953 77.437C175.733 57.1885 148.509 33.52 118.431 40.7028C106.541 43.5419 95.4897 51.4859 87.6139 62.8546C79.277 74.8897 74.2778 90.7119 63.8442 99.9171C54.0602 108.55 42.1481 111.259 33.027 121.461C24.7576 130.71 18.7699 143.136 16.4451 156.646C6.93453 211.906 52.0061 244.071 90.1111 247.282C105.284 248.56 120.768 246.615 135.367 241.309C135.409 241.293 135.451 241.278 135.493 241.262C150.93 235.625 165.754 228.431 181.91 226.57C197.017 224.83 212.975 223.074 226.078 212.703C236.009 204.841 243.589 192.982 247.976 179.69Z" fill="white"/>
<path d="M234.663 233.799C234.663 233.799 234.535 232.15 235.293 231.403C236.051 230.658 237.48 230.172 238.014 228.785C238.549 227.397 237.647 225.737 239.133 224.126C240.618 222.515 240.71 222.874 241.016 220.138C241.323 217.401 243.018 217.532 243.631 215.992C244.245 214.452 243.352 212.595 245.226 210.415C247.099 208.235 245.974 205.933 246.93 204.804C247.887 203.676 248.768 203.409 249.109 201.501C249.449 199.592 248.233 199.205 249.06 197.104C249.872 195.044 249.165 194.161 248.468 195.145C247.772 196.13 247.121 197.293 245.517 198.052C243.875 198.83 243.508 200.49 243.507 202.102C243.505 203.715 240.7 204.114 240.175 205.304C239.65 206.495 240.092 208.682 238.766 209.987C237.439 211.291 236.158 211.616 236.077 213.381C235.996 215.146 234.05 214.962 233.238 216.885C232.426 218.807 233.333 219.564 232.248 221.118C231.163 222.672 229.076 222.402 228.898 224.712C228.72 227.023 227.852 227.802 226.146 229.48L234.663 233.799Z" fill="#C6FF00"/>
<path d="M246.664 200.527L231.034 232.124" stroke="#263238" stroke-miterlimit="10" stroke-linecap="round" stroke-linejoin="round"/>
<path d="M232.248 225.419L232.879 228.318L235.382 227.632" stroke="#263238" stroke-miterlimit="10" stroke-linecap="round" stroke-linejoin="round"/>
<path d="M235.33 218.431L236.154 221.73L238.871 220.587" stroke="#263238" stroke-miterlimit="10" stroke-linecap="round" stroke-linejoin="round"/>
<path d="M238.135 212.425L239.163 215.875L241.931 214.636" stroke="#263238" stroke-miterlimit="10" stroke-linecap="round" stroke-linejoin="round"/>
<path d="M241.247 206.915L242.133 209.869L244.432 208.672" stroke="#263238" stroke-miterlimit="10" stroke-linecap="round" stroke-linejoin="round"/>
<path opacity="0.2" d="M234.663 233.799C234.663 233.799 234.535 232.15 235.293 231.403C236.051 230.658 237.48 230.172 238.014 228.785C238.549 227.397 237.647 225.737 239.133 224.126C240.618 222.515 240.71 222.874 241.016 220.138C241.323 217.401 243.018 217.532 243.631 215.992C244.245 214.452 243.352 212.595 245.226 210.415C247.099 208.235 245.974 205.933 246.93 204.804C247.887 203.676 248.768 203.409 249.109 201.501C249.449 199.592 248.233 199.205 249.06 197.104C249.872 195.044 249.165 194.161 248.468 195.145C247.772 196.13 247.121 197.293 245.517 198.052C243.875 198.83 243.508 200.49 243.507 202.102C243.505 203.715 240.7 204.114 240.175 205.304C239.65 206.495 240.092 208.682 238.766 209.987C237.439 211.291 236.158 211.616 236.077 213.381C235.996 215.146 234.05 214.962 233.238 216.885C232.426 218.807 233.333 219.564 232.248 221.118C231.163 222.672 229.076 222.402 228.898 224.712C228.72 227.023 227.852 227.802 226.146 229.48L234.663 233.799Z" fill="black"/>
<path d="M40.2694 225.291C40.2694 225.291 37.7882 224.081 37.7116 221.705C37.66 220.1 38.1345 217.585 37.2046 215.66C36.2746 213.736 33.7412 213.296 33.4588 210.014C33.1763 206.732 33.629 206.951 31.1057 204.059C28.5824 201.167 30.279 199.235 29.2655 197.074C28.2521 194.913 25.5256 194.281 25.017 190.005C24.5084 185.729 21.111 184.97 20.836 182.772C20.5609 180.575 21.0988 179.263 19.456 177.092C17.8132 174.921 16.2948 176.036 14.9037 173.098C13.5401 170.218 11.9824 170.26 12.3501 172.011C12.7177 173.761 13.3098 175.62 12.6113 178.26C11.8963 180.964 13.2587 182.938 14.9106 184.425C16.5624 185.913 14.386 189.675 15.1228 191.408C15.8597 193.141 18.5101 194.62 18.625 197.428C18.7399 200.236 17.8914 202.086 19.6268 203.81C21.3621 205.535 19.3804 207.721 20.603 210.475C21.826 213.229 23.4369 212.83 24.0307 215.574C24.6244 218.319 22.424 220.596 24.6286 222.94C26.8332 225.285 26.8322 227.054 26.9801 230.664L40.2694 225.291Z" fill="#C6FF00"/>
<path d="M15.2974 177.522L34.0626 227.622" stroke="#263238" stroke-miterlimit="10" stroke-linecap="round" stroke-linejoin="round"/>
<path d="M28.0596 219.645L31.7665 221.635L33.4397 217.816" stroke="#263238" stroke-miterlimit="10" stroke-linecap="round" stroke-linejoin="round"/>
<path d="M23.5493 209.038L27.8692 211.169L29.2598 206.641" stroke="#263238" stroke-miterlimit="10" stroke-linecap="round" stroke-linejoin="round"/>
<path d="M19.8232 199.724L24.5006 201.743L25.8364 197.058" stroke="#263238" stroke-miterlimit="10" stroke-linecap="round" stroke-linejoin="round"/>
<path d="M16.9229 190.5L20.9331 192.22L21.8625 188.17" stroke="#263238" stroke-miterlimit="10" stroke-linecap="round" stroke-linejoin="round"/>
<path opacity="0.2" d="M40.2694 225.291C40.2694 225.291 37.7882 224.081 37.7116 221.705C37.66 220.1 38.1345 217.585 37.2046 215.66C36.2746 213.736 33.7412 213.296 33.4588 210.014C33.1763 206.732 33.629 206.951 31.1057 204.059C28.5824 201.167 30.279 199.235 29.2655 197.074C28.2521 194.913 25.5256 194.281 25.017 190.005C24.5084 185.729 21.111 184.97 20.836 182.772C20.5609 180.575 21.0988 179.263 19.456 177.092C17.8132 174.921 16.2948 176.036 14.9037 173.098C13.5401 170.218 11.9824 170.26 12.3501 172.011C12.7177 173.761 13.3098 175.62 12.6113 178.26C11.8963 180.964 13.2587 182.938 14.9106 184.425C16.5624 185.913 14.386 189.675 15.1228 191.408C15.8597 193.141 18.5101 194.62 18.625 197.428C18.7399 200.236 17.8914 202.086 19.6268 203.81C21.3621 205.535 19.3804 207.721 20.603 210.475C21.826 213.229 23.4369 212.83 24.0307 215.574C24.6244 218.319 22.424 220.596 24.6286 222.94C26.8332 225.285 26.8322 227.054 26.9801 230.664L40.2694 225.291Z" fill="black"/>
<path d="M225.662 220.532C225.662 220.532 224.985 218.864 225.741 217.988C226.498 217.112 227.993 216.082 228.456 214.536C228.919 212.99 227.812 211.285 229.282 209.407C230.753 207.527 230.881 207.905 230.988 204.926C231.096 201.947 232.934 201.926 233.47 200.207C234.006 198.488 232.893 196.572 234.735 194.042C236.577 191.512 235.177 189.139 236.116 187.831C237.056 186.523 237.984 186.151 238.196 184.061C238.408 181.971 237.065 181.669 237.786 179.326C238.494 177.028 237.659 176.143 236.988 177.272C236.317 178.401 235.71 179.716 234.044 180.689C232.337 181.686 232.076 183.509 232.206 185.248C232.336 186.986 229.344 187.685 228.875 189.019C228.405 190.353 229.061 192.668 227.737 194.202C226.413 195.736 225.058 196.208 225.114 198.119C225.17 200.03 223.057 200.019 222.338 202.169C221.62 204.32 222.658 205.048 221.615 206.827C220.573 208.607 218.301 208.516 218.297 211.024C218.293 213.532 217.42 214.455 215.718 216.427L225.662 220.532Z" fill="#C6FF00"/>
<path opacity="0.2" d="M225.662 220.532C225.662 220.532 224.985 218.864 225.741 217.988C226.498 217.112 227.993 216.082 228.456 214.536C228.919 212.99 227.812 211.285 229.282 209.407C230.753 207.527 230.881 207.905 230.988 204.926C231.096 201.947 232.934 201.926 233.47 200.207C234.006 198.488 232.893 196.572 234.735 194.042C236.577 191.512 235.177 189.139 236.116 187.831C237.056 186.523 237.984 186.151 238.196 184.061C238.408 181.971 237.065 181.669 237.786 179.326C238.494 177.028 237.659 176.143 236.988 177.272C236.317 178.401 235.71 179.716 234.044 180.689C232.337 181.686 232.076 183.509 232.206 185.248C232.336 186.986 229.344 187.685 228.875 189.019C228.405 190.353 229.061 192.668 227.737 194.202C226.413 195.736 225.058 196.208 225.114 198.119C225.17 200.03 223.057 200.019 222.338 202.169C221.62 204.32 222.658 205.048 221.615 206.827C220.573 208.607 218.301 208.516 218.297 211.024C218.293 213.532 217.42 214.455 215.718 216.427L225.662 220.532Z" fill="black"/>
<path d="M235.908 181.602L221.014 218.694" stroke="#263238" stroke-miterlimit="10" stroke-linecap="round" stroke-linejoin="round"/>
<path d="M221.81 211.033L222.766 214.23L225.522 213.208" stroke="#263238" stroke-miterlimit="10" stroke-linecap="round" stroke-linejoin="round"/>
<path d="M224.682 202.868L225.888 206.495L228.847 204.939" stroke="#263238" stroke-miterlimit="10" stroke-linecap="round" stroke-linejoin="round"/>
<path d="M227.327 195.834L228.775 199.611L231.783 197.94" stroke="#263238" stroke-miterlimit="10" stroke-linecap="round" stroke-linejoin="round"/>
<path d="M230.359 189.327L231.606 192.56L234.088 190.985" stroke="#263238" stroke-miterlimit="10" stroke-linecap="round" stroke-linejoin="round"/>
<path d="M112.665 91.431L189.058 91.2773C189.058 91.2773 187.924 85.5799 184.097 85.4256C180.271 85.2719 180.554 83.2697 180.554 80.1901C180.554 77.1105 176.869 74.1847 175.168 74.4928C175.168 74.4928 172.907 63.2339 164.262 63.2339C155.616 63.2339 152.775 66.7938 151.782 71.875C150.79 76.9568 147.956 77.8804 146.113 76.9568C144.271 76.0331 140.728 76.0331 139.877 80.4982C139.027 84.9638 137.468 86.0418 134.633 84.502C131.799 82.9622 127.405 82.5004 125.563 85.7337C123.721 88.967 121.028 88.3515 119.043 87.5816C117.059 86.8117 112.949 89.4294 112.665 91.431Z" fill="white"/>
<path d="M82.5574 114.372H22.02C22.02 114.372 22.8712 111.668 25.6605 111.995C25.6605 111.995 23.474 104.541 29.8585 102.572C33.134 101.562 37.2251 106.368 39.6803 105.342C42.136 104.317 44.6657 97.3701 49.6909 98.8781C52.9095 99.8439 53.9411 103.803 56.491 103.803C59.0408 103.803 61.213 101.957 62.8186 104.727C64.4241 107.497 65.5573 107.497 69.8075 107.497C74.0576 107.497 74.813 112.012 74.813 112.012C74.813 112.012 80.6682 110.062 82.5574 114.372Z" fill="white"/>
<path d="M204.938 120.079H253.704C253.704 120.079 253.019 117.901 250.771 118.164C250.771 118.164 252.533 112.159 247.39 110.573C244.751 109.759 241.455 113.631 239.477 112.805C237.499 111.978 235.461 106.383 231.412 107.598C228.82 108.376 227.989 111.565 225.935 111.565C223.881 111.565 222.131 110.077 220.838 112.309C219.545 114.541 218.632 114.541 215.208 114.541C211.785 114.541 211.176 118.177 211.176 118.177C211.176 118.177 206.459 116.608 204.938 120.079Z" fill="white"/>
<path d="M162.844 152.2L163.308 155.643L220.323 155.139L219.795 151.178L219.259 151.038L215.326 134.117C215.326 134.117 216.257 134.061 216.257 132.472C216.257 130.883 213.947 131.008 213.947 131.008L161.911 130.59L149.787 118.296L147.786 117.626L102.485 117.334L99.8674 118.421L47.0228 147.902C47.0228 147.902 45.4741 148.961 44.9975 151.463C44.5208 153.965 43.4046 169.019 43.4046 169.019L41.2495 189.676L41.3266 192.06L45.3917 217.757L49.3987 216.179C49.3987 216.179 50.3329 198.408 58.6544 192.731C66.9754 187.054 75.4901 189.577 82.1991 205.977L128.514 183.34C128.514 183.34 125.482 164.417 133.288 155.166C141.093 145.916 151.355 151.165 154.319 153.691L162.844 152.2Z" fill="#C6FF00"/>
<path opacity="0.3" d="M115.207 143.751L102.486 117.335L47.2861 147.829C47.2861 147.829 45.3038 148.642 44.9288 152.718C44.5537 156.794 41.1074 190.22 41.1074 190.22L45.2677 217.849L49.4316 216.394C49.4316 216.394 51.1925 194.144 62.879 190.617C74.5654 187.09 82.297 206.197 82.297 206.197L128.624 183.025C128.624 183.025 126.335 170.516 130.712 160.054C135.089 149.593 146.718 148.234 153.471 153.668L162.198 152.301L157.424 130.479L115.207 143.751Z" fill="black"/>
<path d="M207.817 157.988C207.817 157.988 215.696 157.681 220.589 167.902C224.163 175.366 224.846 185.272 221.367 193.005C217.468 201.671 207.333 205.736 198.977 203.187C188.58 200.016 185.081 184.125 186.316 173.917L207.817 157.988Z" fill="#263238" stroke="#263238" stroke-miterlimit="10"/>
<path opacity="0.3" d="M207.809 157.963C207.809 157.963 215.688 157.656 220.581 167.877C224.155 175.342 224.838 185.247 221.359 192.98C217.461 201.646 207.325 205.711 198.97 203.162C188.572 199.991 185.073 184.1 186.309 173.892L207.809 157.963Z" fill="white" stroke="#263238" stroke-miterlimit="10"/>
<path d="M136.398 180.304C136.398 180.304 142.951 180.048 147.02 188.548C149.993 194.756 150.561 202.994 147.668 209.425C144.425 216.632 135.996 220.013 129.047 217.893C120.4 215.256 117.49 202.04 118.518 193.551L136.398 180.304Z" fill="#263238"/>
<path opacity="0.3" d="M136.391 180.283C136.391 180.283 142.945 180.027 147.014 188.527C149.986 194.735 150.554 202.973 147.661 209.404C145.924 213.267 142.696 216.03 139.005 217.437C135.809 218.656 132.265 218.856 129.041 217.872C120.394 215.234 117.484 202.019 118.511 193.53L136.391 180.283Z" fill="#263238"/>
<path d="M49.4673 216.293C49.829 211.027 51.8613 193.837 62.879 190.618C75.929 186.809 82.297 206.195 82.297 206.195L128.507 183.595C128.507 183.595 125.325 163.088 134.332 154.291C143.339 145.488 154.319 153.695 154.319 153.695L162.198 152.302" stroke="#263238" stroke-miterlimit="10" stroke-linecap="round" stroke-linejoin="round"/>
<path d="M155.293 202.282C149.866 201.733 144.551 201.386 139.359 201.224C139.279 201.224 139.2 201.219 139.12 201.219C135.646 197.531 132.975 191.809 132.018 185.104C130.214 172.504 135.124 161.215 142.987 159.886C150.845 158.556 158.681 167.695 160.485 180.289C161.789 189.393 159.586 197.814 155.293 202.282Z" fill="#263238"/>
<path d="M210.844 192.586C207.902 198.62 203.323 200.456 199.498 200.121C194.593 199.693 189.245 195.056 187.777 189.957C186.048 183.958 185.973 177.1 185.973 177.1L168.783 185.592C167.302 168.238 160.508 161.807 156.923 159.591C155.754 158.869 154.41 158.554 153.067 158.643C143.299 159.289 134.307 159.686 132.024 175.408C130.39 188 136.12 197.511 139.36 201.221C117.335 200.528 97.5448 203.054 80.7602 206.851C75.3976 194.673 68.0374 190.281 61.5736 193.413C53.4872 197.332 52.2631 215.847 52.2631 215.847L49.3174 216.166C50.251 204.757 54.1549 192.291 64.8534 190.175C75.5519 188.054 82.2977 206.197 82.2977 206.197L128.624 183.025C127.592 177.598 126.119 160.836 135.764 152.652C143.377 146.195 154.32 153.692 154.32 153.692L162.363 151.738L163.309 155.643L219.266 155.357L205.62 165.343C210.796 169.321 216.638 180.691 210.844 192.586Z" fill="#263238"/>
<path d="M42.705 174.385L41.108 190.22L44.2026 210.936C44.2026 210.936 36.3162 204.103 35.6177 192.932C34.9181 181.761 42.705 174.385 42.705 174.385Z" fill="#263238"/>
<path d="M45.3813 217.9L41.3115 190.335L44.9983 151.464C45.1472 149.909 46.0091 148.54 47.2859 147.829L102.029 117.339L147.078 117.576C148.291 117.582 149.462 118.091 150.345 118.998L161.469 130.408" stroke="#263238" stroke-miterlimit="10" stroke-linecap="round" stroke-linejoin="round"/>
<path d="M68.5147 177.143L41.313 190.332" stroke="#263238" stroke-miterlimit="10" stroke-linecap="round" stroke-linejoin="round"/>
<path d="M74.9179 174.038L70.4326 176.213" stroke="#263238" stroke-miterlimit="10" stroke-linecap="round" stroke-linejoin="round"/>
<path d="M85.3295 168.823L80.8442 170.998" stroke="#263238" stroke-miterlimit="10" stroke-linecap="round" stroke-linejoin="round"/>
<path d="M102.096 117.374L115.111 143.493L120.867 178.618L89.4395 193.866" stroke="#263238" stroke-miterlimit="10" stroke-linecap="round" stroke-linejoin="round"/>
<path d="M74.3115 133.034L78.1951 172.545L86.1927 186.523" stroke="#263238" stroke-miterlimit="10" stroke-linecap="round" stroke-linejoin="round"/>
<path d="M162.098 133.491L214.835 134.113C215.153 134.116 215.461 133.998 215.708 133.779C216.304 133.249 216.375 132.286 215.864 131.659L215.736 131.501C215.481 131.187 215.115 131.007 214.729 131.003L157.424 130.48C157.281 130.479 156.79 130.503 156.654 130.55L118.427 142.463" stroke="#263238" stroke-miterlimit="10" stroke-linecap="round" stroke-linejoin="round"/>
<path d="M162.485 151.954L163.231 155.432L220.323 155.14L219.796 151.178L162.485 151.954Z" stroke="#263238" stroke-miterlimit="10" stroke-linecap="round" stroke-linejoin="round"/>
<path d="M167.657 151.665L163.696 133.313" stroke="#263238" stroke-miterlimit="10"/>
<path d="M166.066 151.787L162.063 133.446" stroke="#263238" stroke-miterlimit="10"/>
<path d="M219.03 151.01L215.327 134.118" stroke="#263238" stroke-miterlimit="10"/>
<path d="M213.846 133.976L217.739 151.128" stroke="#263238" stroke-miterlimit="10"/>
<path opacity="0.3" d="M175.587 133.759L179.452 151.695L167.657 151.665L163.786 133.725L175.587 133.759Z" fill="black"/>
<path d="M175.443 142.2C176.078 144.99 175.069 147.662 173.187 148.168C171.306 148.674 169.266 146.821 168.631 144.031C167.996 141.24 169.005 138.568 170.887 138.062C172.767 137.556 174.807 139.408 175.443 142.2Z" fill="#263238"/>
<path opacity="0.3" d="M204.013 134.022L208.286 151.23H217.563L213.943 134.33L204.013 134.022Z" fill="black"/>
<path d="M213.424 141.905C213.966 144.286 213.104 146.566 211.499 146.997C209.893 147.429 208.153 145.848 207.61 143.467C207.068 141.086 207.93 138.805 209.535 138.374C211.14 137.942 212.881 139.523 213.424 141.905Z" fill="#263238"/>
<path opacity="0.2" d="M174.808 142.37C175.325 144.64 174.504 146.815 172.973 147.226C171.442 147.638 169.782 146.13 169.265 143.86C168.748 141.59 169.57 139.415 171.1 139.004C172.632 138.592 174.291 140.1 174.808 142.37Z" fill="white"/>
<path opacity="0.2" d="M213.036 142.009C213.506 144.073 212.759 146.05 211.368 146.424C209.976 146.798 208.467 145.428 207.998 143.364C207.527 141.3 208.275 139.323 209.666 138.949C211.057 138.574 212.566 139.944 213.036 142.009Z" fill="white"/>
<path d="M177.466 133.725L178.486 138.484L203.089 138.889L201.868 134.02L204.013 134.022L208.286 151.23L206.044 151.263L204.094 143.47L179.452 143.646L181.165 151.628L179.452 151.695L175.587 133.759L177.466 133.725Z" stroke="#263238" stroke-miterlimit="10" stroke-linecap="round" stroke-linejoin="round"/>
<path d="M71.5027 145.188L71.5532 165.632L47.7271 178.425L48.4256 156.403C48.4719 154.947 49.2353 153.63 50.4243 152.955L68.075 142.939C69.6327 142.056 71.4979 143.28 71.5027 145.188Z" fill="#263238"/>
<path d="M111.901 143.974L80.85 160.521L78.1783 139.807C77.957 138.09 78.7661 136.411 80.1908 135.631L98.6177 125.541C100.418 124.555 102.613 125.304 103.572 127.231L111.901 143.974Z" fill="#263238"/>
<path d="M159.211 130.457L157.076 130.481L118.413 142.584L109.573 125.28C109.328 124.806 109.222 124.303 109.227 123.812C109.243 122.622 109.935 121.523 110.988 121.107C111.265 120.992 111.568 120.928 111.893 120.922L147.898 120.483C147.941 120.483 147.978 120.483 148.021 120.489C148.643 120.506 149.239 120.76 149.707 121.211C149.712 121.211 149.718 121.217 149.723 121.223L159.211 130.457Z" fill="#263238"/>
<path d="M159.477 130.501L156.922 130.318L154.582 131.185C140.292 117.445 124.412 122.679 124.412 122.679L127.389 128.923C118.973 121.006 110.798 122.82 109.292 123.653C109.308 122.462 110 121.364 111.053 120.948L148.086 120.329L149.012 120.312L149.772 121.052C149.778 121.052 149.783 121.057 149.788 121.063L159.477 130.501Z" fill="white"/>
<path opacity="0.2" d="M159.211 130.457L157.076 130.481L118.413 142.584L109.573 125.28C109.328 124.806 109.222 124.303 109.227 123.812C109.243 122.622 109.935 121.523 110.988 121.107C111.265 120.992 111.568 120.928 111.893 120.922L147.898 120.483C147.941 120.483 147.978 120.483 148.021 120.489C148.643 120.506 149.239 120.76 149.707 121.211C149.712 121.211 149.718 121.217 149.723 121.223L159.211 130.457Z" fill="white"/>
<path d="M159.211 130.457L157.076 130.481L118.413 142.584L109.573 125.28C109.328 124.806 109.222 124.303 109.227 123.812C109.243 122.622 109.935 121.523 110.988 121.107C111.265 120.992 111.568 120.928 111.893 120.922L147.898 120.483C147.941 120.483 147.978 120.483 148.021 120.489C148.643 120.506 149.239 120.76 149.707 121.211C149.712 121.211 149.718 121.217 149.723 121.223L159.211 130.457Z" stroke="#263238" stroke-miterlimit="10" stroke-linecap="round" stroke-linejoin="round"/>
<path opacity="0.33" d="M157.506 170.156L164.508 167.619C164.508 167.619 168.353 175.081 168.352 185.484L160.961 186.63C160.961 186.63 160.706 177.887 157.506 170.156Z" fill="black"/>
<path opacity="0.33" d="M209.815 170.21L219.754 166.296C219.754 166.296 226.146 176.375 222.726 188.323L211.875 190.142C211.875 190.142 215.719 179.88 209.815 170.21Z" fill="black"/>
<path opacity="0.3" d="M58.6888 141.576C58.6888 141.576 49.1671 147.341 47.0481 150.029C44.9291 152.718 42.6304 175.125 42.6304 175.125C42.6304 175.125 44.0364 151.311 45.8963 149.083C47.7567 146.855 58.6888 141.576 58.6888 141.576Z" fill="black"/>
<path opacity="0.3" d="M120.174 174.385L83.6694 192.661C83.6694 192.661 74.8143 182.653 62.731 188.17C62.731 188.17 76.1033 185.312 83.0874 197.058L120.868 178.618L120.174 174.385Z" fill="black"/>
<path opacity="0.3" d="M41.8598 187.276L84.3262 166.518L89.4398 167.027L41.688 189.901L41.8598 187.276Z" fill="black"/>
<path opacity="0.3" d="M201.868 134.02L203.089 138.889L178.486 138.484L177.466 133.726L201.868 134.02Z" fill="black"/>
<path opacity="0.3" d="M204.093 143.471L206.044 151.263L181.165 151.629L179.452 143.646L204.093 143.471Z" fill="black"/>
<path d="M148.738 205.15C148.58 205.091 148.918 200.375 148.86 200.083C148.345 197.493 147.831 194.903 147.317 192.313C146.691 189.163 146.065 186.011 145.44 182.861C144.812 179.697 144.184 176.534 143.555 173.371C143.034 170.743 142.512 168.115 141.99 165.488C141.684 163.945 141.377 162.401 141.071 160.858C141.032 160.663 140.993 160.469 140.955 160.273L153.835 158.111C153.835 158.111 164.454 159.903 167.566 177.07C169.151 185.844 168.433 191.462 167.417 194.791C166.917 196.431 166.434 198.097 165.344 199.403C162.274 203.083 158.549 204.094 152.993 204.715C151.903 204.836 149.837 205.118 148.738 205.15Z" fill="#263238" stroke="#263238" stroke-miterlimit="10"/>
<path opacity="0.3" d="M157.506 203.939C155.372 204.59 149.956 205.026 149.834 205.006C149.832 205.006 149.836 205.002 149.836 204.999C148.214 196.831 146.714 189.276 145.092 181.107C144.281 177.021 143.47 172.937 142.659 168.851C142.254 166.809 141.849 164.766 141.443 162.724C141.346 162.234 141.248 161.744 141.151 161.253C141.021 160.599 140.807 160.395 141.411 160.209C142.49 159.877 143.739 159.869 144.793 159.609C146.365 159.325 147.93 159.042 149.502 158.758C151.05 158.655 152.676 158.093 154.275 158.306C155.282 158.44 156.236 158.877 157.128 159.404C160.377 161.322 162.937 164.455 164.687 167.994C166.857 172.382 167.843 177.384 168.318 182.3C168.685 186.088 168.528 189.925 167.73 193.634C167.248 195.873 166.391 198.568 164.624 200.132C162.281 202.206 160.672 202.973 157.506 203.939Z" fill="white" stroke="#263238" stroke-miterlimit="10"/>
<path d="M155.293 202.282C151.567 206.164 143.919 206.445 139.359 201.224C139.304 201.161 132.975 191.809 132.018 185.104C130.214 172.504 135.124 161.215 142.987 159.886C150.845 158.556 158.681 167.695 160.485 180.289C161.789 189.393 159.586 197.814 155.293 202.282Z" fill="#263238" stroke="#263238" stroke-miterlimit="10"/>
<path opacity="0.1" d="M155.395 202.338C149.772 208.207 140.749 203.828 139.12 201.219C135.646 197.531 133.078 191.864 132.12 185.159C130.317 172.559 135.227 161.271 143.09 159.941C150.948 158.612 158.784 167.75 160.587 180.345C161.891 189.448 159.688 197.87 155.395 202.338Z" fill="white" stroke="#263238" stroke-miterlimit="10"/>
<path d="M149.981 193.115C149.58 193.408 149.152 193.642 148.698 193.812C144.72 195.288 140.229 191.228 138.673 184.738C137.117 178.252 139.081 171.796 143.059 170.32C143.698 170.082 144.349 169.988 144.995 170.026C148.402 170.207 151.777 173.942 153.084 179.39C154.463 185.137 153.082 190.858 149.981 193.115Z" fill="#263238" stroke="#263238" stroke-miterlimit="10"/>
<path d="M150.033 193.39C149.627 193.687 149.195 193.924 148.735 194.095C144.709 195.59 140.165 191.481 138.59 184.913C137.015 178.35 139.003 171.818 143.028 170.323C143.675 170.082 144.333 169.987 144.987 170.026C148.435 170.209 151.85 173.989 153.172 179.502C154.569 185.317 153.171 191.107 150.033 193.39Z" fill="#263238" stroke="#263238" stroke-miterlimit="10"/>
<path opacity="0.3" d="M150.081 193.405C149.675 193.701 149.243 193.938 148.783 194.11C144.758 195.604 140.213 191.494 138.639 184.928C137.064 178.365 139.051 171.832 143.076 170.338C143.723 170.097 144.381 170.001 145.036 170.041C148.483 170.223 151.898 174.003 153.221 179.516C154.617 185.332 153.219 191.122 150.081 193.405Z" fill="white" stroke="#263238" stroke-miterlimit="10"/>
<path d="M149.98 193.244C146.57 193.068 143.192 189.328 141.881 183.88C140.502 178.133 141.886 172.408 144.994 170.156C148.401 170.336 151.775 174.072 153.082 179.519C154.462 185.266 153.08 190.988 149.98 193.244Z" fill="#263238"/>
<path d="M148.012 189.851C150.426 189.239 151.649 185.322 150.743 181.103C149.837 176.884 147.145 173.959 144.731 174.571C142.316 175.184 141.093 179.1 141.999 183.319C142.906 187.539 145.597 190.463 148.012 189.851Z" fill="#263238" stroke="#263238" stroke-miterlimit="10"/>
<path opacity="0.4" d="M148.012 189.851C150.426 189.239 151.649 185.322 150.743 181.103C149.837 176.884 147.145 173.959 144.731 174.571C142.316 175.184 141.093 179.1 141.999 183.319C142.906 187.539 145.597 190.463 148.012 189.851Z" fill="white"/>
<path d="M74.251 234.516C75.747 234.208 77.1461 233.599 77.8441 233.213C82.9332 230.4 87.4414 227.16 89.1629 220.698C90.5339 215.551 89.8215 209.086 88.5474 204.014L82.1432 206.543L80.037 203.517C80.037 203.517 85.3714 226.874 74.251 234.516Z" fill="#263238"/>
<path d="M81.4498 206.915C81.4498 206.915 73.6996 189.386 62.9745 192.577C52.2494 195.768 52.1738 214.812 52.1738 214.812C52.1738 214.812 54.1108 237.599 70.4321 235.633C83.8065 234.022 82.5207 214.465 81.4498 206.915Z" fill="#263238"/>
<path opacity="0.1" d="M77.7627 200.364C75.3496 196.366 71.9144 193.252 67.3754 192.371C65.9129 192.087 64.4084 192.151 62.9747 192.578C57.6739 194.155 54.1414 199.902 52.7789 205.253C51.0153 212.181 52.7199 221.44 56.4284 227.623C59.6694 233.026 64.4244 236.421 70.4323 235.633C80.9574 234.253 83.4407 220.925 81.6405 211.002C80.9786 207.352 79.7003 203.574 77.7627 200.364Z" fill="white" stroke="#263238" stroke-miterlimit="10"/>
<path d="M71.1991 224.869C70.798 225.162 70.3703 225.396 69.9159 225.566C65.9376 227.042 61.447 222.981 59.8909 216.492C58.3348 210.006 60.2984 203.55 64.2767 202.074C64.9157 201.836 65.5663 201.742 66.2132 201.78C69.6201 201.961 72.9946 205.696 74.3017 211.144C75.6812 216.891 74.2996 222.612 71.1991 224.869Z" fill="#263238" stroke="#263238" stroke-miterlimit="10"/>
<path d="M71.2503 225.144C70.8444 225.441 70.4118 225.678 69.9522 225.849C65.9266 227.344 61.3822 223.234 59.8075 216.667C58.2328 210.104 60.2198 203.572 64.2454 202.077C64.8918 201.836 65.5504 201.741 66.2048 201.78C69.6521 201.963 73.0671 205.742 74.3896 211.255C75.7861 217.071 74.388 222.861 71.2503 225.144Z" fill="#263238" stroke="#263238" stroke-miterlimit="10"/>
<path opacity="0.3" d="M71.2991 225.159C70.8932 225.455 70.4607 225.692 70.001 225.864C65.9754 227.358 61.431 223.248 59.8563 216.682C58.2816 210.118 60.2686 203.586 64.2943 202.092C64.9406 201.851 65.5993 201.755 66.2536 201.795C69.701 201.977 73.1159 205.757 74.4384 211.27C75.8349 217.086 74.4368 222.876 71.2991 225.159Z" fill="white" stroke="#263238" stroke-miterlimit="10"/>
<path d="M71.0274 225.168C67.2491 225 63.2713 221.106 61.8301 215.661C60.3123 209.917 61.8578 204.188 65.3052 201.928C70.0229 201.928 72.8122 205.829 74.2497 211.274C75.7675 217.019 74.4673 222.906 71.0274 225.168Z" fill="#263238"/>
<path d="M72.997 212.626C73.903 216.845 72.6805 220.762 70.2658 221.374C67.851 221.986 65.1586 219.062 64.2526 214.842C63.3466 210.623 64.5691 206.707 66.9839 206.094C69.3986 205.482 72.091 208.406 72.997 212.626Z" fill="#263238" stroke="#263238" stroke-miterlimit="10"/>
<path opacity="0.4" d="M71.872 212.065C72.778 216.285 71.5555 220.201 69.1408 220.813C66.726 221.425 64.0341 218.501 63.1276 214.282C62.2216 210.062 63.4441 206.146 65.8588 205.534C68.2736 204.922 70.9661 207.846 71.872 212.065Z" fill="white"/>
<path d="M204.869 180.957C205.875 187.152 203.67 192.753 199.943 193.467C196.216 194.181 192.379 189.739 191.373 183.546C190.366 177.351 192.572 171.75 196.299 171.036C200.025 170.321 203.863 174.763 204.869 180.957Z" fill="#263238" stroke="#263238" stroke-miterlimit="10"/>
<path d="M245.445 229.859C213.168 214.612 183.169 205.859 157.58 202.866C157.021 202.803 156.463 202.745 155.904 202.693C150.478 202.144 145.163 201.797 139.971 201.635C139.891 201.635 139.811 201.63 139.731 201.63C117.802 200.959 98.0971 203.479 81.371 207.265C78.2641 207.97 75.2583 208.716 72.3589 209.49C67.8954 210.687 63.6873 211.958 59.7558 213.259C56.3138 214.398 53.0846 215.554 50.0788 216.704C48.669 217.241 47.307 217.779 45.993 218.311C30.9108 224.42 22.436 229.859 22.436 229.859C77.1256 265.661 185.751 245.996 228.46 235.699C239.805 232.964 245.445 229.859 245.445 229.859Z" fill="white"/>
<path d="M103.693 203.249C103.552 208.136 109.074 210.569 110.844 210.76C121.336 211.886 132.598 209.653 141.968 214.906C145.241 216.74 148.057 219.391 151.125 221.604C156.223 225.281 161.983 227.726 167.773 229.878C177.592 233.526 187.896 236.44 198.24 235.533C208.583 234.626 218.79 229.791 224.173 220.152C224.173 220.152 158.902 191.271 103.693 203.249Z" fill="#263238"/>
<path d="M244.974 229.834C213.735 213.719 184.044 205.748 157.109 202.841C156.55 202.777 155.992 202.72 155.433 202.668C150.007 202.119 144.692 201.772 139.5 201.61C139.42 201.61 139.34 201.604 139.26 201.604C117.331 200.934 97.6259 203.454 80.8998 207.24C77.7929 207.945 74.7871 208.69 71.8877 209.465C67.4242 210.661 63.2161 211.933 59.2846 213.233C55.8426 214.372 52.6134 215.528 49.6076 216.678C48.1978 217.216 46.8358 217.753 45.5218 218.285C30.4396 224.395 21.9648 229.834 21.9648 229.834" stroke="#263238" stroke-miterlimit="10" stroke-linecap="round" stroke-linejoin="round"/>
</svg>
