<svg width="611" height="611" viewBox="0 0 611 611" fill="none" xmlns="http://www.w3.org/2000/svg">
<path d="M474.331 115.425C439.675 95.2756 396.809 85.0463 356.201 90.8068C332.04 94.2345 309.561 105.355 290.565 120.41C245.47 156.15 214.915 205.031 161.49 230.661C130.431 245.561 97.9762 253.297 78.0136 283.572C38.2717 343.846 61.6791 427.816 113.445 473.215C169.051 521.981 249.24 536.876 320.936 526.534C438.539 509.569 526.796 401.838 539.238 286.302C543.971 242.362 542.963 191.858 517.286 153.927C506.951 138.657 491.947 125.667 474.331 115.425Z" fill="#DCFF2F"/>
<path opacity="0.7" d="M474.331 115.425C439.675 95.2756 396.809 85.0463 356.201 90.8068C332.04 94.2345 309.561 105.355 290.565 120.41C245.47 156.15 214.915 205.031 161.49 230.661C130.431 245.561 97.9762 253.297 78.0136 283.572C38.2717 343.846 61.6791 427.816 113.445 473.215C169.051 521.981 249.24 536.876 320.936 526.534C438.539 509.569 526.796 401.838 539.238 286.302C543.971 242.362 542.963 191.858 517.286 153.927C506.951 138.657 491.947 125.667 474.331 115.425Z" fill="white"/>
<path d="M308.385 542.247C429.513 542.247 527.706 525.43 527.706 504.686C527.706 483.942 429.513 467.125 308.385 467.125C187.257 467.125 89.0642 483.942 89.0642 504.686C89.0642 525.43 187.257 542.247 308.385 542.247Z" fill="#DCFF2F"/>
<path opacity="0.5" d="M308.385 542.247C429.513 542.247 527.706 525.43 527.706 504.686C527.706 483.942 429.513 467.125 308.385 467.125C187.257 467.125 89.0642 483.942 89.0642 504.686C89.0642 525.43 187.257 542.247 308.385 542.247Z" fill="white"/>
<path d="M69.8423 468.236H547.737" stroke="#263238" stroke-miterlimit="10" stroke-linecap="round" stroke-linejoin="round"/>
<path d="M86.6643 402.36H248.455" stroke="#263238" stroke-miterlimit="10" stroke-linecap="round" stroke-linejoin="round"/>
<path d="M243.163 406.867H104.645V433.397H243.163V406.867Z" stroke="#263238" stroke-miterlimit="10" stroke-linecap="round" stroke-linejoin="round"/>
<path d="M243.163 437.902H104.645V464.432H243.163V437.902Z" stroke="#263238" stroke-miterlimit="10" stroke-linecap="round" stroke-linejoin="round"/>
<path d="M176.952 420.132C176.952 421.816 175.587 423.18 173.904 423.18C172.22 423.18 170.856 421.815 170.856 420.132C170.856 418.448 172.221 417.084 173.904 417.084C175.587 417.084 176.952 418.448 176.952 420.132Z" stroke="#263238" stroke-miterlimit="10" stroke-linecap="round" stroke-linejoin="round"/>
<path d="M176.952 451.167C176.952 452.851 175.587 454.215 173.904 454.215C172.22 454.215 170.856 452.85 170.856 451.167C170.856 449.483 172.221 448.12 173.904 448.12C175.587 448.12 176.952 449.485 176.952 451.167Z" stroke="#263238" stroke-miterlimit="10" stroke-linecap="round" stroke-linejoin="round"/>
<path d="M101.088 401.725H85.501V468.35H101.088V401.725Z" fill="#263238"/>
<path d="M248.455 468.35V402.36" stroke="#263238" stroke-miterlimit="10" stroke-linecap="round" stroke-linejoin="round"/>
<path d="M86.1536 468.35H248.455" stroke="#263238" stroke-miterlimit="10" stroke-linecap="round" stroke-linejoin="round"/>
<path d="M489.426 267.149C489.426 267.149 489.426 261.931 482.105 254.617C474.784 247.303 470.125 243.13 470.125 243.13C470.125 243.13 466.472 255.11 473.254 262.429C480.035 269.749 489.445 276.525 489.445 276.525L489.426 267.149Z" fill="#DCFF2F"/>
<path d="M478.818 299.758C478.818 299.758 478.818 294.534 471.497 287.226C464.177 279.919 459.517 275.739 459.517 275.739C459.517 275.739 455.858 287.719 462.646 295.038C469.434 302.358 478.837 309.134 478.837 309.134L478.818 299.758Z" fill="#DCFF2F"/>
<path d="M488.967 276.04C488.967 276.04 489.513 270.849 497.559 264.354C505.604 257.859 510.716 254.198 510.716 254.198C510.716 254.198 513.078 266.529 505.558 273.078C498.038 279.627 487.968 285.423 487.968 285.423L488.967 276.04Z" fill="#DCFF2F"/>
<path d="M476.149 314.551C476.149 314.551 477.24 309.447 485.919 303.831C494.597 298.214 500.067 295.113 500.067 295.113C500.067 295.113 501.125 307.624 492.96 313.347C484.794 319.071 474.18 323.743 474.18 323.743L476.149 314.551Z" fill="#DCFF2F"/>
<path d="M478.559 356.538C478.559 356.538 478.559 351.32 485.88 344.006C493.201 336.693 497.892 332.52 497.892 332.52C497.892 332.52 501.546 344.499 494.757 351.819C487.969 359.14 478.56 365.947 478.56 365.947V356.538H478.559Z" fill="#DCFF2F"/>
<path d="M478.439 366.786C478.439 366.786 479.177 361.614 472.982 353.343C466.786 345.071 462.726 340.266 462.726 340.266C462.726 340.266 457.402 351.633 463.08 359.832C468.756 368.03 477.102 376.089 477.102 376.089L478.439 366.786Z" fill="#DCFF2F"/>
<path d="M471.224 397.16C471.224 397.16 471.224 391.936 478.545 384.628C485.866 377.321 490.524 373.142 490.524 373.142C490.524 373.142 494.184 385.121 487.396 392.441C480.608 399.76 471.224 406.543 471.224 406.543V397.16Z" fill="#DCFF2F"/>
<path d="M476.11 424.698C476.11 424.698 474.779 419.647 480.009 410.723C485.241 401.799 488.714 396.561 488.714 396.561C488.714 396.561 495.289 407.256 490.577 416.047C485.865 424.838 478.492 433.783 478.492 433.783L476.11 424.698Z" fill="#DCFF2F"/>
<path d="M490.085 265.811C489.719 271.247 489.053 276.659 488.088 282.022C485.2 296.948 477.979 306.585 475.085 320.067C472.19 333.55 480.496 350.927 478.273 368.242C476.05 385.558 469.302 395.228 471.226 406.755C473.149 418.281 483.271 449.613 483.271 449.613" stroke="#263238" stroke-linecap="round" stroke-linejoin="round"/>
<path d="M441.556 336.906C441.556 336.906 440.991 333.632 444.778 328.254C448.565 322.877 451.06 319.743 451.06 319.743C451.06 319.743 454.66 326.877 451.193 332.201C448.611 335.968 445.716 339.512 442.541 342.796L441.556 336.906Z" fill="#DCFF2F"/>
<path d="M451.746 356.198C451.746 356.198 451.18 352.925 454.973 347.547C458.766 342.17 461.255 339.042 461.255 339.042C461.255 339.042 464.849 346.176 461.388 351.492C458.808 355.262 455.913 358.809 452.737 362.093L451.746 356.198Z" fill="#DCFF2F"/>
<path d="M442.808 342.429C442.808 342.429 441.902 339.234 436.153 336.033C430.403 332.832 426.836 331.095 426.836 331.095C426.836 331.095 426.69 339.081 432.12 342.368C436.07 344.647 440.204 346.591 444.478 348.177L442.808 342.429Z" fill="#DCFF2F"/>
<path d="M455.026 365.189C455.026 365.189 453.789 362.101 447.705 359.526C441.622 356.95 437.889 355.592 437.889 355.592C437.889 355.592 438.555 363.578 444.324 366.241C448.494 368.095 452.813 369.593 457.235 370.719L455.026 365.189Z" fill="#DCFF2F"/>
<path d="M458.074 391.776C458.074 391.776 457.509 388.502 452.132 384.715C446.755 380.928 443.354 378.812 443.354 378.812C443.354 378.812 442.363 386.737 447.414 390.584C451.103 393.267 455.01 395.637 459.093 397.672L458.074 391.776Z" fill="#DCFF2F"/>
<path d="M459.266 398.191C459.266 398.191 458.248 395.03 461.222 389.167C464.197 383.303 466.234 379.85 466.234 379.85C466.234 379.85 470.805 386.399 468.137 392.156C466.128 396.254 463.777 400.177 461.11 403.882L459.266 398.191Z" fill="#DCFF2F"/>
<path d="M468.436 424.597C468.436 424.597 468.814 421.27 473.966 417.21C479.117 413.151 482.398 410.814 482.398 410.814C482.398 410.814 483.835 418.674 479.011 422.794C475.483 425.685 471.719 428.274 467.757 430.534L468.436 424.597Z" fill="#DCFF2F"/>
<path d="M467.078 416.453C467.078 416.453 466.512 413.179 461.136 409.392C455.759 405.605 452.358 403.489 452.358 403.489C452.358 403.489 451.373 411.415 456.417 415.262C460.109 417.945 464.017 420.316 468.103 422.349L467.078 416.453Z" fill="#DCFF2F"/>
<path d="M467.012 434.254C467.012 434.254 467.292 430.926 463.02 425.909C458.747 420.891 456.052 417.983 456.052 417.983C456.052 417.983 453.091 425.397 456.996 430.401C459.888 433.93 463.068 437.211 466.506 440.21L467.012 434.254Z" fill="#DCFF2F"/>
<path d="M440.998 336.134C441.817 339.516 442.824 342.848 444.013 346.117C447.447 355.167 453.016 360.425 456.298 368.564C459.579 376.702 456.257 388.529 459.525 399.116C462.792 409.705 468.076 415.049 468.123 422.502C468.169 429.955 465.222 450.686 465.222 450.686" stroke="#263238" stroke-linecap="round" stroke-linejoin="round"/>
<path d="M450.261 447.038H498.109V464.667C498.109 465.953 497.067 466.996 495.78 466.996H452.623C451.336 466.996 450.294 465.953 450.294 464.667V447.038H450.261Z" fill="#263238" stroke="#263238" stroke-linecap="round" stroke-linejoin="round"/>
<path d="M497.691 453.274H450.295C448.23 453.278 446.552 451.606 446.548 449.541C446.548 449.538 446.548 449.535 446.548 449.535C446.559 447.473 448.233 445.808 450.295 445.808H497.691C499.757 445.808 501.432 447.482 501.432 449.548C501.427 451.608 499.753 453.278 497.691 453.274Z" fill="#263238" stroke="#263238" stroke-linecap="round" stroke-linejoin="round"/>
<path d="M452.171 453.44H486.591" stroke="white" stroke-linecap="round" stroke-linejoin="round"/>
<path d="M489.832 453.44H495.502" stroke="white" stroke-linecap="round" stroke-linejoin="round"/>
<path d="M489.426 267.149C489.426 267.149 489.426 261.931 482.105 254.617C474.784 247.303 470.125 243.13 470.125 243.13C470.125 243.13 466.472 255.11 473.254 262.429C480.035 269.749 489.445 276.525 489.445 276.525L489.426 267.149Z" fill="#263238"/>
<path d="M478.818 299.758C478.818 299.758 478.818 294.534 471.497 287.226C464.177 279.919 459.517 275.739 459.517 275.739C459.517 275.739 455.858 287.719 462.646 295.038C469.434 302.358 478.837 309.134 478.837 309.134L478.818 299.758Z" fill="#263238"/>
<path d="M488.967 276.04C488.967 276.04 489.513 270.849 497.559 264.354C505.604 257.859 510.716 254.198 510.716 254.198C510.716 254.198 513.078 266.529 505.558 273.078C498.038 279.627 487.968 285.423 487.968 285.423L488.967 276.04Z" fill="#263238"/>
<path d="M476.149 314.551C476.149 314.551 477.24 309.447 485.919 303.831C494.597 298.214 500.067 295.113 500.067 295.113C500.067 295.113 501.125 307.624 492.96 313.347C484.794 319.071 474.18 323.743 474.18 323.743L476.149 314.551Z" fill="#263238"/>
<path d="M478.559 356.538C478.559 356.538 478.559 351.32 485.88 344.006C493.201 336.693 497.892 332.52 497.892 332.52C497.892 332.52 501.546 344.499 494.757 351.819C487.969 359.14 478.56 365.947 478.56 365.947V356.538H478.559Z" fill="#263238"/>
<path d="M471.224 397.16C471.224 397.16 471.224 391.936 478.545 384.628C485.866 377.321 490.524 373.142 490.524 373.142C490.524 373.142 494.184 385.121 487.396 392.441C480.608 399.76 471.224 406.543 471.224 406.543V397.16Z" fill="#263238"/>
<path d="M441.556 336.906C441.556 336.906 440.991 333.632 444.778 328.254C448.565 322.877 451.06 319.743 451.06 319.743C451.06 319.743 454.66 326.877 451.193 332.201C448.611 335.968 445.716 339.512 442.541 342.796L441.556 336.906Z" fill="#263238"/>
<path d="M472.982 353.344C466.786 345.072 462.727 340.267 462.727 340.267C462.727 340.267 462.504 340.75 462.204 341.56C461.756 340.037 461.255 339.042 461.255 339.042C461.255 339.042 458.766 342.171 454.973 347.548C451.18 352.924 451.746 356.199 451.746 356.199L452.738 362.095C455.588 359.148 458.195 355.981 460.57 352.64C460.804 355.076 461.516 357.574 463.08 359.834C468.756 368.033 477.102 376.092 477.102 376.092L478.44 366.789C478.439 366.786 479.177 361.615 472.982 353.344Z" fill="#263238"/>
<path d="M442.808 342.429C442.808 342.429 441.902 339.234 436.153 336.033C430.403 332.832 426.836 331.095 426.836 331.095C426.836 331.095 426.69 339.081 432.12 342.368C436.07 344.647 440.204 346.591 444.478 348.177L442.808 342.429Z" fill="#263238"/>
<path d="M455.026 365.189C455.026 365.189 453.789 362.101 447.705 359.526C441.622 356.95 437.889 355.592 437.889 355.592C437.889 355.592 438.555 363.578 444.324 366.241C448.494 368.095 452.813 369.593 457.235 370.719L455.026 365.189Z" fill="#263238"/>
<path d="M458.074 391.776C458.074 391.776 457.509 388.502 452.132 384.715C446.755 380.928 443.354 378.812 443.354 378.812C443.354 378.812 442.363 386.737 447.414 390.584C451.103 393.267 455.01 395.637 459.093 397.672L458.074 391.776Z" fill="#263238"/>
<path d="M459.266 398.191C459.266 398.191 458.248 395.03 461.222 389.167C464.197 383.303 466.234 379.85 466.234 379.85C466.234 379.85 470.805 386.399 468.137 392.156C466.128 396.254 463.777 400.177 461.11 403.882L459.266 398.191Z" fill="#263238"/>
<path d="M488.714 396.561C488.714 396.561 485.24 401.799 480.009 410.723C479.375 411.804 478.842 412.826 478.387 413.791C477.147 414.732 475.66 415.876 473.967 417.212C468.816 421.271 468.436 424.599 468.436 424.599L467.756 430.535C470.681 428.867 473.495 427.018 476.188 425.002L478.49 433.782C478.49 433.782 485.864 424.838 490.576 416.047C495.289 407.255 488.714 396.561 488.714 396.561Z" fill="#263238"/>
<path d="M467.078 416.453C467.078 416.453 466.512 413.179 461.136 409.392C455.759 405.605 452.358 403.489 452.358 403.489C452.358 403.489 451.373 411.415 456.417 415.262C460.109 417.945 464.017 420.316 468.103 422.349L467.078 416.453Z" fill="#263238"/>
<path d="M467.012 434.254C467.012 434.254 467.292 430.926 463.02 425.909C458.747 420.891 456.052 417.983 456.052 417.983C456.052 417.983 453.091 425.397 456.996 430.401C459.888 433.93 463.068 437.211 466.506 440.21L467.012 434.254Z" fill="#263238"/>
<path d="M275.395 310.508L259.262 303.96V348.77C259.262 355.186 254.055 360.38 247.638 360.38H104.203C97.7858 360.38 92.5923 355.186 92.5923 348.77V169.832C92.5923 163.415 97.7858 158.208 104.203 158.208H247.638C254.055 158.208 259.262 163.415 259.262 169.832V284.5L275.395 310.508Z" fill="white" stroke="#263238" stroke-miterlimit="10" stroke-linecap="round" stroke-linejoin="round"/>
<path d="M107.262 207.391L113.309 198.958V172.577H209.681V221.045H113.309V207.856L107.262 207.391Z" fill="#263238"/>
<path d="M162.278 212.966C171.2 212.966 178.433 205.734 178.433 196.812C178.433 187.89 171.2 180.657 162.278 180.657C153.356 180.657 146.123 187.89 146.123 196.812C146.123 205.734 153.356 212.966 162.278 212.966Z" fill="white"/>
<path d="M159.33 205.905V187.54L170.941 196.722L159.33 205.905Z" fill="#DCFF2F" stroke="#263238" stroke-miterlimit="10" stroke-linecap="round" stroke-linejoin="round"/>
<path d="M247.295 332.75L241.25 327.514V311.136H144.877V341.226H241.25V333.038L247.295 332.75Z" fill="#DCFF2F" stroke="#263238" stroke-miterlimit="10" stroke-linecap="round" stroke-linejoin="round"/>
<path d="M180.371 320.376V331.415H178.32V326.684H172.611V331.415H170.561V320.376H172.611V324.933H178.32V320.376H180.371Z" fill="#263238"/>
<path d="M190.202 326.48V331.416H188.341V330.391C187.868 331.117 186.954 331.526 185.691 331.526C183.767 331.526 182.553 330.469 182.553 329.003C182.553 327.6 183.499 326.495 186.054 326.495H188.231V326.369C188.231 325.217 187.537 324.54 186.134 324.54C185.188 324.54 184.21 324.855 183.58 325.376L182.807 323.941C183.707 323.246 185.014 322.9 186.371 322.9C188.798 322.9 190.202 324.052 190.202 326.48ZM188.231 328.783V327.805H186.197C184.857 327.805 184.494 328.31 184.494 328.924C184.494 329.633 185.093 330.09 186.102 330.09C187.064 330.09 187.898 329.65 188.231 328.783Z" fill="#263238"/>
<path d="M201.025 326.59V331.416H199.054V326.842C199.054 325.345 198.312 324.619 197.051 324.619C195.648 324.619 194.701 325.471 194.701 327.157V331.415H192.73V319.713H194.701V323.97C195.349 323.277 196.341 322.899 197.509 322.899C199.527 322.9 201.025 324.052 201.025 326.59Z" fill="#263238"/>
<path d="M210.587 326.48V331.416H208.726V330.391C208.253 331.117 207.339 331.526 206.077 331.526C204.152 331.526 202.938 330.469 202.938 329.003C202.938 327.6 203.884 326.495 206.44 326.495H208.615V326.369C208.615 325.217 207.921 324.54 206.518 324.54C205.572 324.54 204.594 324.855 203.964 325.376L203.191 323.941C204.091 323.246 205.398 322.9 206.755 322.9C209.183 322.9 210.587 324.052 210.587 326.48ZM208.615 328.783V327.805H206.581C205.241 327.805 204.878 328.31 204.878 328.924C204.878 329.633 205.477 330.09 206.486 330.09C207.449 330.09 208.284 329.65 208.615 328.783Z" fill="#263238"/>
<path d="M221.411 326.59V331.416H219.44V326.842C219.44 325.345 218.698 324.619 217.437 324.619C216.034 324.619 215.087 325.471 215.087 327.157V331.415H213.116V319.713H215.087V323.97C215.734 323.277 216.727 322.899 217.895 322.899C219.912 322.9 221.411 324.052 221.411 326.59Z" fill="#263238"/>
<path d="M247.295 293.363L241.25 288.128V271.748H144.877V301.84H241.25V293.651L247.295 293.363Z" fill="#DCFF2F" stroke="#263238" stroke-miterlimit="10" stroke-linecap="round" stroke-linejoin="round"/>
<path d="M196.086 297.463C201.978 297.463 206.754 292.686 206.754 286.795C206.754 280.903 201.978 276.126 196.086 276.126C190.194 276.126 185.418 280.903 185.418 286.795C185.418 292.686 190.194 297.463 196.086 297.463Z" fill="white" stroke="#263238" stroke-miterlimit="10" stroke-linecap="round" stroke-linejoin="round"/>
<path d="M166.669 297.463C172.56 297.463 177.337 292.686 177.337 286.795C177.337 280.903 172.56 276.126 166.669 276.126C160.777 276.126 156 280.903 156 286.795C156 292.686 160.777 297.463 166.669 297.463Z" fill="white" stroke="#263238" stroke-miterlimit="10" stroke-linecap="round" stroke-linejoin="round"/>
<path d="M224.226 297.463C230.118 297.463 234.894 292.686 234.894 286.795C234.894 280.903 230.118 276.126 224.226 276.126C218.334 276.126 213.558 280.903 213.558 286.795C213.558 292.686 218.334 297.463 224.226 297.463Z" fill="white" stroke="#263238" stroke-miterlimit="10" stroke-linecap="round" stroke-linejoin="round"/>
<path d="M160.834 280.855L163.762 284.485H159.663" stroke="#263238" stroke-miterlimit="10" stroke-linecap="round" stroke-linejoin="round"/>
<path d="M171.533 280.855L168.605 284.485H172.704" stroke="#263238" stroke-miterlimit="10" stroke-linecap="round" stroke-linejoin="round"/>
<path d="M158.96 287.413H173.833C173.833 287.413 172.153 294.908 166.669 294.908C160.432 294.909 158.96 287.413 158.96 287.413Z" fill="#DCFF2F" stroke="#263238" stroke-miterlimit="10" stroke-linecap="round" stroke-linejoin="round"/>
<path d="M190.523 280.855L193.451 284.485H189.353" stroke="#263238" stroke-miterlimit="10" stroke-linecap="round" stroke-linejoin="round"/>
<path d="M201.223 280.855L198.295 284.485H202.394" stroke="#263238" stroke-miterlimit="10" stroke-linecap="round" stroke-linejoin="round"/>
<path d="M188.65 287.413H203.523C203.523 287.413 201.843 294.908 196.358 294.908C190.12 294.909 188.65 287.413 188.65 287.413Z" fill="#DCFF2F" stroke="#263238" stroke-miterlimit="10" stroke-linecap="round" stroke-linejoin="round"/>
<path d="M218.663 280.855L221.591 284.485H217.493" stroke="#263238" stroke-miterlimit="10" stroke-linecap="round" stroke-linejoin="round"/>
<path d="M229.363 280.855L226.436 284.485H230.534" stroke="#263238" stroke-miterlimit="10" stroke-linecap="round" stroke-linejoin="round"/>
<path d="M216.79 287.413H231.663C231.663 287.413 229.983 294.908 224.5 294.908C218.26 294.909 216.79 287.413 216.79 287.413Z" fill="#DCFF2F" stroke="#263238" stroke-miterlimit="10" stroke-linecap="round" stroke-linejoin="round"/>
<path d="M107.262 253.271L113.309 248.035V231.657H209.681V261.747H113.309V253.559L107.262 253.271Z" fill="#DCFF2F" stroke="#263238" stroke-miterlimit="10" stroke-linecap="round" stroke-linejoin="round"/>
<path d="M156.868 240.802H158.919V250.106H164.69V251.841H156.868V240.802Z" fill="#263238"/>
<path d="M165.356 247.63C165.356 245.107 167.249 243.325 169.835 243.325C172.452 243.325 174.329 245.107 174.329 247.63C174.329 250.154 172.452 251.951 169.835 251.951C167.249 251.951 165.356 250.154 165.356 247.63ZM172.342 247.63C172.342 246.021 171.269 244.997 169.835 244.997C168.415 244.997 167.343 246.022 167.343 247.63C167.343 249.24 168.415 250.264 169.835 250.264C171.27 250.264 172.342 249.238 172.342 247.63Z" fill="#263238"/>
<path d="M175.534 247.63C175.534 245.107 177.427 243.325 180.013 243.325C182.63 243.325 184.507 245.107 184.507 247.63C184.507 250.154 182.63 251.951 180.013 251.951C177.426 251.951 175.534 250.154 175.534 247.63ZM182.52 247.63C182.52 246.021 181.447 244.997 180.013 244.997C178.593 244.997 177.521 246.022 177.521 247.63C177.521 249.24 178.593 250.264 180.013 250.264C181.447 250.264 182.52 249.238 182.52 247.63Z" fill="#263238"/>
<path d="M189.843 248.23L188.375 249.617V251.842H186.404V240.14H188.375V247.204L192.459 243.419H194.825L191.308 246.952L195.156 251.84H192.759L189.843 248.23Z" fill="#263238"/>
<path d="M196.076 250.721C196.076 250.043 196.613 249.506 197.354 249.506C198.08 249.506 198.6 250.043 198.6 250.721C198.6 251.399 198.079 251.951 197.354 251.951C196.613 251.951 196.076 251.399 196.076 250.721ZM196.187 240.802H198.521L198.127 248.183H196.566L196.187 240.802Z" fill="#263238"/>
<path d="M137.085 257.826C142.977 257.826 147.753 253.05 147.753 247.158C147.753 241.266 142.977 236.49 137.085 236.49C131.193 236.49 126.417 241.266 126.417 247.158C126.417 253.05 131.193 257.826 137.085 257.826Z" fill="white" stroke="#263238" stroke-miterlimit="10" stroke-linecap="round" stroke-linejoin="round"/>
<path d="M131.821 241.322L134.592 244.758H130.713" stroke="#263238" stroke-miterlimit="10" stroke-linecap="round" stroke-linejoin="round"/>
<path d="M141.948 241.322L139.177 244.758H143.056" stroke="#263238" stroke-miterlimit="10" stroke-linecap="round" stroke-linejoin="round"/>
<path d="M130.048 247.528H144.124C144.124 247.528 142.534 254.622 137.343 254.622C131.44 254.622 130.048 247.528 130.048 247.528Z" fill="#DCFF2F" stroke="#263238" stroke-miterlimit="10" stroke-linecap="round" stroke-linejoin="round"/>
<path d="M291.519 102.385V290.49" stroke="#263238" stroke-miterlimit="10" stroke-linecap="round" stroke-linejoin="round"/>
<path d="M270.518 193.236H487.324" stroke="#263238" stroke-miterlimit="10" stroke-linecap="round" stroke-linejoin="round"/>
<path d="M443.252 102.385V251.101" stroke="#263238" stroke-miterlimit="10" stroke-linecap="round" stroke-linejoin="round"/>
<path d="M384.027 130.722L401.26 113.49" stroke="#263238" stroke-miterlimit="10" stroke-linecap="round" stroke-linejoin="round"/>
<path d="M388.945 158.039L406.178 140.807" stroke="#263238" stroke-miterlimit="10" stroke-linecap="round" stroke-linejoin="round"/>
<path d="M378.92 144.354L418.521 104.752" stroke="#263238" stroke-miterlimit="10" stroke-linecap="round" stroke-linejoin="round"/>
<path d="M472.63 229.165L489.862 211.933" stroke="#263238" stroke-miterlimit="10" stroke-linecap="round" stroke-linejoin="round"/>
<path d="M467.523 242.797L507.124 203.195" stroke="#263238" stroke-miterlimit="10" stroke-linecap="round" stroke-linejoin="round"/>
<path d="M295.7 258.415C306.915 258.415 316.007 249.323 316.007 238.108C316.007 226.893 306.915 217.801 295.7 217.801C284.484 217.801 275.393 226.893 275.393 238.108C275.393 249.323 284.484 258.415 295.7 258.415Z" fill="white" stroke="#263238" stroke-miterlimit="10" stroke-linecap="round" stroke-linejoin="round"/>
<path d="M303.579 250.151L295.719 246.047L287.883 250.196L289.356 241.454L282.99 235.283L291.76 233.983L295.661 226.02L299.608 233.959L308.385 235.209L302.054 241.416L303.579 250.151Z" fill="#DCFF2F"/>
<path d="M428.056 223.692C439.271 223.692 448.363 214.6 448.363 203.385C448.363 192.169 439.271 183.078 428.056 183.078C416.84 183.078 407.749 192.169 407.749 203.385C407.749 214.6 416.84 223.692 428.056 223.692Z" fill="white" stroke="#263238" stroke-miterlimit="10" stroke-linecap="round" stroke-linejoin="round"/>
<path d="M417.429 192.168L423.022 199.103H415.192" stroke="#263238" stroke-miterlimit="10" stroke-linecap="round" stroke-linejoin="round"/>
<path d="M437.869 192.168L432.276 199.103H440.106" stroke="#263238" stroke-miterlimit="10" stroke-linecap="round" stroke-linejoin="round"/>
<path d="M413.85 204.696H442.262C442.262 204.696 439.051 219.014 428.576 219.014C416.66 219.013 413.85 204.696 413.85 204.696Z" fill="#DCFF2F" stroke="#263238" stroke-miterlimit="10" stroke-linecap="round" stroke-linejoin="round"/>
<path d="M344.317 178.52C355.532 178.52 364.624 169.428 364.624 158.212C364.624 146.997 355.532 137.905 344.317 137.905C333.102 137.905 324.01 146.997 324.01 158.212C324.01 169.428 333.102 178.52 344.317 178.52Z" fill="white" stroke="#263238" stroke-miterlimit="10" stroke-linecap="round" stroke-linejoin="round"/>
<path d="M339.808 152.17C339.808 153.686 339.398 154.916 338.892 154.916C338.386 154.916 337.977 153.686 337.977 152.17C337.977 150.653 338.386 149.423 338.892 149.423C339.397 149.423 339.808 150.653 339.808 152.17Z" fill="#263238"/>
<path d="M351.872 152.17C351.872 153.686 351.462 154.916 350.956 154.916C350.45 154.916 350.041 153.686 350.041 152.17C350.041 150.653 350.45 149.423 350.956 149.423C351.462 149.423 351.872 150.653 351.872 152.17Z" fill="#263238"/>
<path d="M331.486 158.213C331.486 158.213 334.51 168.436 344.317 168.755C354.123 169.074 356.461 158.209 356.461 158.209" fill="white"/>
<path d="M331.486 158.213C331.486 158.213 334.51 168.436 344.317 168.755C354.123 169.074 356.461 158.209 356.461 158.209" stroke="#263238" stroke-miterlimit="10" stroke-linecap="round" stroke-linejoin="round"/>
<path d="M221.638 404.209C221.638 404.209 194.437 411.154 170.998 443.274C170.998 443.274 158.554 440.381 156.53 444.432C154.503 448.483 167.525 449.64 167.525 449.64C167.525 449.64 183.44 482.629 211.51 485.811C211.51 485.811 213.246 496.808 215.85 497.096C218.454 497.386 221.638 486.389 221.638 486.389C221.638 486.389 255.558 479.581 266.811 460.27C266.811 460.272 248.838 406.236 221.638 404.209Z" fill="white"/>
<path d="M187.671 445.369C187.671 445.369 201.5 444.076 223.882 460.888" stroke="#263238" stroke-miterlimit="10" stroke-linecap="round" stroke-linejoin="round"/>
<path d="M193.814 437.5C193.814 437.5 204.615 438.275 209.98 446.662" stroke="#263238" stroke-miterlimit="10" stroke-linecap="round" stroke-linejoin="round"/>
<path d="M221.638 404.209C221.638 404.209 194.437 411.154 170.998 443.274C170.998 443.274 158.554 440.381 156.53 444.432C154.503 448.483 167.525 449.64 167.525 449.64C167.525 449.64 183.44 482.629 211.51 485.811C211.51 485.811 213.246 496.808 215.85 497.096C218.454 497.386 221.638 486.389 221.638 486.389C221.638 486.389 255.558 479.581 266.811 460.27C266.811 460.272 248.838 406.236 221.638 404.209Z" stroke="#263238" stroke-miterlimit="10" stroke-linecap="round" stroke-linejoin="round"/>
<path d="M352.141 521.582C365.47 520.636 378.379 517.605 389.91 511.338C417.248 496.484 432.043 466.273 436.739 436.494C441.366 407.159 444.961 373.21 452.994 350.22C463.299 320.729 457.546 290.117 427.655 273.634C407.332 262.427 382.59 260.409 360.074 266.035C337.983 271.555 311.401 285.551 297.941 304.366C282.002 326.644 272.266 351.6 253.125 372.001C232.461 394.026 207.414 413.417 211.001 447.106C215.2 486.535 256 507.471 290.633 515.218C309.76 519.498 331.456 523.051 352.141 521.582Z" fill="#DCFF2F"/>
<path d="M351.823 522.339C365.152 521.393 378.061 518.361 389.592 512.095C416.93 497.24 431.725 467.03 436.421 437.251C441.048 407.915 444.643 373.966 452.676 350.976C462.981 321.486 457.228 290.874 427.337 274.39C407.014 263.183 382.272 261.165 359.757 266.792C337.665 272.311 311.083 286.307 297.623 305.122C281.684 327.4 271.949 352.355 252.807 372.757C232.143 394.783 207.096 414.173 210.684 447.863C214.882 487.292 255.683 508.227 290.315 515.974C309.443 520.254 331.139 523.808 351.823 522.339Z" stroke="#263238" stroke-miterlimit="10" stroke-linecap="round" stroke-linejoin="round"/>
<path d="M413.353 331.636C417.599 327.451 422.472 323.451 428.056 319.875" stroke="#263238" stroke-miterlimit="10" stroke-linecap="round" stroke-linejoin="round"/>
<path d="M392.868 319.876C392.868 319.876 395.706 304.764 405.369 296.704" stroke="#263238" stroke-miterlimit="10" stroke-linecap="round" stroke-linejoin="round"/>
<path opacity="0.1" d="M382.475 301.478C390.931 292.058 405.369 278.322 415.436 284.301C419.664 294.305 407.382 304.697 409.077 315.425C409.633 318.945 411.654 322.027 413.446 325.109C425.713 346.225 428.527 372.607 420.99 395.836C418.678 402.962 415.431 409.85 414.31 417.258C412.821 427.085 414.325 436.485 409.56 445.59C404.947 454.403 397.453 461.443 389.691 467.481C363.434 487.905 332.933 498.258 300.178 501.421C288.734 502.525 277.062 501.202 266.157 497.564C263.412 496.649 260.586 495.496 258.77 493.244C255.419 489.089 256.874 482.571 260.528 478.68C264.182 474.79 269.421 472.884 274.455 471.113C286.846 466.751 299.329 462.368 310.685 455.763C322.04 449.158 332.328 440.113 338.315 428.42C344.769 415.813 345.775 401.203 346.342 387.051C347.217 365.223 347.313 343.128 342.495 321.82C340.754 314.12 340.981 299.838 348.577 294.421C356.741 288.598 375.076 297.289 382.475 301.478Z" fill="black"/>
<path d="M411.945 373.895C411.945 373.895 413.537 361.915 416.504 362.379C419.471 362.843 422.006 373.895 422.006 373.895C422.006 373.895 451.328 406.401 443.608 437.374C443.608 437.374 449.944 445.563 449.122 446.632C446.922 449.492 438.83 446.632 438.83 446.632C438.83 446.632 407.769 471.287 380.296 473.859C380.296 473.859 376.089 482.396 373.407 481.945C370.723 481.495 373.407 467.976 373.407 467.976C373.407 467.976 354.195 439.31 359.664 410.923C359.664 410.923 352.505 406.23 354.568 403.29C356.632 400.35 364.219 401.892 364.219 401.892C364.219 401.892 382.12 379.417 411.945 373.895Z" fill="white"/>
<path d="M385.124 413.527C385.124 413.527 400.366 410.621 417.909 432.843" stroke="#263238" stroke-miterlimit="10" stroke-linecap="round" stroke-linejoin="round"/>
<path d="M405.908 411.751C412.727 412.73 422.08 416.245 431.358 426.671" stroke="#263238" stroke-miterlimit="10" stroke-linecap="round" stroke-linejoin="round"/>
<path d="M411.945 373.895C411.945 373.895 413.537 361.915 416.504 362.379C419.471 362.843 422.006 373.895 422.006 373.895C422.006 373.895 451.328 406.401 443.608 437.374C443.608 437.374 449.944 445.563 449.122 446.632C446.922 449.492 438.83 446.632 438.83 446.632C438.83 446.632 407.769 471.287 380.296 473.859C380.296 473.859 376.089 482.396 373.407 481.945C370.723 481.495 373.407 467.976 373.407 467.976C373.407 467.976 354.195 439.31 359.664 410.923C359.664 410.923 352.505 406.23 354.568 403.29C356.632 400.35 364.219 401.892 364.219 401.892C364.219 401.892 382.12 379.417 411.945 373.895Z" stroke="#263238" stroke-miterlimit="10" stroke-linecap="round" stroke-linejoin="round"/>
<path d="M370.046 428.815C370.046 428.815 382.491 402.118 392.786 366.27C403.082 330.421 404.775 319.559 404.775 319.559C404.775 319.559 384.5 305.475 370.129 300.959C355.758 296.442 316.295 298.674 309.42 299.605C302.544 300.536 305.386 306.201 305.386 306.201L313.617 336.135L315.737 342.146L316.006 406.355C316.006 406.355 327.61 433.998 370.046 428.815Z" fill="#DCFF2F"/>
<path opacity="0.3" d="M370.046 428.815C370.046 428.815 382.491 402.118 392.786 366.27C403.082 330.421 404.331 318.877 404.331 318.877C404.331 318.877 384.501 305.474 370.131 300.959C355.76 296.443 316.297 298.674 309.422 299.605C302.545 300.536 305.388 306.201 305.388 306.201L313.618 336.135L315.738 342.146L316.007 406.355C316.007 406.355 327.61 433.998 370.046 428.815Z" fill="black"/>
<path d="M158.732 514.128C152.273 516.946 143.562 519.065 136.636 520.362C129.71 521.658 122.372 521.531 115.833 518.907C110.051 516.587 105.247 512.436 101.347 507.647C97.6892 503.156 94.3763 498.839 92.8941 493.111C92.6203 492.05 92.4101 490.903 92.8061 489.881C95.1633 483.796 111.45 496.147 114.517 497.819C125.899 504.027 139.518 506.019 152.2 503.332C153.102 507.021 156.949 510.773 158.732 514.128Z" fill="white"/>
<path d="M158.732 514.128C152.273 516.946 143.562 519.065 136.636 520.362C129.71 521.658 122.372 521.531 115.833 518.907C110.051 516.587 105.247 512.436 101.347 507.647C97.6892 503.156 94.3763 498.839 92.8941 493.111C92.6203 492.05 92.4101 490.903 92.8061 489.881C95.1633 483.796 111.45 496.147 114.517 497.819C125.899 504.027 139.518 506.019 152.2 503.332C153.102 507.021 156.949 510.773 158.732 514.128Z" stroke="#263238" stroke-miterlimit="10" stroke-linecap="round" stroke-linejoin="round"/>
<path d="M343.902 298.99C343.902 298.99 346.38 308.196 356.366 307.252C366.129 308.484 370.406 302.236 370.406 302.236C370.406 302.236 369.224 295.233 370.343 290.489C371.461 285.745 374.614 278.323 374.614 278.323C374.614 278.323 379.399 278.507 382.093 276.778C384.786 275.049 388.084 267.982 387.674 259.31C387.263 250.638 377.592 238.107 377.592 238.107L364.894 234.953L347.521 235.484L344.139 238.261L338.176 248.494C338.176 248.494 337.413 250.404 337.403 251.759C337.393 253.113 337.641 255.472 337.124 256.874C336.607 258.276 334.569 261.603 334.088 264.906C333.606 268.208 336.095 281.442 336.095 281.442C336.095 281.442 337.095 287.33 340.557 287.841C342.441 289.029 345.559 289.361 345.559 289.361C345.559 289.361 346.762 290.253 346.348 292.52C345.935 294.788 343.902 298.99 343.902 298.99Z" fill="white"/>
<path d="M315.667 339.557C315.667 339.557 313.69 308.941 306.136 300.958L293.12 324.634L304.788 342.646L315.667 339.557Z" fill="#263238"/>
<path d="M356.901 259.567C356.901 259.567 363.087 254.464 367.107 260.959C367.107 260.959 361.694 258.331 356.901 259.567Z" fill="#263238"/>
<path d="M361.333 247.22C361.333 247.22 362.003 253.344 368.113 254.984" stroke="#263238" stroke-miterlimit="10" stroke-linecap="round" stroke-linejoin="round"/>
<path d="M351.265 255.379C350.626 256.63 349.75 257.757 348.696 258.686C347.967 259.329 347.141 259.884 346.213 260.175C344.941 260.574 343.531 260.467 342.308 260.998C342.189 261.049 342.071 261.109 341.99 261.21C341.887 261.338 341.865 261.511 341.854 261.676C341.729 263.544 342.624 265.447 344.143 266.54" stroke="#263238" stroke-miterlimit="10" stroke-linecap="round" stroke-linejoin="round"/>
<path d="M346.272 256.876C346.272 256.876 347.846 249.511 340.558 251.416C340.558 251.416 344.64 252.641 346.272 256.876Z" fill="#263238"/>
<path d="M342.628 247.22C342.628 247.22 348.143 247.144 350.203 244.758" stroke="#263238" stroke-miterlimit="10" stroke-linecap="round" stroke-linejoin="round"/>
<path d="M340.558 270.281C340.558 270.281 344.773 273.727 349.044 272.364C353.315 271.002 358.269 268.196 358.269 268.196C358.269 268.196 352.289 278.936 347.591 278.294C342.893 277.654 340.558 270.281 340.558 270.281Z" fill="#263238"/>
<path d="M370.046 241.559L351.32 236.091L344.265 238.263L338.176 248.496C337.675 249.511 337.411 250.628 337.403 251.761L337.379 255.013C337.371 256.146 337.107 257.261 336.606 258.278L334.861 261.821C334.296 262.967 334.034 264.232 334.096 265.507C334.272 269.058 334.799 276.652 336.226 281.966C336.953 284.673 340.724 288.88 343.485 289.361C347.945 290.137 356.322 288.146 356.322 288.146C358.256 288.146 360.101 287.332 361.404 285.902L367.103 279.653" stroke="#263238" stroke-miterlimit="10" stroke-linecap="round" stroke-linejoin="round"/>
<path d="M373.727 269.41C373.727 269.41 381.846 261.537 385.783 264.244C389.72 266.95 384.799 276.546 379.755 278.022C374.71 279.498 372.496 275.069 372.496 275.069" stroke="#263238" stroke-miterlimit="10" stroke-linecap="round" stroke-linejoin="round"/>
<path d="M375.954 267.135C375.029 267.194 374.079 267.249 373.196 266.963C372.314 266.678 371.505 265.969 371.384 265.05C371.274 264.217 371.729 263.428 372.13 262.688C373.39 260.362 374.257 257.822 374.682 255.211C374.722 254.973 374.752 254.71 374.625 254.506C374.491 254.288 374.224 254.204 373.99 254.106C372.802 253.614 371.993 252.454 371.61 251.226C371.228 249.998 371.213 248.689 371.201 247.403C371.185 245.662 371.169 243.921 372.386 242.8L349.821 235.951L344.14 238.263C344.14 238.263 336.99 238.201 335.27 231.131C333.551 224.062 340.432 224.062 340.432 224.062C340.432 224.062 339.543 216.421 346.29 213.937C353.038 211.453 354.571 222.533 364.598 224.826C374.626 227.118 392.939 226.036 397.272 240.9C402.159 257.661 397.765 271.515 385.068 273.292C385.068 273.292 389.239 266.596 385.658 264.243C382.076 261.889 375.954 267.135 375.954 267.135Z" fill="#263238"/>
<path d="M358.509 224.475C358.509 224.475 353.189 220.507 353.987 216.763C354.785 213.019 359.348 212.426 362.142 215.585C364.938 218.744 366.317 224.337 374.039 226.774C381.84 229.235 362.404 229.838 362.404 229.838L358.509 224.475Z" fill="#263238"/>
<path opacity="0.31" d="M390.6 254.513C389.976 257.145 388.926 259.694 387.675 262.12" stroke="white" stroke-miterlimit="10" stroke-linecap="round" stroke-linejoin="round"/>
<path opacity="0.31" d="M354.05 219.871C354.391 222.879 356.331 225.531 358.754 227.348C361.176 229.165 364.058 230.253 366.933 231.205C370.162 232.275 373.44 233.203 376.751 233.985C379.568 234.651 382.476 235.237 384.922 236.784C389.119 239.44 391.249 244.623 391.216 249.591C391.213 250.097 391.191 250.6 391.149 251.101" stroke="white" stroke-miterlimit="10" stroke-linecap="round" stroke-linejoin="round"/>
<path opacity="0.31" d="M343.877 219.575C342.819 224.365 344.442 230.51 349.034 233.804" stroke="white" stroke-miterlimit="10" stroke-linecap="round" stroke-linejoin="round"/>
<path d="M303.659 328.561C303.97 330.409 303.216 332.076 301.976 332.285C300.736 332.494 299.477 331.165 299.166 329.318C298.855 327.47 299.609 325.803 300.849 325.594C302.089 325.385 303.348 326.714 303.659 328.561Z" stroke="#263238" stroke-miterlimit="10" stroke-linecap="round" stroke-linejoin="round"/>
<path d="M284.132 318.877L307.378 321.783L313.294 368.543L290.057 363.531L284.132 318.877Z" fill="white"/>
<path d="M284.132 318.877L307.378 321.783L313.294 368.543L290.057 363.531L284.132 318.877Z" stroke="#263238" stroke-miterlimit="10" stroke-linecap="round" stroke-linejoin="round"/>
<path d="M283.712 318.487L287.297 316.292L310.637 318.877L315.738 365.88L313.617 369.002L307.378 321.783L283.712 318.487Z" fill="#263238"/>
<path d="M315.667 374.391L316.007 406.355C316.007 406.355 323.523 433.272 370.047 428.815L372.968 424.837" stroke="#263238" stroke-miterlimit="10" stroke-linecap="round" stroke-linejoin="round"/>
<path d="M311.566 340.596L315.667 339.557V346.782" stroke="#263238" stroke-miterlimit="10" stroke-linecap="round" stroke-linejoin="round"/>
<path d="M284.912 328.834C284.912 328.834 278.957 328.683 276.306 330.882C273.656 333.079 270.155 339.622 270.517 344.439C270.88 349.256 271.361 351.658 274.513 354.11C277.664 356.562 299.982 354.498 303.667 345.459C303.667 345.459 295.498 345.227 288.491 347.554C281.483 349.88 292.799 342.429 292.799 342.429C292.799 342.429 300.731 338.332 302.371 336.804C304.012 335.275 303.657 330.177 303.657 330.177C303.657 330.177 305.645 327.553 304.064 326.116C302.483 324.679 299.898 324.636 299.898 324.636L285.79 331.384L284.912 328.834Z" fill="white"/>
<path d="M285.468 328.941C285.468 328.941 281.968 328.013 277.78 329.874C273.593 331.735 271.035 341.272 271.035 341.272C271.035 341.272 269.871 344.63 271.035 350.046C271.035 350.046 273.672 358.529 286.924 354.499" stroke="#263238" stroke-miterlimit="10" stroke-linecap="round" stroke-linejoin="round"/>
<path d="M278.25 334.99L299.899 324.635C299.899 324.635 304.065 325.326 304.763 326.902C305.461 328.478 290.951 337.844 284.132 339.558" stroke="#263238" stroke-miterlimit="10" stroke-linecap="round" stroke-linejoin="round"/>
<path d="M303.658 328.562C303.658 328.562 303.832 334.061 302.67 336.387C301.506 338.714 289.443 343.711 289.443 343.711" stroke="#263238" stroke-miterlimit="10" stroke-linecap="round" stroke-linejoin="round"/>
<path d="M293.12 346.782C293.12 346.782 302.108 344.064 303.668 345.46C305.229 346.855 296.555 350.046 296.555 350.046" stroke="#263238" stroke-miterlimit="10" stroke-linecap="round" stroke-linejoin="round"/>
<path d="M367.106 429.313C367.106 429.313 373.954 449.346 360.473 464.175C346.992 479.004 225.21 512.258 153.31 517.201L149.265 503.271L307.205 437.592L303.668 434.066L259.055 409.35L257.284 462.497L238.151 469.719C238.151 469.719 212.583 390.712 211.235 373.093C209.887 355.475 225.917 345.921 241.196 351.751C256.475 357.581 300.97 377.67 315.667 396.206L316.007 406.354C316.007 406.354 321.162 430.4 367.106 429.313Z" fill="#263238"/>
<path d="M306.726 437.5L324.61 429.744" stroke="white" stroke-miterlimit="10" stroke-linecap="round" stroke-linejoin="round"/>
<path d="M303.716 432.173C303.716 432.173 303.507 426.323 305.388 420.055" stroke="white" stroke-miterlimit="10" stroke-linecap="round" stroke-linejoin="round"/>
<path d="M241.25 377.857C241.25 377.857 257.85 390.082 259.055 409.352" stroke="white" stroke-miterlimit="10" stroke-linecap="round" stroke-linejoin="round"/>
<path d="M346.267 289.542C346.267 289.542 346.995 293.369 344.751 298.29C344.751 298.29 312.15 296.545 306.134 300.959L295.698 318.877" stroke="#263238" stroke-miterlimit="10" stroke-linecap="round" stroke-linejoin="round"/>
<path d="M354.05 306.883C344.663 304.577 343.777 298.478 343.777 298.478L336.844 298.016C336.844 298.016 339.927 312.103 353.035 314.39C366.138 316.675 378.516 304.722 378.521 304.718C373.999 302.6 370.887 301.258 370.887 301.258C370.887 301.258 363.436 309.189 354.05 306.883Z" fill="#263238"/>
<path d="M406.57 376.01C406.57 376.01 382.344 383.797 370.405 366.336L372.93 344.523C376.466 336.99 386.184 320.303 403.421 318.082C411.771 324.261 407.699 365.584 406.57 376.01Z" fill="#263238"/>
<path d="M401.695 377.207C401.695 377.207 397.298 411.484 382.28 426.109C382.28 426.109 364.192 425.336 350.223 416.407C336.254 407.479 328.55 388.547 317.569 375.526C317.569 375.526 303.701 376.902 299.724 374.39C295.746 371.877 288.144 364.955 288.144 364.955L289.442 360.381L286.923 355.654V348.195L285.117 345.921L284.132 342.425L288.145 343.167L311.566 363.414L313.294 364.954L315.425 363.007L313.294 344.839C313.294 344.839 325.184 353.941 326.285 356.574C327.385 359.208 328.59 363.007 328.59 363.007C328.59 363.007 338.142 374.266 344.919 379.234C351.697 384.201 364.182 392.122 368.196 396.205C368.196 396.205 373.442 384.559 376.909 372.936C376.91 372.938 386.696 378.749 401.695 377.207Z" fill="white"/>
<path d="M297.662 361.712L285.117 345.923L284.132 342.427L289.442 343.71L313.293 364.956L315.424 363.009L313.293 344.842C313.293 344.842 323.398 353.061 325.128 354.791C326.858 356.522 328.589 363.011 328.589 363.011C328.589 363.011 336.732 372.883 346.572 380.562C356.411 388.241 368.035 392.182 375.929 406.356" stroke="#263238" stroke-miterlimit="10" stroke-linecap="round" stroke-linejoin="round"/>
<path d="M286.923 348.196V355.655L293.12 364.956" stroke="#263238" stroke-miterlimit="10" stroke-linecap="round" stroke-linejoin="round"/>
<path d="M289.531 359.568L288.146 364.956C288.146 364.956 296.945 374.041 301.413 375.338C305.88 376.636 317.128 375.338 317.128 375.338C317.911 375.248 320.845 379.334 321.306 379.867C327.511 387.049 331.456 395.582 336.797 403.321C347.499 418.829 363.554 424.331 382.28 426.109C382.899 426.167 397.585 408.784 401.695 377.207" stroke="#263238" stroke-miterlimit="10" stroke-linecap="round" stroke-linejoin="round"/>
<path d="M368.775 396.207C368.775 396.207 374.51 384.937 376.91 372.938" stroke="#263238" stroke-miterlimit="10" stroke-linecap="round" stroke-linejoin="round"/>
<path d="M374.615 277.765C370.863 285.767 369.192 292.1 370.132 300.959C370.132 300.959 401.385 313.096 404.778 319.559C408.172 326.022 410.233 356.507 406.268 374.973" stroke="#263238" stroke-miterlimit="10" stroke-linecap="round" stroke-linejoin="round"/>
<path d="M344.671 298.657C344.671 298.657 357.683 302.914 361.407 285.903L357.682 288.008L346.63 289.737L344.671 298.657Z" fill="#263238"/>
</svg>
