<svg width="39" height="70" viewBox="0 0 39 70" fill="none" xmlns="http://www.w3.org/2000/svg">
<path d="M12.8228 36.8118C12.8228 36.8118 10.9331 37.8696 14.1698 38.2272C18.0906 38.6578 20.0947 38.5958 24.4148 37.8103C24.4148 37.8103 25.5536 38.4951 27.1394 39.0884C17.4519 43.081 5.21421 38.8571 12.8228 36.8118ZM11.638 31.6003C11.638 31.6003 9.51823 33.1109 12.7572 33.4331C16.9461 33.8488 20.253 33.8831 25.9794 32.8225C25.9794 32.8225 26.7694 33.5952 28.014 34.0165C16.3034 37.3122 3.25957 34.2761 11.638 31.6003Z" fill="#0074BD"/>
<path d="M21.6174 22.7598C24.0059 25.4045 20.9914 27.7825 20.9914 27.7825C20.9914 27.7825 27.0521 24.773 24.2689 21.0029C21.6686 17.4886 19.676 15.7433 30.4665 9.72314C30.4665 9.72314 13.5278 13.7916 21.6174 22.7598Z" fill="#EA2D2E"/>
<path d="M34.4299 40.6664C34.4299 40.6664 35.8293 41.7762 32.889 42.6342C27.2984 44.2632 9.61736 44.7547 4.7063 42.699C2.94211 41.96 6.25241 40.9349 7.29331 40.7195C8.3791 40.4931 8.99938 40.5347 8.99938 40.5347C7.03611 39.2045 -3.69114 43.1468 3.55089 44.2776C23.301 47.3569 39.5521 42.8905 34.4299 40.6664ZM13.7326 26.2006C13.7326 26.2006 4.73967 28.2558 10.5484 29.0031C13.0019 29.3186 17.8894 29.2461 22.4454 28.8785C26.1677 28.578 29.9032 27.9353 29.9032 27.9353C29.9032 27.9353 28.5919 28.4767 27.6419 29.0999C18.5079 31.4109 0.866632 30.3343 5.94572 27.9718C10.24 25.9731 13.7326 26.2006 13.7326 26.2006ZM29.8658 34.8743C39.1499 30.2347 34.8569 25.7755 31.8607 26.376C31.1282 26.5233 30.7991 26.6506 30.7991 26.6506C30.7991 26.6506 31.0724 26.2388 31.592 26.0622C37.5198 24.0584 42.0776 31.9744 29.6805 35.1096C29.6805 35.1096 29.8226 34.9856 29.8658 34.8743Z" fill="#0074BD"/>
<path d="M24.2693 0C24.2693 0 29.4106 4.94797 19.3922 12.5551C11.3584 18.6588 17.5601 22.1383 19.3888 26.1154C14.6992 22.0447 11.2595 18.4612 13.5668 15.1268C16.9554 10.2325 26.3431 7.85841 24.2693 0Z" fill="#EA2D2E"/>
<path d="M14.6457 47.4515C23.5552 47.9995 37.2412 47.1465 37.5651 43.0908C37.5651 43.0908 36.9425 44.628 30.2005 45.8479C22.5949 47.2251 13.2129 47.0651 7.6499 46.1817C7.6499 46.1817 8.7892 47.0895 14.6457 47.4515Z" fill="#0074BD"/>
<path d="M37.1538 54.7259H36.8822V54.5797H37.613V54.7259H37.3425V55.4549H37.1532L37.1538 54.7259ZM38.6124 54.7624H38.609L38.3397 55.4549H38.2154L37.9479 54.7624H37.945V55.4549H37.7654V54.5797H38.0284L38.2764 55.1991L38.525 54.5797H38.7862V55.4549H38.6124V54.7624ZM13.1854 62.9491C12.3453 63.6498 11.4569 64.0439 10.6588 64.0439C9.52293 64.0439 8.90667 63.3875 8.90667 62.3363C8.90667 61.1988 9.56608 60.3658 12.2083 60.3658H13.1848L13.1854 62.9491ZM15.5048 65.4665V57.6745C15.5048 55.6824 14.3235 54.3683 11.4787 54.3683C9.81811 54.3683 8.36234 54.7635 7.17873 55.2661L7.51937 56.6461C8.45152 56.3167 9.65699 56.0112 10.84 56.0112C12.4799 56.0112 13.1848 56.6461 13.1848 57.9601V58.9449H12.3654C8.38305 58.9449 6.58607 60.4311 6.58607 62.6662C6.58607 64.5919 7.77025 65.6862 9.99993 65.6862C11.4327 65.6862 12.5035 65.1172 13.503 64.2842L13.6848 65.467L15.5048 65.4665ZM23.2451 65.4665H20.3526L16.8708 54.5681H19.3974L21.5586 61.2652L22.0391 63.2773C23.1301 60.3669 23.9034 57.4121 24.2901 54.5687H26.7476C26.0899 58.1561 24.9046 62.0955 23.2451 65.4665ZM34.3435 62.9491C33.5006 63.6498 32.6116 64.0439 31.8164 64.0439C30.6794 64.0439 30.0637 63.3875 30.0637 62.3363C30.0637 61.1988 30.7248 60.3658 33.3642 60.3658H34.343L34.3435 62.9491ZM36.6641 65.4665V57.6745C36.6641 55.6824 35.4794 54.3683 32.6369 54.3683C30.9745 54.3683 29.5193 54.7635 28.3357 55.2661L28.677 56.6461C29.6091 56.3167 30.8163 56.0112 31.9993 56.0112C33.6369 56.0112 34.3435 56.6461 34.3435 57.9601V58.9449H33.5242C29.5406 58.9449 27.7442 60.4311 27.7442 62.6662C27.7442 64.5919 28.9273 65.6862 31.1564 65.6862C32.5897 65.6862 33.6588 65.1172 34.6611 64.2842L34.8441 65.467L36.6641 65.4665ZM4.04278 67.3186C3.3828 68.248 2.3137 68.9836 1.14448 69.3982L0 68.1002C0.890149 67.6607 1.65256 66.9516 2.00758 66.2907C2.3137 65.7023 2.44086 64.9456 2.44086 63.135V50.6907H4.90589V62.964C4.90589 65.3857 4.70565 66.3649 4.04278 67.3186Z" fill="#EA2D2E"/>
</svg>
