<svg width="47" height="46" viewBox="0 0 47 46" fill="none" xmlns="http://www.w3.org/2000/svg">
<rect x="0.83374" width="45.6446" height="45.6446" fill="#F7DF1E"/>
<path d="M11.8339 37.4339L15.4649 35.32C16.1655 36.5148 16.8027 37.5257 18.3312 37.5257C19.7964 37.5257 20.7204 36.9744 20.7204 34.8299V20.2453H25.1792V34.8905C25.1792 39.3332 22.4721 41.3554 18.5223 41.3554C14.9553 41.3554 12.8848 39.5783 11.8337 37.4336M27.6011 36.9743L31.2317 34.9522C32.1875 36.4536 33.4297 37.5566 35.6272 37.5566C37.4749 37.5566 38.653 36.6679 38.653 35.4423C38.653 33.9717 37.4427 33.4507 35.4042 32.5931L34.2897 32.1331C31.0727 30.816 28.9388 29.1614 28.9388 25.6685C28.9388 22.4513 31.4867 20 35.4682 20C38.3029 20 40.3413 20.95 41.8063 23.4317L38.3344 25.5767C37.5698 24.2592 36.7421 23.7384 35.468 23.7384C34.162 23.7384 33.3339 24.535 33.3339 25.5767C33.3339 26.8635 34.162 27.3846 36.073 28.1813L37.1876 28.6407C40.978 30.2035 43.1118 31.7966 43.1118 35.3812C43.1118 39.2421 39.9587 41.356 35.7226 41.356C31.5822 41.356 28.9067 39.4564 27.601 36.9744" fill="black"/>
</svg>
