<svg width="98" height="64" viewBox="0 0 98 64" fill="none" xmlns="http://www.w3.org/2000/svg">
<path d="M29.3238 41.8313L32.2619 51.0018C32.922 53.0839 33.1973 54.5374 33.087 55.3659C34.6939 51.2259 35.8166 46.7144 36.4554 41.8313H39.9882C38.4689 49.7811 36.4657 55.5579 33.9786 59.1616C32.0409 61.9387 29.9182 63.3272 27.6067 63.3272C26.9904 63.3272 26.2306 63.1481 25.329 62.7925V60.8761C25.7695 60.9383 26.2863 60.9715 26.8807 60.9715C27.9588 60.9713 28.8284 60.6842 29.4894 60.1102C30.2811 59.411 30.6775 58.6253 30.6775 57.7543C30.6775 57.1596 30.3684 55.9392 29.753 54.093L25.6594 41.8313H29.3238ZM6.83785 36.1948L12.2192 51.9896H12.2524L17.6669 36.1948H22.0905C23.0592 44.0279 23.6313 51.1949 23.8069 57.6913H20.0773C19.9459 51.6187 19.5829 45.9079 18.9882 40.5589H18.9557L13.2764 57.6913H10.4362L4.79124 40.5589H4.75801C4.33945 45.696 4.07536 51.4067 3.96572 57.6913H0.564697C0.784483 50.0478 1.33452 42.883 2.21479 36.1948H6.83785Z" fill="#00758F"/>
<path d="M67.1233 35.8759C72.9119 35.8759 75.8063 39.4335 75.8063 46.5453C75.8063 50.4099 74.9359 53.329 73.1967 55.3011C72.8832 55.6615 72.5367 55.9728 72.1719 56.2613L76.2684 58.2097L76.2644 58.2095L74.8099 60.6257L69.4752 57.6314C68.5908 57.8832 67.6183 58.0092 66.5578 58.0092C63.7155 58.0092 61.5924 57.2123 60.1887 55.6206C58.6479 53.8598 57.8779 51.0878 57.8779 47.3093C57.8779 43.4665 58.7469 40.5584 60.4866 38.5838C62.0712 36.7776 64.2838 35.8759 67.1233 35.8759ZM49.3969 35.907C51.4658 35.907 53.347 36.4395 55.0415 37.5009L54.1808 39.3458C52.7309 38.7529 51.3013 38.4552 49.8916 38.4552C48.7477 38.4552 47.8663 38.72 47.2519 39.253C46.6341 39.7812 46.2519 40.4609 46.2519 41.2895C46.2519 42.5628 47.1949 43.667 48.936 44.5999C49.5064 44.8999 50.0748 45.2033 50.6412 45.5101L50.7711 45.5804L50.8363 45.6157L50.9664 45.686L51.0313 45.7212L51.1612 45.7917C52.4792 46.5064 53.7193 47.1887 53.7193 47.1887C55.4603 48.3775 56.3281 49.645 56.3281 51.7326C56.3281 53.5557 55.6336 55.0523 54.2492 56.2233C52.8638 57.3891 51.0026 57.9736 48.6718 57.9736C46.4919 57.9736 44.3792 57.3008 42.3328 55.9665L43.2901 54.1199C45.0512 54.9691 46.6448 55.3932 48.0759 55.3932C49.418 55.3932 50.4686 55.1049 51.2286 54.5357C51.9871 53.9622 52.4416 53.1625 52.4416 52.1484C52.4416 50.872 51.5187 49.7809 49.8255 48.8656C49.2955 48.5839 48.7672 48.2995 48.2404 48.0124L48.1106 47.9418C47.8724 47.8122 47.6324 47.6811 47.3973 47.5527L47.2698 47.4829C46.1265 46.8574 45.1381 46.3108 45.1381 46.3108C43.4455 45.1198 42.5967 43.8419 42.5967 41.7364C42.5967 39.995 43.2297 38.5874 44.4936 37.5167C45.7607 36.4435 47.3951 35.907 49.3969 35.907ZM82.6093 36.1947V55.0468H89.6406V57.6911H79.0433V36.1949L82.6093 36.1947ZM93.5476 55.055V55.5018H92.7746V57.6888H92.1836V55.5018H91.3806V55.055H93.5476ZM94.9751 55.055L95.7174 56.8503L96.3992 55.055H97.237V57.6888H96.68V55.6844L95.9039 57.6888H95.5023L94.7249 55.6844H94.6951V57.6888H94.1681V55.055H94.9751ZM66.7592 38.5195C63.348 38.5195 61.6415 41.2278 61.6415 46.6407C61.6415 49.7413 62.0937 51.9896 62.9964 53.391C63.8325 54.6879 65.142 55.3351 66.925 55.3351C70.3362 55.3351 72.0426 52.6057 72.0426 47.1496C72.0426 44.0924 71.5904 41.8633 70.6888 40.4612C69.8517 39.1672 68.5428 38.5195 66.7594 38.5195" fill="#F29111"/>
<path d="M57.8182 1.33198C58.9498 -1.34286 62.9065 0.6828 64.442 1.61716C64.8183 1.85093 65.2499 2.34481 65.6814 2.52736C66.3545 2.55279 67.0271 2.60347 67.7014 2.63053C68.9661 2.91643 70.1507 3.15002 71.1473 3.69604C75.7787 6.31983 78.7936 8.99358 81.5683 13.41C82.1612 14.3454 82.4574 15.3577 82.9418 16.37C83.614 17.8789 84.3692 19.4628 85.1494 20.8896C85.4988 21.566 85.769 22.3182 86.254 22.8895C86.4434 23.1507 86.9814 23.2277 87.3029 23.3837C88.1919 23.8264 89.2689 24.1624 90.105 24.6819C91.6664 25.6184 93.176 26.7344 94.5483 27.8769C95.0598 28.318 95.4084 28.9423 95.8957 29.4087V29.6441C95.4631 29.7718 95.0321 29.9026 94.6006 30.0074C93.6582 30.2403 92.8234 30.1876 91.9092 30.4206C91.3442 30.5783 90.6428 30.7863 90.0502 30.8391L90.105 30.8922C90.4536 31.8503 92.3395 32.6296 93.202 33.2026C94.2496 33.9299 95.2203 34.812 96.0017 35.825C96.2715 36.0835 96.5413 36.3187 96.8098 36.5764C96.9975 36.8376 97.0504 37.1755 97.2403 37.4084V37.4872C97.03 37.4158 96.8787 37.2796 96.7354 37.1372L96.6499 37.0512C96.5643 36.9659 96.478 36.882 96.3797 36.8128C95.7853 36.4222 95.195 35.955 94.6006 35.5919C93.5787 34.9682 92.3935 34.6062 91.3442 33.9801C90.751 33.6166 90.1854 33.2026 89.6199 32.7867C89.1073 32.4221 88.5427 31.7221 88.2206 31.2026C88.0308 30.9156 88.0048 30.5783 87.788 30.3707C87.8267 30.0239 88.157 29.9209 88.4902 29.8363L88.5669 29.8169C88.6819 29.7882 88.7944 29.7595 88.8926 29.7215C90.2925 29.1497 91.9615 28.9423 94.1167 28.9942C94.0355 28.4736 92.6888 27.825 92.2589 27.5133C91.396 26.915 90.4823 26.2907 89.5669 25.7461C89.0818 25.4609 88.2459 25.2528 87.7085 25.0197C86.9814 24.7338 85.3653 24.4481 84.9623 23.9036C84.2778 23.0451 83.7862 22.0212 83.3088 20.9869L83.1789 20.7047L83.0486 20.4226C82.4844 19.1771 81.7835 17.8785 81.218 16.6032C80.9223 15.9811 80.7866 15.4351 80.4627 14.8384C78.4977 11.1769 75.5893 8.11136 72.0631 5.95546C70.9043 5.25397 69.6122 4.60478 68.1859 4.16358C67.3775 3.92872 66.4074 4.05859 65.5462 3.8784H64.9793C64.4956 3.74726 64.0917 3.25392 63.7142 2.99381C62.8806 2.44925 62.0456 2.08361 61.0487 1.69508C60.6994 1.53923 59.7018 1.17632 59.3536 1.46204C59.138 1.51417 59.0287 1.59246 58.9756 1.80062C58.7611 2.11122 58.9498 2.57913 59.0833 2.86557C59.4877 3.69567 60.0527 4.18901 60.5655 4.8905C61.0217 5.51262 61.5883 6.21412 61.9118 6.89055C62.6097 8.34458 62.9346 9.95555 63.5813 11.4094C63.8211 11.9561 64.2005 12.5783 64.5496 13.0714C64.8455 13.4629 65.3834 13.7458 65.5462 14.2414C65.8706 14.7609 65.0605 16.475 64.873 17.0194C64.1716 19.1495 64.3075 22.1104 65.1153 23.9568L65.1583 24.0541L65.2014 24.1528C65.4963 24.829 65.812 25.5572 66.5962 25.7463C66.6502 25.6947 66.5962 25.7218 66.7033 25.6947C66.893 24.2656 66.9465 22.8893 67.4585 21.7711C67.7544 21.072 68.3452 20.5777 68.7503 20.007C69.0203 20.1625 69.0203 20.6313 69.1811 20.9415C69.5316 21.7462 69.9079 22.6284 70.3399 23.4355C71.2266 25.0975 72.2244 26.7088 73.3548 28.1627C73.7334 28.682 74.2706 29.2536 74.7551 29.7213C74.9709 29.9024 75.2126 30.007 75.3748 30.2401H75.4277V30.3186C74.6199 30.0321 74.1078 29.2282 73.4636 28.7588C72.2506 27.8766 70.798 26.5517 69.9619 25.2804C69.6122 24.5506 69.2342 23.8511 68.8573 23.1249V23.0724C68.6963 23.2798 68.7503 23.4858 68.6696 23.7997C68.3199 25.0975 68.5892 26.578 67.3775 27.0448C66.0041 27.5916 64.9795 26.1626 64.5496 25.5133C63.1757 23.3579 62.7994 19.7218 63.7683 16.7867C63.9835 16.137 64.0128 15.3577 64.3885 14.839C64.3073 14.37 63.9316 14.2417 63.7142 13.9544C63.3374 13.4632 63.0147 12.891 62.7195 12.3456C62.1527 11.2801 61.7494 10.007 61.3191 8.86426C61.1299 8.39762 61.0757 7.92917 60.8871 7.48742C60.5653 6.81317 59.9722 6.13674 59.5147 5.54023C58.8952 4.68289 57.0908 3.02124 57.8182 1.33198ZM66.6496 6.42064C66.7216 6.49003 66.8084 6.5507 66.8983 6.61046L67.0067 6.68203C67.1511 6.7783 67.2911 6.87965 67.3768 7.0177C67.5127 7.20043 67.538 7.3808 67.7008 7.56389C67.7008 8.18819 67.5127 8.60324 67.133 8.86189C67.133 8.86189 67.1071 8.88914 67.0805 8.91457C66.8653 8.49843 66.6766 8.08447 66.4599 7.6687C66.1929 7.30578 65.8154 7.01788 65.5979 6.60319H65.5456V6.55106C65.8706 6.47387 66.1929 6.42064 66.6496 6.42064Z" fill="#00758F"/>
</svg>
