<svg width="105" height="23" viewBox="0 0 105 23" fill="none" xmlns="http://www.w3.org/2000/svg">
<path fill-rule="evenodd" clip-rule="evenodd" d="M100.2 1.67944L104.565 1.70257C104.565 1.70257 96.4498 12.2805 95.7872 13.1426C95.572 13.4217 95.2452 13.7228 95.0793 14.096C94.6602 15.0341 94.2298 17.0921 94.2298 17.0921L90.2362 17.1114C90.2362 17.1114 90.8577 14.9661 90.832 13.8235C90.8096 12.8254 90.2798 11.8285 89.9827 10.8274C89.6824 9.81399 89.2747 7.83108 89.2747 7.83108H93.3805L93.9468 10.0102L100.2 1.67944Z" fill="white"/>
<path fill-rule="evenodd" clip-rule="evenodd" d="M91.9351 3.9104C92.7406 4.37751 93.235 6.95436 93.235 6.95436C93.235 6.95436 89.0203 7.01415 86.7267 7.01415H84.7447L82.3378 17.0922H78.657C78.657 17.0922 80.9477 6.1399 81.4885 4.15424C81.6637 3.5113 82.6891 3.62166 84.4205 3.62166H87.1854C88.9708 3.62166 91.0575 3.40232 91.9351 3.9104ZM74.7991 8.81869C74.7991 8.81869 74.9138 8.17183 74.4099 7.42265C73.9793 6.78402 73.5818 6.63544 72.4491 6.60133C69.251 6.50469 69.3131 8.78458 69.3131 8.78458L74.7991 8.81869ZM78.2676 6.20773C78.7362 7.83409 77.8429 11.6555 77.8429 11.6555C77.8429 11.6555 73.1779 11.5806 70.6227 11.6555C69.8282 11.6788 68.8773 11.5723 68.6407 11.9279C68.3079 12.4262 68.7623 13.1932 69.1475 13.5172C69.5906 13.8903 70.454 13.9328 70.7643 13.9706C72.8383 14.2241 77.1789 14.0361 77.1789 14.0361L76.427 17.239C76.427 17.239 70.293 17.535 67.2249 16.8305C66.6191 16.6917 66.0512 16.4112 65.6676 16.0135C65.5628 15.9047 65.4719 15.7564 65.3729 15.6282C65.2938 15.5258 65.0632 15.1897 64.9597 14.9239C64.2589 13.1276 65.0418 9.68626 65.8092 7.84212C65.8982 7.62847 66.0101 7.35737 66.1279 7.12705C66.275 6.83989 66.3995 6.51567 66.5171 6.34396C66.5961 6.22556 66.6941 6.14931 66.7762 6.03758C66.871 5.90547 66.9812 5.77747 67.0833 5.66319C67.3665 5.34721 67.6879 5.12375 68.0744 4.84619C69.3526 3.92529 71.666 3.21042 74.4451 3.48406C75.4915 3.58755 77.0717 3.94705 77.8429 4.98222C78.0496 5.25861 78.1516 5.80726 78.2676 6.20773ZM61.385 3.60912L64.9542 3.58893C64.9542 3.58893 62.965 12.6659 61.9513 17.0922H57.8454C54.976 17.0922 52.4206 17.4341 51.3333 15.4578C50.2786 13.539 51.2852 10.3835 51.7579 8.23965C52.0921 6.72247 52.7959 3.62147 52.7959 3.62147L56.4938 3.58893C56.4938 3.58893 55.4489 8.41685 55.0141 10.8275C54.8584 11.6909 54.5373 12.504 54.8727 13.1425C55.1912 13.7501 55.6372 13.7936 56.9961 13.8236C57.4267 13.8334 58.8367 13.8236 58.8367 13.8236L61.385 3.60912ZM44.6793 10.1463C45.053 8.86906 45.5981 7.484 45.5288 6.33298C45.4538 5.10199 44.3808 3.98116 43.6884 3.74555C41.6031 3.03733 39.6508 4.02742 38.8749 4.83501C37.8711 5.88097 37.5312 7.10275 37.1759 8.78478C36.9114 10.0334 36.6946 11.3516 37.1759 12.3254C38.028 14.0471 40.6855 13.6711 43.5468 13.6876C43.9714 12.5926 44.3225 11.3628 44.6793 10.1463ZM49.6345 5.10748C50.042 7.95915 48.4779 11.1068 47.4004 13.844C48.4991 13.9395 49.4619 13.8293 49.5312 13.9081C49.6033 14.0102 48.7948 17.1753 48.513 17.1836C47.641 17.2053 44.7517 17.2284 43.5468 17.2284C39.6151 17.2284 35.9372 17.4748 34.0615 15.5942C33.2998 14.8302 32.7731 13.5198 32.6455 12.5979C32.4332 11.059 32.6993 9.3646 33.0704 7.96758C33.406 6.7062 33.8361 5.51598 34.4862 4.42632C36.1383 1.65227 39.0122 -0.406899 43.8298 0.0684442C44.7643 0.160965 46.1063 0.554569 46.9446 1.02168C47.0024 1.05441 47.2052 1.20966 47.2516 1.23691C48.3844 1.93022 49.4165 3.58481 49.6345 5.10748ZM32.2392 3.62558C32.0014 4.66742 31.7637 5.84843 31.513 6.87791H27.549C27.856 5.7367 28.0912 4.60214 28.3985 3.60931C29.6669 3.60931 30.8463 3.62558 32.2394 3.62558M27.4074 7.83134H31.23C30.7302 10.4925 29.7405 14.7851 28.9647 17.7732C28.4792 19.6432 28.155 21.0077 26.8411 21.995C26.7235 22.0836 26.6557 22.0415 26.5579 22.1312C26.3158 22.3533 25.1959 22.6109 24.576 22.676C23.568 22.781 22.4283 22.6897 21.1895 22.6652C21.5136 21.5254 21.8804 20.1566 22.1694 19.1349C25.1892 19.4866 25.2656 16.7408 25.8502 14.0961C26.1884 12.5679 27.2136 8.4441 27.4074 7.83134Z" fill="white"/>
<path fill-rule="evenodd" clip-rule="evenodd" d="M18.4881 14.7771L18.4062 14.9812C17.0104 17.5961 14.5369 19.2005 11.0089 19.2712C9.3596 19.3038 7.78816 18.8969 6.76159 18.4541C4.54625 17.4969 2.68282 15.721 1.66521 13.8237C0.205439 11.104 -0.0578254 7.32042 2.97746 4.49463C3.02433 4.49463 2.60926 5.10738 2.65612 5.10738L2.57258 5.36887C0.385364 11.9564 7.12409 17.6016 13.6747 16.9559C15.249 16.8008 17.2565 15.9715 18.4881 14.7771Z" fill="#21609B"/>
<path fill-rule="evenodd" clip-rule="evenodd" d="M14.5241 12.053C16.1722 12.064 17.8936 11.323 18.913 10.2826C18.0211 12.4603 15.4388 13.8603 11.976 13.4149C9.07644 13.0417 6.3144 10.2349 6.02995 7.42266C5.8219 5.37565 6.5634 4.15406 7.78538 2.67236C7.36074 3.44722 7.202 4.04508 7.16247 4.42633C6.6983 8.85399 10.8392 12.0299 14.5241 12.053Z" fill="#21609B"/>
<path fill-rule="evenodd" clip-rule="evenodd" d="M18.7474 6.55382C18.4912 7.11913 17.0162 8.18665 16.3647 8.31994C13.7853 8.8486 12.1333 7.6719 11.2679 6.3331C11.1394 6.13297 10.9016 5.58686 10.859 5.44788C10.5234 4.35018 10.6776 2.68991 11.6787 1.83057C11.3772 2.64796 11.3331 3.59688 11.4919 4.21395C11.5881 4.58717 11.8811 5.23834 12.1743 5.64802C12.7078 6.39445 13.046 6.57577 13.7315 6.97192C14.0402 7.1503 14.3713 7.29339 14.5143 7.33279C15.1641 7.51666 16.5359 8.00161 18.7474 6.55382Z" fill="#21609B"/>
</svg>
