<svg width="128" height="34" viewBox="0 0 128 34" fill="none" xmlns="http://www.w3.org/2000/svg">
<path d="M8.31562 0C8.21451 0.000754605 8.11527 0.0252302 8.0273 0.0711136L1.07984 3.75083C1.05606 3.76451 1.03724 3.78183 1.01544 3.79642C0.995622 3.80918 0.976797 3.82255 0.958963 3.83653C0.940468 3.85598 0.923294 3.87665 0.907441 3.89853C0.894561 3.91494 0.878708 3.92862 0.867809 3.94594C0.853278 3.97268 0.841058 4.00034 0.83115 4.02891C0.825205 4.0444 0.815297 4.05808 0.811334 4.07449C0.797982 4.11968 0.790989 4.16625 0.790527 4.21307L0.790527 26.1063C0.790527 26.2978 0.901497 26.4737 1.08083 26.5685L14.9738 33.9289C15.0045 33.9453 15.0372 33.9544 15.0699 33.9654C15.0847 33.9699 15.0996 33.9781 15.1145 33.9818C15.1633 33.9939 15.2129 34 15.2631 34C15.3133 33.9997 15.3632 33.9936 15.4117 33.9818C15.4249 33.9781 15.4381 33.9733 15.4513 33.9672C15.485 33.9562 15.5197 33.9462 15.5514 33.9289L29.4453 26.5685C29.5338 26.5222 29.6073 26.4551 29.6583 26.374C29.7093 26.2929 29.736 26.2009 29.7356 26.1072V19.117L36.3918 15.5905C36.4797 15.5433 36.5528 15.4759 36.6037 15.3948C36.6546 15.3138 36.6816 15.2219 36.6821 15.1282V7.82988C36.682 7.7831 36.6753 7.73653 36.6623 7.6913L36.6415 7.64663C36.6296 7.61928 36.6207 7.5901 36.6038 7.56457C36.5939 7.54634 36.5771 7.53266 36.5642 7.51716C36.5474 7.49619 36.5335 7.4734 36.5127 7.45516C36.4968 7.43966 36.475 7.42781 36.4562 7.41505C36.4364 7.39864 36.4153 7.38344 36.3928 7.36946L29.4443 3.68884C29.3566 3.64191 29.257 3.6172 29.1555 3.6172C29.0541 3.6172 28.9544 3.64191 28.8667 3.68884L21.9202 7.36946C21.8971 7.38344 21.8757 7.39864 21.8558 7.41505C21.836 7.4272 21.8172 7.44027 21.7994 7.45425C21.7809 7.4737 21.7637 7.49437 21.7478 7.51625C21.735 7.53266 21.7181 7.54725 21.7082 7.56457C21.6937 7.59071 21.6811 7.61806 21.6706 7.64663L21.6507 7.6913C21.6377 7.73653 21.6311 7.7831 21.6309 7.82988V14.8201L15.8417 17.8871V4.21307C15.8417 4.16598 15.835 4.1191 15.8219 4.07358L15.8011 4.02891C15.7892 4.00155 15.7803 3.97238 15.7634 3.94685C15.7535 3.92862 15.7367 3.91494 15.7238 3.89853C15.708 3.87726 15.6908 3.85659 15.6723 3.83653C15.6544 3.82255 15.6356 3.80918 15.6158 3.79642C15.596 3.78062 15.5749 3.76542 15.5524 3.75083H15.5514L8.60493 0.0711136C8.51667 0.0250802 8.41707 0.000599488 8.31562 0ZM8.31562 1.14695L14.1019 4.21307L8.31562 7.27829L2.52937 4.21307L8.31562 1.14695ZM29.156 4.76467L34.9423 7.83079L29.156 10.896L23.3698 7.83079L29.156 4.76467ZM14.6835 5.13392V18.4998L11.3257 20.2795L8.89524 21.5677V8.20186L12.254 6.42218L14.6835 5.13392ZM1.94778 5.13392L4.3782 6.42218L7.737 8.20095V22.4913C7.737 22.5114 7.74294 22.5305 7.74591 22.5506C7.74889 22.577 7.74988 22.6035 7.75681 22.629C7.76375 22.65 7.77663 22.67 7.78456 22.6901C7.79446 22.7119 7.8014 22.7357 7.81428 22.7566L7.81626 22.7584C7.82815 22.7767 7.84499 22.7922 7.85887 22.8095C7.8734 22.8296 7.88925 22.8484 7.90642 22.866L7.90841 22.8678C7.92624 22.8818 7.94473 22.8946 7.96389 22.9061C7.98371 22.9226 8.00451 22.9377 8.02631 22.9517H8.02928L8.03126 22.9536L14.6845 26.4181V32.5467L1.94877 25.8L1.94778 5.13392ZM45.9183 7.83262V25.8063H55.1535V23.1614H49.1265V7.83262H45.9183ZM124.572 7.83262V25.8063H127.612V7.83262H124.572ZM22.7862 8.75163L25.2186 10.0399L28.5764 11.8187V17.8871L26.145 16.5998L22.7862 14.821V8.75163ZM35.5229 8.75163V14.821L29.7337 17.888V11.8187L33.0925 10.0399L35.5229 8.75163ZM62.4626 13.5318C61.4771 13.5318 60.5752 13.6989 59.7568 14.0332C58.9593 14.3533 58.2419 14.821 57.6493 15.4072C56.4494 16.6123 55.7868 18.1891 55.7936 19.8236C55.7936 20.6794 55.9564 21.4839 56.282 22.2369C56.5982 22.9772 57.0619 23.6565 57.6493 24.24C58.2352 24.8217 58.9377 25.2794 59.7568 25.6131C60.5752 25.9473 61.4774 26.1145 62.4636 26.1145C63.2265 26.1145 63.9845 25.9431 64.7375 25.6003C65.4905 25.2587 66.0718 24.7879 66.4813 24.188V25.8063H69.523V13.8409H66.4813V15.4583C66.0718 14.8596 65.4905 14.3888 64.7375 14.046C63.9845 13.7038 63.2265 13.5327 62.4636 13.5327L62.4626 13.5318ZM87.1869 13.5318C86.2008 13.5318 85.2982 13.6989 84.4791 14.0332C83.682 14.3535 82.965 14.8211 82.3727 15.4072C81.7839 15.9942 81.3201 16.6777 81.0054 17.4221C80.6784 18.1868 80.5126 19.0018 80.5169 19.8236C80.5169 20.6794 80.6797 21.4839 81.0054 22.2369C81.3215 22.9772 81.7852 23.6565 82.3727 24.24C82.9651 24.8257 83.6821 25.2931 84.4791 25.6131C85.2975 25.9473 86.2001 26.1145 87.1869 26.1145C87.9492 26.1145 88.7072 25.9431 89.4608 25.6003C90.2138 25.2587 90.7951 24.7879 91.2046 24.188V25.8063H94.2464V13.8409H91.2046V15.4583C90.7951 14.8596 90.2138 14.3888 89.4608 14.046C88.7078 13.7038 87.9499 13.5318 87.1869 13.5318ZM116.154 13.5327C112.429 13.5327 109.482 16.3499 109.482 19.8236C109.482 23.6638 112.335 26.1145 116.544 26.1145C118.899 26.1145 120.403 25.2848 122.241 23.4796L120.186 22.0172C120.185 22.019 118.636 23.8908 116.322 23.8908C113.631 23.8908 112.5 21.896 112.5 20.8639H122.589C123.119 16.9106 120.295 13.5336 116.154 13.5336V13.5327ZM71.9227 13.8409V25.8063H74.9645V16.5943H80.183V13.8409H71.9227ZM95.7137 13.8409L100.705 25.8063H104.529L109.52 13.8409H106.439L102.618 23.0037L98.7941 13.8409H95.7137ZM22.2086 15.7436L27.9908 18.807L23.7483 21.0353L15.2601 25.4936L9.48278 22.4849L15.5504 19.2702L22.2086 15.7436ZM116.13 15.7564C119.379 15.7564 119.773 18.5527 119.796 18.7833H112.508C112.531 18.5536 112.881 15.7564 116.13 15.7564ZM62.6301 16.0235C63.2067 16.0235 63.7325 16.1263 64.2074 16.3317C64.6817 16.5371 65.0863 16.8107 65.4211 17.1523C65.756 17.4957 66.0166 17.898 66.2029 18.3594C66.3878 18.8213 66.4806 19.3094 66.4813 19.8236C66.4813 20.3372 66.3885 20.825 66.2029 21.2869C66.0276 21.7312 65.7623 22.1408 65.4211 22.494C65.0807 22.84 64.6679 23.1191 64.2074 23.3146C63.7131 23.5241 63.1743 23.6297 62.6301 23.6237C62.0906 23.631 61.5564 23.5256 61.0676 23.3155C60.6137 23.1161 60.2064 22.8371 59.8687 22.494C59.5284 22.1424 59.2674 21.7321 59.1008 21.2869C58.9225 20.8166 58.8327 20.3217 58.8353 19.8236C58.8353 19.3094 58.9238 18.8213 59.1008 18.3594C59.2772 17.898 59.5332 17.496 59.8687 17.1532C60.2064 16.8102 60.6137 16.5311 61.0676 16.3317C61.5326 16.1263 62.0528 16.0235 62.6301 16.0235ZM87.3534 16.0235C87.8972 16.0174 88.4356 16.1227 88.9297 16.3317C89.4053 16.5371 89.8102 16.8107 90.1445 17.1523C90.4787 17.4957 90.7389 17.898 90.9252 18.3594C91.1124 18.8282 91.207 19.3241 91.2046 19.8236C91.2069 20.3228 91.1122 20.8183 90.9252 21.2869C90.7502 21.7311 90.4853 22.1407 90.1445 22.494C89.8038 22.8401 89.3906 23.1192 88.9297 23.3146C88.436 23.5238 87.8979 23.6294 87.3544 23.6237C86.8146 23.6311 86.28 23.5258 85.7909 23.3155C85.3366 23.1162 84.9291 22.8372 84.5911 22.494C84.2511 22.1423 83.9905 21.732 83.8242 21.2869C83.6458 20.8166 83.556 20.3217 83.5586 19.8236C83.5586 19.3094 83.6468 18.8213 83.8232 18.3594C83.9995 17.898 84.2555 17.496 84.5911 17.1532C84.9288 16.8102 85.336 16.5311 85.7899 16.3317C86.2556 16.1263 86.7767 16.0235 87.3534 16.0235ZM28.5774 19.726V25.7981L15.8417 32.5449V26.4154L25.2741 21.4611L28.5774 19.726Z" fill="#F0513F"/>
</svg>
