<svg width="68" height="35" viewBox="0 0 68 35" fill="none" xmlns="http://www.w3.org/2000/svg">
<path d="M0.478271 17.0316C0.478271 26.4375 15.5468 34.0631 34.1344 34.0631C52.7221 34.0631 67.7906 26.4375 67.7906 17.0316C67.7906 7.62568 52.7216 0 34.1344 0C15.5473 0 0.478271 7.62568 0.478271 17.0316Z" fill="url(#paint0_radial_17_276)"/>
<path d="M34.1344 32.7984C51.9959 32.7984 66.4759 25.7388 66.4759 17.0315C66.4759 8.32324 51.9959 1.26465 34.1344 1.26465C16.273 1.26465 1.79297 8.32324 1.79297 17.0315C1.79297 25.7388 16.273 32.7984 34.1344 32.7984Z" fill="#777BB3"/>
<path d="M18.7642 18.9863C20.2329 18.9863 21.3289 18.7258 22.0225 18.2123C22.7093 17.7034 23.1831 16.8226 23.4318 15.5943C23.6632 14.446 23.5749 13.6447 23.1689 13.2116C22.7545 12.7695 21.8579 12.5454 20.5043 12.5454H18.1568L16.8563 18.9863H18.7642ZM11.0869 26.9201C11.033 26.92 10.9798 26.9085 10.9312 26.8863C10.8825 26.8641 10.8395 26.8318 10.8053 26.7918C10.7712 26.7518 10.7466 26.7049 10.7335 26.6547C10.7203 26.6044 10.7189 26.552 10.7293 26.5012L14.1775 9.4337C14.1938 9.35392 14.2383 9.28203 14.3035 9.23028C14.3687 9.17854 14.4505 9.15013 14.5351 9.1499H21.9678C24.3038 9.1499 26.0423 9.76 27.1356 10.9635C28.2336 12.1726 28.5734 13.8642 28.1437 15.9894C27.9686 16.855 27.6678 17.6589 27.2497 18.3792C26.8147 19.1203 26.2593 19.7897 25.6048 20.3623C24.7997 21.0867 23.8883 21.6128 22.8981 21.9219C21.9242 22.2275 20.6726 22.3823 19.1801 22.3823H16.17L15.3107 26.6358C15.2945 26.7158 15.2499 26.7879 15.1844 26.8398C15.119 26.8917 15.0369 26.92 14.9521 26.9201H11.0869Z" fill="black"/>
<path d="M18.4579 12.8963H20.5041C22.138 12.8963 22.7054 13.2413 22.8984 13.4472C23.2176 13.7881 23.2786 14.508 23.0725 15.5274C22.8416 16.6691 22.4135 17.479 21.7998 17.9333C21.1719 18.3987 20.1496 18.6345 18.7639 18.6345H17.2989L18.4579 12.8963ZM21.9676 8.7986H14.5354C14.3659 8.79862 14.2017 8.85529 14.0708 8.95892C13.94 9.06255 13.8506 9.2067 13.8181 9.36671L10.3699 26.4347C10.3495 26.5364 10.3528 26.6411 10.3793 26.7414C10.4059 26.8418 10.4552 26.9352 10.5237 27.0151C10.5922 27.095 10.6781 27.1593 10.7754 27.2036C10.8728 27.2478 10.979 27.2708 11.0867 27.2709H14.9519C15.1213 27.2708 15.2855 27.214 15.4162 27.1103C15.547 27.0065 15.6362 26.8623 15.6686 26.7023L16.4706 22.7332H19.1794C20.7107 22.7332 22.0002 22.5723 23.0115 22.2556C24.0511 21.9308 25.0077 21.3799 25.8544 20.6181C26.5362 20.0209 27.1147 19.3229 27.5682 18.5505C28.0052 17.7983 28.3197 16.9585 28.5016 16.056C28.9539 13.8185 28.5863 12.0271 27.4099 10.7321C26.2446 9.44866 24.4135 8.7981 21.9676 8.7981V8.7986ZM16.4128 19.3367H18.7639C20.3223 19.337 21.4827 19.0545 22.2453 18.4893C23.0078 17.9247 23.5228 16.9819 23.7903 15.6609C24.0455 14.3922 23.9289 13.4971 23.4406 12.9757C22.9515 12.4543 21.9727 12.1936 20.5041 12.1936H17.8558L16.4128 19.3367ZM21.9681 9.49976C24.2042 9.49976 25.8349 10.0643 26.8604 11.1935C27.8858 12.3226 28.1943 13.8986 27.7859 15.9214C27.6169 16.7551 27.3321 17.517 26.9314 18.207C26.5299 18.8977 26.0056 19.5296 25.3585 20.1026C24.5872 20.7973 23.7296 21.2922 22.7859 21.5873C21.8424 21.8828 20.6405 22.0303 19.1799 22.03H15.869L14.9524 26.5677H11.0872L14.5359 9.49976H21.9681Z" fill="white"/>
<path d="M37.0052 22.3822C36.9513 22.3823 36.8981 22.3709 36.8493 22.3488C36.8006 22.3267 36.7575 22.2945 36.7232 22.2545C36.6889 22.2145 36.6643 22.1677 36.651 22.1174C36.6378 22.0672 36.6363 22.0147 36.6466 21.9639L38.1716 14.412C38.3173 13.6937 38.2815 13.1787 38.0717 12.9601C37.9429 12.8271 37.5569 12.604 36.4152 12.604H33.6512L31.7338 22.0984C31.7174 22.1784 31.6726 22.2503 31.607 22.302C31.5415 22.3537 31.4594 22.3819 31.3747 22.3817H27.541C27.4872 22.3817 27.434 22.3703 27.3852 22.3483C27.3365 22.3262 27.2934 22.2941 27.2591 22.2542C27.2248 22.2142 27.2001 22.1675 27.1867 22.1173C27.1734 22.0671 27.1717 22.0147 27.1818 21.9639L30.6306 4.89586C30.6469 4.8159 30.6916 4.74389 30.757 4.69212C30.8224 4.64035 30.9045 4.61206 30.9892 4.61206H34.8228C34.8767 4.61203 34.9299 4.62344 34.9786 4.64549C35.0274 4.66754 35.0704 4.69967 35.1048 4.7396C35.1391 4.77953 35.1638 4.82626 35.1772 4.87644C35.1905 4.92663 35.1922 4.97904 35.182 5.02992L34.3501 9.14983H37.3229C39.5878 9.14983 41.1234 9.53329 42.0179 10.324C42.9292 11.1299 43.2143 12.4183 42.8635 14.155L41.2591 22.0984C41.2426 22.1783 41.1979 22.2502 41.1325 22.3018C41.0671 22.3535 40.985 22.3817 40.9004 22.3817L37.0052 22.3822Z" fill="black"/>
<path d="M34.8233 4.2605H30.9891C30.8195 4.26053 30.6552 4.31728 30.5244 4.42101C30.3935 4.52474 30.3042 4.66901 30.2718 4.82911L26.8236 21.8966C26.8032 21.9983 26.8063 22.1031 26.8329 22.2035C26.8594 22.3039 26.9087 22.3974 26.9772 22.4773C27.0456 22.5573 27.1316 22.6217 27.229 22.6659C27.3264 22.7102 27.4327 22.7332 27.5404 22.7333H31.3746C31.5441 22.7333 31.7084 22.6765 31.8392 22.5728C31.9701 22.4691 32.0594 22.3248 32.0918 22.1647L33.9519 12.9551H36.414C37.5541 12.9551 37.7939 13.1893 37.8029 13.2C37.8723 13.2708 37.9633 13.6021 37.8129 14.3453L36.2878 21.8966C36.2674 21.9983 36.2705 22.1032 36.2971 22.2036C36.3237 22.304 36.373 22.3976 36.4415 22.4775C36.5101 22.5575 36.5962 22.6219 36.6936 22.6661C36.791 22.7103 36.8974 22.7333 37.0051 22.7333H40.9008C41.0703 22.7332 41.2344 22.6764 41.3652 22.5727C41.4959 22.4689 41.5852 22.3247 41.6176 22.1647L43.222 14.2223C43.598 12.3577 43.2762 10.9594 42.2649 10.0655C41.2994 9.21259 39.6829 8.79827 37.3228 8.79827H34.7933L35.5406 5.09773C35.5611 4.99595 35.558 4.89106 35.5315 4.79056C35.5049 4.69007 35.4556 4.59647 35.3871 4.51645C35.3185 4.43644 35.2324 4.372 35.135 4.32775C35.0375 4.2835 34.931 4.26054 34.8233 4.2605ZM34.8233 4.96368L33.9067 9.50043H37.3228C39.4722 9.50043 40.9546 9.8613 41.7701 10.583C42.5863 11.3041 42.8313 12.4727 42.5053 14.0888L40.9003 22.0307H37.0051L38.5307 14.4788C38.7042 13.6198 38.6403 13.034 38.3387 12.7214C38.0372 12.4091 37.396 12.2529 36.4151 12.2529H33.3497L31.3746 22.0301H27.5399L30.9886 4.96216H34.8233V4.96368Z" fill="white"/>
<path d="M48.9304 18.9863C50.3992 18.9863 51.4956 18.7258 52.1898 18.2123C52.8755 17.7034 53.3499 16.8226 53.5986 15.5943C53.83 14.446 53.7422 13.6447 53.3357 13.2116C52.9213 12.7695 52.0246 12.5454 50.671 12.5454H48.324L47.0225 18.9863H48.9304ZM41.2547 26.9201C41.2007 26.9201 41.1474 26.9087 41.0986 26.8866C41.0498 26.8645 41.0067 26.8322 40.9724 26.7922C40.9381 26.7521 40.9135 26.7053 40.9003 26.6549C40.8871 26.6046 40.8856 26.5521 40.896 26.5012L44.3442 9.4337C44.3605 9.35375 44.4052 9.28173 44.4707 9.22996C44.5361 9.1782 44.6181 9.1499 44.7029 9.1499H52.1351C54.471 9.1499 56.2096 9.76 57.3024 10.9635C58.4009 12.1726 58.7401 13.8642 58.3105 15.9894C58.1461 16.8265 57.8445 17.6332 57.417 18.3792C56.9819 19.1203 56.4266 19.7897 55.772 20.3623C54.9675 21.0867 54.0551 21.6128 53.0654 21.9219C52.0914 22.2275 50.8398 22.3823 49.3469 22.3823H46.3373L45.4785 26.6358C45.4623 26.7159 45.4176 26.7881 45.352 26.84C45.2865 26.8918 45.2042 26.9202 45.1193 26.9201H41.2547Z" fill="black"/>
<path d="M48.6249 12.8963H50.6711C52.305 12.8963 52.8724 13.2413 53.0649 13.4472C53.3856 13.7881 53.4456 14.508 53.24 15.5274C53.0086 16.6691 52.5805 17.479 51.9668 17.9333C51.3384 18.3987 50.3161 18.6345 48.9309 18.6345H47.4658L48.6249 12.8963ZM52.1346 8.7986H44.7024C44.533 8.79873 44.3689 8.85546 44.2381 8.95908C44.1074 9.0627 44.0181 9.20679 43.9856 9.36671L40.5369 26.4347C40.5165 26.5364 40.5197 26.6412 40.5464 26.7416C40.573 26.8419 40.6223 26.9354 40.6908 27.0153C40.7594 27.0952 40.8454 27.1595 40.9428 27.2037C41.0402 27.2479 41.1465 27.2709 41.2542 27.2709H45.1194C45.2889 27.2708 45.453 27.214 45.5838 27.1103C45.7145 27.0065 45.8037 26.8623 45.8362 26.7023L46.6381 22.7332H49.3464C50.8772 22.7332 52.1672 22.5723 53.1779 22.2556C54.2181 21.9308 55.1747 21.3799 56.0219 20.6175C56.7035 20.0205 57.2818 19.3227 57.7352 18.5505C58.1727 17.7983 58.4861 16.9585 58.6686 16.056C59.1209 13.8185 58.7538 12.0271 57.5769 10.7321C56.4115 9.44866 54.581 8.7981 52.1341 8.7981L52.1346 8.7986ZM46.5797 19.3367H48.9304C50.4888 19.337 51.6496 19.0545 52.4128 18.4893C53.1753 17.9247 53.69 16.9819 53.9568 15.6609C54.213 14.3922 54.0965 13.4971 53.607 12.9757C53.1176 12.4543 52.139 12.1936 50.6711 12.1936H48.0233L46.5797 19.3367ZM52.1346 9.49976C54.3706 9.49976 56.0014 10.0643 57.0268 11.1935C58.0523 12.3226 58.3606 13.8986 57.9518 15.9214C57.7836 16.7551 57.4989 17.517 57.0978 18.207C56.6967 18.8977 56.1723 19.5296 55.5244 20.1026C54.7531 20.7973 53.8956 21.2922 52.9518 21.5873C52.0087 21.8828 50.8069 22.0303 49.3464 22.03H46.036L45.1183 26.5677H41.2531L44.7018 9.49976H52.1346Z" fill="white"/>
<defs>
<radialGradient id="paint0_radial_17_276" cx="0" cy="0" r="1" gradientUnits="userSpaceOnUse" gradientTransform="translate(20.6856 5.98763) scale(44.1955 42.5151)">
<stop stop-color="#AEB2D5"/>
<stop offset="0.3" stop-color="#AEB2D5"/>
<stop offset="0.75" stop-color="#484C89"/>
<stop offset="1" stop-color="#484C89"/>
</radialGradient>
</defs>
</svg>
