<svg width="143" height="17" viewBox="0 0 143 17" fill="none" xmlns="http://www.w3.org/2000/svg">
<path d="M14.9385 0C11.0181 0 8.57447 1.90065 7.60214 5.66667C9.07341 3.77136 10.7969 3.07332 12.7416 3.55329C13.8528 3.82054 14.6607 4.59769 15.5452 5.47853C16.9909 6.89386 18.6578 8.52726 22.3004 8.52726C26.2153 8.52726 28.6589 6.62661 29.6312 2.86059C28.1599 4.75589 26.4364 5.45394 24.4917 4.97397C23.3805 4.70672 22.5782 3.92957 21.6881 3.04873C20.2424 1.6334 18.5755 0 14.9385 0ZM7.57658 8.47274C3.65616 8.47274 1.21256 10.368 0.240234 14.1383C1.7115 12.2388 3.43502 11.5461 5.37968 12.026C6.49091 12.2933 7.29877 13.0704 8.18331 13.9513C9.62902 15.3666 11.2959 17 14.9385 17C18.8534 17 21.2969 15.0994 22.2693 11.3333C20.798 13.2286 19.0745 13.9267 17.1298 13.4414C16.0186 13.1741 15.2163 12.4023 14.3262 11.5215C12.906 10.1008 11.2392 8.47274 7.57658 8.47274Z" fill="#38BDF8"/>
<path d="M44.3294 7.13687H41.7724V11.9227C41.7724 13.2044 42.6314 13.1745 44.3282 13.0954V15.0206C40.8834 15.4215 39.5244 14.5107 39.5244 11.9227V7.13687H37.6309V5.07801H39.5244V2.40556L41.7469 1.76738V5.07801H44.2982V7.13687H44.3294ZM54.1082 5.07801H56.3307V15.0206H54.1082V13.5753C53.327 14.6197 52.108 15.2633 50.4967 15.2633C47.6886 15.2633 45.3584 12.9617 45.3584 10.022C45.3584 7.05776 47.6886 4.78618 50.4978 4.78618C52.108 4.78618 53.327 5.42436 54.1093 6.46876L54.1082 5.07801ZM50.8267 13.229C52.6891 13.229 54.1093 11.8928 54.1093 10.052C54.1093 8.20585 52.6891 6.86962 50.8267 6.86962C48.9699 6.86962 47.5497 8.20585 47.5497 10.052C47.5808 11.8928 48.9687 13.229 50.8267 13.229ZM60.0511 3.58357C59.2743 3.58357 58.6365 2.94005 58.6365 2.21742C58.6365 1.4702 59.2743 0.856605 60.0511 0.856605C60.8289 0.856605 61.4712 1.4702 61.4712 2.21742C61.4968 2.94005 60.8278 3.58357 60.0511 3.58357ZM58.9398 15.0206V5.07908H61.1623V15.0206H58.9398ZM63.7448 15.0206V0.510254H65.9672V15.0206H63.7448ZM80.501 5.07908H82.8624L79.6109 15.0206H77.414L75.2738 8.31489L73.108 15.0206H70.9167L67.6652 5.07908H70.0255L72.0257 11.9473L74.1926 5.07801H76.3328L78.4675 11.9473L80.501 5.07908ZM85.6094 3.58251C84.8326 3.58251 84.1948 2.94112 84.1948 2.21742C84.1948 1.4702 84.8326 0.856605 85.6094 0.856605C86.3872 0.856605 87.0295 1.4702 87.0295 2.21742C87.0551 2.94005 86.4172 3.58251 85.6094 3.58251ZM84.4981 15.0206V5.07908H86.7206V15.0206H84.4981ZM94.7515 4.81184C97.0562 4.81184 98.723 6.33513 98.723 8.89855V15.0206H96.5005V9.14121C96.5005 7.61684 95.5849 6.84504 94.1958 6.84504C92.7246 6.84504 91.5567 7.67136 91.5567 9.70029V15.0452H89.3342V5.10794H91.5567V6.38965C92.2512 5.32067 93.3624 4.81184 94.7515 4.81184ZM109.336 1.09927H111.559V15.0206H109.336V13.5753C108.559 14.6197 107.335 15.2633 105.725 15.2633C102.916 15.2633 100.585 12.9617 100.585 10.022C100.585 7.05776 102.916 4.78618 105.725 4.78618C107.335 4.78618 108.559 5.42436 109.336 6.46876V1.09927ZM106.058 13.229C107.916 13.229 109.336 11.8928 109.336 10.052C109.336 8.20585 107.916 6.86962 106.058 6.86962C104.197 6.86962 102.777 8.20585 102.777 10.052C102.777 11.8928 104.196 13.229 106.058 13.229ZM119.029 15.2878C115.922 15.2878 113.56 12.9917 113.56 10.052C113.56 7.08235 115.89 4.81077 119.029 4.81077C121.061 4.81077 122.81 5.8263 123.643 7.37953L121.724 8.44851C121.282 7.51315 120.253 6.92414 119.003 6.92414C117.172 6.92414 115.808 8.26036 115.808 10.052C115.808 11.8382 117.197 13.1745 119.003 13.1745C120.253 13.1745 121.251 12.5609 121.755 11.6554L123.669 12.6945C122.836 14.2734 121.061 15.2878 119.029 15.2878ZM127.394 7.80498C127.394 9.62225 132.95 8.52761 132.95 12.2145C132.95 14.1943 131.144 15.2878 128.922 15.2878C126.864 15.2878 125.366 14.3771 124.698 12.9617L126.617 11.8928C126.946 12.8035 127.779 13.338 128.922 13.338C129.92 13.338 130.671 13.0163 130.671 12.2145C130.671 10.4528 125.115 11.4374 125.115 7.88516C125.115 6.01444 126.782 4.8407 128.891 4.8407C130.589 4.8407 132.003 5.58791 132.729 6.89421L130.835 7.91402C130.475 7.13687 129.755 6.79052 128.891 6.79052C128.088 6.76059 127.394 7.11121 127.394 7.80498ZM136.922 7.80498C136.922 9.62225 142.478 8.52761 142.478 12.2145C142.478 14.1943 140.672 15.2878 138.45 15.2878C136.392 15.2878 134.894 14.3771 134.227 12.9617L136.145 11.8928C136.478 12.8035 137.312 13.338 138.45 13.338C139.447 13.338 140.199 13.0163 140.199 12.2145C140.199 10.4528 134.642 11.4374 134.642 7.88516C134.642 6.01444 136.309 4.8407 138.424 4.8407C140.116 4.8407 141.531 5.58791 142.257 6.89421L140.367 7.91402C140.003 7.13687 139.283 6.79052 138.423 6.79052C137.616 6.76059 136.922 7.11121 136.922 7.80498Z" fill="white"/>
</svg>
